<?xml version="1.0" encoding="utf-8"?>
<!-- Generator: Adobe Illustrator 22.0.1, SVG Export Plug-In . SVG Version: 6.00 Build 0)  -->
<svg version="1.1" id="Layer_1" xmlns="http://www.w3.org/2000/svg" xmlns:xlink="http://www.w3.org/1999/xlink" x="0px" y="0px"
	 viewBox="0 0 2222 1111" style="enable-background:new 0 0 2222 1111;" xml:space="preserve">
<style type="text/css">
	.st0{fill:#F4EFE9;}
	.st1{fill:#294A53;}
	.st2{fill:#EC1C24;}
</style>
<g>
	<rect class="st0" width="2222" height="1111"/>
</g>
<g>
	<g>
		<path class="st1" d="M623.5,468.8c3-2.5,4.6-5.1,4.6-8.3c0-6.5-7.2-9-14.5-9c-21.9,0-42.7,11.2-57.1,27.1
			c-21.7,23.5-35.4,57.8-34.9,79.8c0,13.6,4.7,22,14,22c7.5,0,18.8-10,29.7-25.2c11.2-15.4,20.6-31,29.5-47.7
			c7.9-14.8,14.9-29.5,21.4-43.8c0.8-1.1,1.9-1.8,3.5-1.8c0.3,0,0.6,0.1,0.6,0.7c0,0.1-0.1,0.7-0.6,1.4c-3.2,9-6.6,21.4-10.5,37.6
			c-3.9,16-5.7,30-5.7,42.1c0,18.4,5.1,27.5,15.5,27.5c3.3,0,7.2-1.4,11.5-4c8.7-5.4,12.3-9.1,15.6-12.7l0.3-0.3
			c0.1,0.6,0.3,0.8,0.3,1.1c0,0.6-0.1,0.8-0.6,1.1c-11.5,11.3-21.6,17-29.9,17c-11.3,0-17-9.5-17-28.4c0-16.9,4-38.2,11.9-64.3
			c-9.8,20.5-18.7,37.6-30.2,56.2c-5.8,9.1-11.3,17.2-16.7,23.7c-10.5,12.9-22.1,22.1-31.5,22.1c-10.5,0-15.6-9.1-15.6-23.8
			c0-19.2,9-46.9,26.1-69.3c5.8-7.6,12.3-14.5,19.4-20.5c14-12.2,33.2-20.1,53-20.1c8,0,16,2.6,16,9.4c0,2.5-0.8,5-2.5,7.5
			c-1.5,2.5-3.2,3.7-4.7,3.7C623.8,469.6,623.5,469.3,623.5,468.8z"/>
		<path class="st1" d="M650.2,561.9l-3.3-5.9c-0.7-1.5-1.5-3.7-1.5-5.1c0-4,3.9-6.6,7.9-6.6c1,0,1.5,0.6,1.5,1.4
			c0,0.6-0.1,0.8-0.7,1.4c-0.8-0.6-1.7-0.8-2.4-0.8c-2.2,0-3.3,1.1-3.3,3.7c0,1.5,1.7,5.1,4.8,11.1c12.7-4.8,32.8-7.2,60.6-7.2
			c0,0.8-0.8,1.4-2.5,1.4c-26.1,0-45.4,2.4-57.4,7.1c1.8,3.9,2.8,6.6,2.8,8.4c0,4.8-4.3,8-9.1,8c-3.9,0-6.8-1.9-6.8-5.5
			C640.7,568.4,643.9,564.6,650.2,561.9z M653.7,571.4c0-1.9-1-4.8-2.8-8.3c-4.8,2.4-7.2,5.4-7.2,8.9
			C643.7,577.9,653.7,578,653.7,571.4z"/>
		<path class="st1" d="M725.1,517.3c-5.9,1.5-12.4,2.4-19.5,2.4c-2.2,0-3.3-0.7-3.3-1.9c1.1,0.1,3,0.1,5.4,0.1
			c6.5,0,12.7-0.8,18.1-2.4c1.1-3.7,2.6-7.6,4.3-12.2c13.3-36.7,24.9-58.7,36.7-58.7c1.5,0,2.4,2.8,2.4,8.4c0,6.6-1,13.7-3,20.9
			c-5.9,22-18.7,36.2-38,42.3l-16.2,47.3c0.8-0.8,3-3,6.2-6.8c6.5-7.5,11.3-11.3,16.9-11.3c1.1,0,1.9,1.7,2.5,5.1
			c0.7,3.5,1.4,8.7,2.2,15.9s1.9,13.3,3.2,18.5c2.8,12.7,6.6,22.1,13.6,31.7c7.2,9.5,18.1,14.9,32.4,14.9c5.4,0,11.3-0.8,18-2.5
			c0.1,0.8-0.6,1.4-2.4,1.8c-6.6,1.7-12.7,2.5-18,2.5c-23.8,0-39.3-16-46.9-47.9c-1.1-5.4-2.4-11.3-3.2-18
			c-1.8-13.3-2.4-20.3-3.5-20.3c-3.2,0-8.4,4.7-16.2,14c-3.5,3.5-4.8,6.4-7.5,6.4c-0.6,0-0.8-0.3-0.8-1.1L725.1,517.3z M766,453.7
			c0-4.6-0.3-6.8-1-7.2c-7.5,0-18.4,19.2-32.5,57.5l-3.9,10.5c17.2-5.8,28.5-19,34.3-39.6C765,467.9,766,460.7,766,453.7z"/>
		<path class="st1" d="M843.9,571.8c12.2-6.2,21.9-12,29.3-17.6c0.1,0.1,0.1,0.3,0.1,0.6c0,0.8-0.6,1.5-1.5,2.4
			c-7.3,5.1-17.2,10.8-29.5,16.7c-12.2,5.9-22.7,9-31.1,9c-10.2,0-15.4-7.6-15.4-23.2c0-5.7,0.7-12,1.9-18.8c-2.8,2.2-5.9,4-9.4,5.5
			c-0.1,0.1-0.7,0.3-1.1,0.3c-0.8,0-1.1-0.3-1.1-0.8c4.1-1.8,8.2-4.3,12-7.2c2.8-12.9,7.1-26.6,12.4-41.2
			c5.7-14.7,11.6-27.1,17.8-37.3s11.3-15.4,15.2-15.4c1.4,0.1,1.9,2.8,1.9,8.3c0,13.8-4.3,29.2-12.9,45.8
			c-8.4,16.5-19,29.7-31.8,39.6c-1.8,8.4-2.6,15.9-2.6,21.7c0,14,4.7,21,13.8,21C821.2,581.2,831.7,578,843.9,571.8z M842.2,448
			c-4.6,0.8-11.3,11.2-20.5,30.8c-9.1,19.6-16,38.9-20.2,57.4c11.9-9.8,21.6-22.7,29.3-38.7c7.9-16.2,11.9-30.7,11.9-43.7
			C842.8,450,842.6,448,842.2,448z"/>
		<path class="st1" d="M888.6,550.5c0.1-0.8,1-1.4,2.4-1.4c0.6,0,0.7,0.1,0.7,0.3c-5.5,20.5-13.8,43-24.6,67.5
			c-9,20.9-17.8,37.1-26.3,48.6c-0.6,0.7-1.1,1-2.4,1.1c-1.1,0-1.8-0.8-1.8-2.6c0.1-6.5,1.9-15.5,5.4-27c3.2-11.3,6.8-17,10.7-17
			c-3.5,4.6-6.4,10.8-8.9,19.2c-2.5,8.3-3.9,16.2-4.1,23.7v1c7.9-11.3,16.2-26.7,24.6-46.1c8.7-19.8,16.2-40,22.5-60.7
			c-0.8,1-2.2,2.5-4,4.3c-4,3.9-7.2,5.7-9.7,5.7c-1.8,0-2.6-1.8-2.6-5.4c0-3,0.6-6.4,1.5-10c0.3-1.1,1.1-1.7,2.5-1.7
			c0.3,0,0.6,0.1,0.6,0.3c0,0.1-1.5,6.8-1.5,11.1c0,2.5,0.6,3.7,1.4,3.9c1,0,2.8-1.4,5.7-3.9c3.9-3.7,6.5-7.1,8-10L888.6,550.5z"/>
		<path class="st1" d="M1227.6,554c0,0.8-0.6,1.7-1.7,2.5c-11.5,10-26.7,17-40,17c-38.7,0-31.7-47.6-43.2-47.6
			c-5.9,0-14,5.7-20.6,12.4c-3.2,3.5-6.6,7.5-10.2,12.2c-6.8,9.1-10.7,15.4-14.5,21.4c-0.8,1.4-1.9,1.9-3.3,1.9
			c-0.6,0-0.7-0.3-0.6-1c2.2-7.5,5-19.2,8.4-35.4c3.5-16.2,5.4-28.2,5.4-36c0-4.8-0.8-7.3-2.5-7.3c-4.7,0-14.5,10.7-29.5,32.2
			c-11.1,16.2-20.9,33.9-29.3,52.7c-0.8,1.1-1.8,1.8-3.2,1.8c-0.6,0-0.7-0.3-0.7-0.8l5.5-17l5.5-16.7l5.4-16.5l4.6-14.4
			c1.8-6.2,3.3-10.8,4.1-14.4l2.8-12c2.2-8.9,2.8-15.4,2.8-21.2c0-16-5-24.1-18.5-24.1c-10.5,0-21.6,3.9-33.3,11.5
			c-11.8,7.6-21.7,17.3-29.5,28.9c-7.9,11.5-11.6,22.4-11.6,32.8c0,8.9,3.9,13.1,11.5,13.1c1.9,0,4.3-0.3,6.8-1v0.1
			c0,1.8-5.9,3.3-9.4,3.3c-8.7-0.1-13-4.8-13-14c0-11.2,4.3-22.8,12.9-35c8.7-12.2,19.4-22.4,32-30.2c12.9-8,24.9-12,36.2-12
			c15.2,0,20.1,9,20.1,24.9c0,4.6-0.3,9.1-1.7,15.6c-1.1,6.2-1.8,10-4.3,18.5c-1.1,4.1-1.9,7.5-2.8,10c-0.7,2.5-1.8,6.4-3.5,11.5
			l-3.5,11.3l-4.1,12.7c-1.8,5.9-3.3,10.4-4.1,12.9c6.2-11.2,12.4-21.9,19.2-32c15.9-23.5,27.7-35.1,35.6-35.1
			c2.5,0,3.7,3.2,3.7,9.7c0,11.9-3.9,32.4-11.3,61.6c4.1-6.5,8.4-12.4,13-18c4.6-5.5,9.7-10.4,15.6-14.8c6.2-4.6,11.6-6.8,16.9-6.8
			c4.8,0,7.6,7.5,10.2,16.9c3.5,13.3,10,31,30.7,30.8c14,0,30-7.2,41.2-18C1227.5,553.6,1227.6,553.8,1227.6,554z"/>
		<path class="st1" d="M1234.4,551.2c-4.7,0-7.2,5.8-7.2,11.2c0,2.2,0.7,3.3,1.8,3.3c1.5,0,4-1.9,7.2-5.8c3.3-3.9,5-6.6,5-8.2
			c1.1,0,1.8,0.7,1.8,1.8c0,5.8,2.5,10.7,7.3,14.1s10.7,5.4,17.6,5.4c7.6,0,15.6-1.8,24.1-5.5c8.4-3.7,15.2-8,20.3-13.1
			c0.1,0.1,0.3,0.6,0.3,1c0,0.6-0.1,1-0.7,1.4c-5.7,5-12.9,9.4-21.4,12.9c-8.4,3.5-16.7,5.4-24.5,5.4c-13.1,0-23.8-7.1-25.3-17
			c-4.8,6.5-9.7,9.7-14.1,9.7c-1.5,0-2.2-1.4-2.2-4c0-7.5,4.8-14,12.2-14c2.4,0,3.5,0.7,3.5,1.8c0,0.8-0.3,1.5-1,1.9
			C1238,551.9,1236.5,551.2,1234.4,551.2z"/>
		<path class="st1" d="M1323.5,555.5c0,16.9,7.3,25.2,21.9,25.2c9.4,0,20.2-3,32.5-8.9s22.4-11.6,29.9-17.6c0.1,0.1,0.1,0.3,0.1,0.6
			c0,0.8-0.6,1.7-1.5,2.2c-7.9,5.8-17.8,11.5-30.2,17c-12.3,5.5-23.2,8.3-32.6,8.3c-15.4,0-23-8.4-23-25.3
			c-10.8,0-16.2-3.7-16.2-7.9c0-3.9,4-7.2,9.1-7.2c2.6,0,4,1.5,4,4.6c0,2.5-0.8,5-2.6,7.9c2.5,0.6,5.1,0.8,8.2,0.8
			C1323.3,555.2,1323.5,555.4,1323.5,555.5z M1307.3,548c0,2.5,1.8,4.6,5.4,5.7c1.1-2.2,1.7-4.3,1.7-6.2c0-2.5-0.8-3.7-2.6-3.7
			C1309.1,543.9,1307.3,545.8,1307.3,548z"/>
		<path class="st1" d="M1437.6,551.5c0,1.8-4.1,2.6-6.8,2.6c-2.2,0-4-0.3-5.8-1c0.3,1,0.6,1.9,0.6,3.2c0,6.6-5.4,13.1-12,15.6
			c3.7,4.1,6.5,7.5,8.3,10c1.8,2.5,3.9,6.6,5.9,12.2c2.1,5.5,3.3,11.3,3.3,17.3c0,7.1-2.4,15.2-6.8,24.3
			c-4.6,9.4-10.4,17.6-17.7,24.3c-7.2,7.1-14.1,10.5-21,10.5c-6.5,0-11.5-5-13.7-11.9c-2.5-6.8-3.5-13.1-3.5-19v-1.9
			c0.6-12.7,4.1-23.4,11.2-32c7.1-8.4,16.5-12.9,28.4-12.9c1.9,0,3,0.7,3,1.9c-0.8,0-4.1-0.1-4.7-0.1c-7.5,0-14,2.2-19.4,6.6
			c-10.8,8.9-14.9,21.6-15.5,35.4v1.9c0,3.9,0.6,7.9,1.4,12s2.5,8.2,5,11.9c2.5,3.9,5.5,5.8,9.1,5.9c6.2,0,12.4-3.3,19-10.2
			c6.6-6.6,12-14.4,16-23.2c4.1-8.7,6.2-16.2,6.2-22.7c0-13.1-5.9-25.7-12-32.4c-5.8-6.5-11.9-13.8-11.9-18.5
			c0-7.3,6.8-12.4,14.4-12.4c1.7,0,4,0.6,7.2,1.5c3.2,1,5.5,1.5,7.1,1.5c1.4,0,2.8-0.6,4.7-1.4
			C1437.3,551.2,1437.3,551.3,1437.6,551.5z M1412.4,570.7c5.8-1.5,10-7.2,10-13.1c0-3.5-2.4-6.4-5.7-6.4c-5.5,0-9.4,4.1-9.4,9.5
			C1407.3,563.2,1409,566.6,1412.4,570.7z"/>
		<path class="st1" d="M1483.2,555.5c0,16.9,7.3,25.2,21.9,25.2c9.4,0,20.2-3,32.5-8.9s22.4-11.6,29.9-17.6c0.1,0.1,0.1,0.3,0.1,0.6
			c0,0.8-0.6,1.7-1.5,2.2c-7.9,5.8-17.8,11.5-30.2,17c-12.3,5.5-23.2,8.3-32.6,8.3c-15.4,0-23-8.4-23-25.3
			c-10.8,0-16.2-3.7-16.2-7.9c0-3.9,4-7.2,9.1-7.2c2.6,0,4,1.5,4,4.6c0,2.5-0.8,5-2.6,7.9c2.5,0.6,5.1,0.8,8.2,0.8
			C1483.1,555.2,1483.2,555.4,1483.2,555.5z M1467.1,548c0,2.5,1.8,4.6,5.4,5.7c1.1-2.2,1.7-4.3,1.7-6.2c0-2.5-0.8-3.7-2.6-3.7
			C1468.9,543.9,1467.1,545.8,1467.1,548z"/>
		<path class="st1" d="M1588.4,559.2c-0.7,0-3.7,0.8-9.1,2.4c-5.5,1.5-9.1,2.2-11.3,2.4c1.5,3.7,4.7,5.5,9.8,5.5
			c7.1,0,17-1.8,30.2-5.5c10.2-2.8,20.1-5.9,29.7-9.5c0.1,0.1,0.1,0.3,0.1,0.6c0,0.6-0.3,1-1,1.1c-11.9,4.1-21.7,7.5-29.5,9.7
			c-13.6,3.7-24.1,5.5-31.5,5.5s-11.5-4.3-11.5-9.7c0-6.5,5.1-12.4,12.4-12.4c2.4,0,3.5,1.1,3.5,3.5c0,2.8-1.5,5.4-4.6,7.9
			c5.4-1.4,9-1.9,11.1-1.9C1588,558.4,1588.4,558.7,1588.4,559.2z M1567.5,561.9l3.3-0.3c4-1.1,6.5-4.7,6.5-7.9
			c0-1.8-0.8-2.8-2.5-2.8c-4,0-7.3,4.8-7.3,10L1567.5,561.9L1567.5,561.9z"/>
		<path class="st1" d="M1647.3,521.1c-5.1,14.5-7.6,25.9-7.6,34c0,12.4,5.7,18.7,16.9,18.7c10.8,0,27-5.4,48.1-16.2
			c0.1,0.1,0.3,0.6,0.3,0.7c0,0.6-0.7,1-1.8,1.7c-21.3,10.7-37.3,16-48.1,16c-12.2,0-18.1-6.6-18.1-20.1c0-7.9,2.5-19.5,7.6-34.9
			c-2.6,0.1-6.4,0.6-10.8,1.1c0-0.8,1-1.4,2.8-1.7c3.3-0.6,6.2-0.7,8.4-0.8l2.6-7.5l14.7-40.8c0.3-1.4,1.1-1.9,2.5-1.9
			c0.3,0,0.7,0,0.8,0.1l-6.8,18.5c-3.2,9-6.2,17.3-8.7,24.9l-2.4,6.8c11.2-0.8,23.4-1.1,36.4-1.1h4.7c0,1-0.6,1.5-1.5,1.5
			C1669.4,519.9,1656.1,520.4,1647.3,521.1z"/>
	</g>
</g>
<g>
	<path class="st2" d="M1999.2,927.7c-0.2,0.5-0.3,1-0.5,1.4l3.3,1.1c0.2,0,0.3,0,0.5-0.5l0.5-1l0.6,0.2l-1.6,4.6l-0.6-0.3l0.2-0.8
		c0.2-0.5,0-0.6-0.2-0.6l-8.8-3c-0.2,0-0.3,0-0.5,0.5l-0.3,0.6l-0.6-0.2l1.4-4.3c1-2.7,2.7-3.7,4.3-3.2
		C1999.4,923,2000,925.4,1999.2,927.7z M1993.5,925.7l-0.5,1.4l4.9,1.8c0.3-0.3,0.5-0.8,0.6-1.3c0.5-1.4,0-2.9-1.6-3.3
		C1995.3,923.7,1994,924.3,1993.5,925.7z"/>
	<path class="st2" d="M2011.5,914.1l-0.5-0.5l0.3-0.6c0.2-0.5,0.3-0.6,0.2-0.6l-3.5-2.6l-3.2,4.5l3.5,2.6c0.2,0.2,0.3,0,0.6-0.3
		l0.5-0.5l0.5,0.3l-2.7,3.7l-0.5-0.5l0.3-0.6c0.2-0.5,0.2-0.6,0.2-0.6l-7.5-5.3c-0.2-0.2-0.3,0-0.6,0.3l-0.5,0.5l-0.5-0.3l2.7-3.7
		l0.5,0.5l-0.3,0.6c-0.2,0.5-0.2,0.6-0.2,0.6l3.3,2.4l3.2-4.5l-3.3-2.4c-0.2-0.2-0.3,0-0.6,0.3l-0.5,0.5l-0.5-0.3l2.7-3.7l0.5,0.5
		l-0.3,0.6c-0.2,0.5-0.2,0.6-0.2,0.6l7.5,5.3c0.2,0.2,0.3,0,0.6-0.3l0.5-0.5l0.5,0.3L2011.5,914.1z"/>
	<path class="st2" d="M2023,902.9c-2.7,2.1-6.1,1.6-8.1-1.1c-1.9-2.6-1.4-6.4,1.1-8.3c2.7-2.1,6.1-1.6,8.1,1.1
		C2026.2,897.4,2025.7,901,2023,902.9z M2016.3,894.2c-1.8,1.3-2.1,3.8-0.2,6.4c1.9,2.7,4.6,3.2,6.4,1.9c1.8-1.3,2.1-3.8,0.2-6.4
		C2020.8,893.4,2018.1,892.7,2016.3,894.2z"/>
	<path class="st2" d="M2038.5,886.4l-1-1.4c-0.5-0.6-0.8-0.8-3,0l0,0l3.2,8.9c0,0.2,0.2,0.2,0.6,0l1.1-0.3l0.3,0.6l-4.9,1.8
		l-0.2-0.6l1-0.5c0.5-0.2,0.5-0.3,0.5-0.5l-3.2-8.9l0,0c-2.1,0.8-2.4,1-2.4,1.8l0.2,1.9l-0.8,0.3l-1-3.3l9.2-3.3l1.3,3.3
		L2038.5,886.4z"/>
	<path class="st2" d="M2053.3,891.9c-3.3,0.2-5.9-2.1-6.2-5.4c-0.2-3.2,2.2-6.1,5.6-6.2c3.3-0.2,5.9,2.1,6.2,5.6
		C2059,889.1,2056.6,891.8,2053.3,891.9z M2052.8,880.9c-2.1,0.2-3.8,2.1-3.7,5.3c0.2,3.3,2.1,5.3,4.3,5.1c2.1-0.2,3.8-2.1,3.7-5.3
		C2056.8,882.7,2054.9,880.8,2052.8,880.9z"/>
	<path class="st2" d="M2077.4,890.8l-0.8-0.2c-0.5,0-0.6,0-0.6,0.2l-0.6,2.6l1,0.3l-0.2,0.5c-1.4,0.2-3.5,0-5.1-0.3
		c-3.3-1-5.6-3.7-4.6-7.2c1-3.7,4.5-5.1,7.8-4.1c1,0.3,1.9,0.8,2.2,1l1.4,0.2l-1,3.5l-0.8-0.2l0.2-2.4c-0.5-0.6-1.3-1.1-2.4-1.4
		c-2.4-0.6-4.9,1-5.6,3.7c-0.8,3,0.2,5.6,3,6.2c0.8,0.2,1.6,0.2,2.2,0.2l0.8-3c0-0.2,0-0.3-0.5-0.5l-0.8-0.3l0.2-0.6l4.6,1.3
		L2077.4,890.8z"/>
	<path class="st2" d="M2089.5,900.1c0,1.1,0.2,1.3,0.5,1.4l0.5,0.3l-0.3,0.6l-2.6-1.4v-1.4l0.2-4.3l-1.3-0.6l-2.1,3.3
		c-0.2,0.2,0,0.3,0.3,0.6l0.6,0.5l-0.3,0.6l-4-2.4l0.3-0.5l0.6,0.3c0.5,0.2,0.6,0.2,0.6,0l4.8-7.8c0.2-0.2,0-0.3-0.3-0.6l-0.6-0.5
		l0.3-0.6l4,2.4c2.4,1.4,2.9,3,2.1,4.5c-0.8,1.3-2.2,1.6-3.8,1.3L2089.5,900.1z M2090.3,890.5c-0.2-0.2-1-0.6-1-0.6l-2.4,4l1.1,0.8
		c1.4,0.6,2.6,0.5,3.5-0.8C2092.2,892.4,2091.9,891.3,2090.3,890.5z"/>
	<path class="st2" d="M2097.4,909.8l0.5-0.3l0.6,0.5c0.5,0.3,0.6,0.2,1.4-1.1l0.6-1.3l-2.6-2.7l-1.3,0.6c-1.3,0.6-1.8,0.8-1.3,1.3
		l0.3,0.6l-0.5,0.5l-2.6-2.7l0.5-0.3l0.5,0.3c0.6,0.5,1,0.3,4.1-1l5.7-2.6l0.5-0.5l1.6,0.6l-5.3,9.6c-0.2,0.2-0.2,0.5,0.2,0.6
		l0.5,0.8l-0.5,0.5L2097.4,909.8z M2103.7,902.3L2103.7,902.3l-4.8,2.1l2.2,2.4L2103.7,902.3z"/>
	<path class="st2" d="M2109.7,919.2c-0.2-0.5-0.5-1-0.6-1.3l-3.2,1.8c-0.2,0-0.2,0.2,0,0.6l0.5,1l-0.5,0.3l-2.4-4.3l0.6-0.3l0.5,0.6
		c0.3,0.3,0.5,0.5,0.6,0.5l8.1-4.3c0.2,0,0.2-0.2,0-0.6l-0.3-0.6l0.5-0.3l2.2,4.1c1.4,2.6,0.8,4.5-0.6,5.3
		C2112.9,922.6,2110.8,921.3,2109.7,919.2z M2115,916.3l-0.6-1.3l-4.6,2.4c0.2,0.5,0.3,0.8,0.5,1.3c0.8,1.4,2.1,1.9,3.7,1.1
		C2115.3,919.1,2115.6,917.8,2115,916.3z"/>
	<path class="st2" d="M2111.3,937.4h0.6l0.2,0.6c0.2,0.5,0.3,0.6,0.5,0.5l4.3-1l-1.1-5.4l-4.3,1c-0.2,0-0.2,0.2-0.2,0.6v0.8
		l-0.6,0.2l-1-4.5h0.6l0.2,0.6c0.2,0.5,0.3,0.6,0.5,0.5l9.1-1.9c0.2,0,0.2-0.2,0.2-0.6V928l0.6-0.2l1,4.5h-0.6l-0.2-0.6
		c-0.2-0.5-0.3-0.6-0.5-0.5l-4,0.8l1.1,5.4l4-0.8c0.2,0,0.2-0.2,0.2-0.6v-0.8l0.6-0.2l1,4.5h-0.6l-0.2-0.6c-0.2-0.5-0.3-0.6-0.5-0.5
		l-9.1,1.9c-0.2,0-0.2,0.2-0.2,0.6v0.8l-0.6,0.2L2111.3,937.4z"/>
	<path class="st2" d="M2122,958.6v-0.3c-0.2-0.6-0.3-1.1-1.1-1.8l-4-2.9l-4-0.3c-0.2,0-0.3,0.2-0.3,0.6l-0.2,1.1h-0.6l0.5-5.3
		l0.6,0.2v1.1c0,0.5,0.2,0.6,0.3,0.6l3.7,0.3l5.4-2.9c0.3-0.2,0.6-0.5,0.8-1l0.2-0.6h0.6l-0.3,4.6l-0.6-0.2v-0.8
		c0-0.6-0.5-0.5-1.9,0.2l-3.2,1.6v0.2l3.3,2.2c0.8,0.6,1.1,0.5,1.4,0l0.2-0.5h0.6l-0.3,3.7L2122,958.6z"/>
	<path class="st2" d="M2082.1,999.2c-1-0.5-1.3-0.5-1.6-0.3l-0.5,0.2l-0.3-0.5l2.6-1.4l1.3,0.8l3.8,2.2l1.3-0.8l-2.1-3.3
		c-0.2-0.2-0.2-0.2-0.6,0l-0.8,0.3l-0.3-0.5l4-2.4l0.3,0.6l-0.6,0.5c-0.3,0.3-0.5,0.5-0.3,0.6l4.6,8c0.2,0.2,0.2,0.2,0.6,0l0.6-0.3
		l0.3,0.5l-4,2.4c-2.4,1.4-4.1,1.1-4.9-0.3c-0.8-1.3-0.3-2.7,0.6-4L2082.1,999.2z M2090.3,1004.7c0.2-0.2,1-0.6,1-0.6l-2.4-4.1
		l-1.1,0.5c-1.3,0.8-1.8,2.1-1,3.3C2087.6,1005.3,2088.8,1005.6,2090.3,1004.7z"/>
	<path class="st2" d="M2066.7,1002.6l8.6-2.2l0.2,0.6l-0.6,0.3c-0.5,0.2-0.6,0.3-0.5,0.5l2.4,8.9c0,0.2,0.2,0.2,0.6,0.2l0.8-0.2
		l0.2,0.6l-8.6,2.2l-0.8-3.2l0.8-0.2l0.8,1.6c0.5,0.8,0.6,0.8,3.8-0.2l0.6-0.2l-1.1-4.3l-0.5,0.2c-1.3,0.3-1.6,0.5-1.6,0.8l-0.2,1.3
		l-0.6,0.2l-0.6-3.8l0.6-0.2l0.5,1.1c0.2,0.3,0.3,0.3,1.8,0l0.5-0.2l-1.3-4.5l-0.5,0.2c-3.5,1-3.7,1.1-3.8,1.9v1.8l-1,0.3
		L2066.7,1002.6z"/>
	<path class="st2" d="M2051.5,1011l0.3,1.8c0.2,0.8,0.3,1.1,2.7,1.1l0,0l0.2-9.6c0-0.2-0.2-0.2-0.6-0.3l-1.1-0.2v-0.6l5.3,0.2v0.6
		h-1.1c-0.5,0-0.6,0.2-0.6,0.3l-0.2,9.6l0,0c2.2,0,2.6,0,2.9-0.8l0.5-1.9h1l-0.3,3.5l-9.7-0.2v-3.5H2051.5z"/>
	<path class="st2" d="M2039.6,1000.5c3.2,1,4.9,4,3.8,7.3c-1,3.2-4.3,4.9-7.5,4s-4.9-4-3.8-7.3
		C2033.2,1001.3,2036.4,999.6,2039.6,1000.5z M2036.2,1011.2c2.1,0.6,4.3-0.6,5.3-3.7c1-3.2-0.2-5.7-2.2-6.4
		c-2.1-0.6-4.3,0.6-5.3,3.7C2033,1008,2034.2,1010.6,2036.2,1011.2z"/>
	<path class="st2" d="M2013.1,998.4l0.8,0.3c0.6,0.3,0.8,0.2,2.7-2.6l1.9-2.6c1.4-1.9,3.7-2.2,5.9-0.8c2.2,1.6,2.7,3.5,1.1,5.7
		l-3.7,5.3c-0.2,0.2,0,0.2,0.3,0.6l0.5,0.5l-0.3,0.5l-3.7-2.6l0.5-0.5l0.6,0.3c0.5,0.2,0.6,0.2,0.6,0.2l3.5-4.9
		c1.4-2.1,0.8-3.5-0.6-4.6c-1.6-1.1-3.2-0.8-4.3,0.8l-1.8,2.6c-1.9,2.7-1.9,2.9-1.4,3.3l0.6,0.6l-0.3,0.5l-3.3-2.4L2013.1,998.4z"/>
	<path class="st2" d="M2009.3,978l0.5,0.8c0.6,0.3,1.4,1.1,2.1,1.9c2.1,2.7,2.2,6.2-0.8,8.4c-3,2.4-6.5,1.4-8.6-1.3
		c-0.6-0.8-1.1-1.8-1.3-2.2l-1.1-1l2.9-2.2l0.5,0.6l-1.6,1.8c0.2,0.8,0.3,1.6,1.1,2.6c1.6,2.1,4.3,2.1,6.7,0.3
		c2.6-1.9,3.2-4.5,1.4-6.9c-0.5-0.6-1.1-1.1-1.8-1.4l-2.4,1l-0.5-0.6L2009.3,978z"/>
	<path class="st2" d="M2003.4,965.6l-0.6,0.2l-0.3-0.6c-0.2-0.5-0.3-0.5-0.5-0.5l-4.1,1.4l1.9,5.3l4.1-1.6c0.2,0,0.2-0.2,0-0.6
		l-0.2-0.8l0.6-0.3l1.6,4.3l-0.6,0.2l-0.3-0.6c-0.2-0.5-0.3-0.5-0.5-0.5l-8.6,3.2c-0.2,0-0.2,0.2,0,0.6l0.2,0.8l-0.6,0.3l-1.6-4.3
		l0.6-0.2l0.3,0.6c0.2,0.5,0.3,0.5,0.5,0.5l3.8-1.4l-1.9-5.3l-3.8,1.4c-0.2,0-0.2,0.2,0,0.6l0.2,0.8l-0.6,0.3l-1.6-4.3l0.6-0.2
		l0.3,0.6c0.2,0.5,0.3,0.5,0.5,0.5l8.6-3.2c0.2,0,0.2-0.2,0-0.6l-0.2-0.8l0.6-0.3L2003.4,965.6z"/>
	<path class="st2" d="M2104,989.4c4.5-5.3,8.3-11.2,10.8-17.7l-1.4-0.5c-2.6,6.2-6.2,12-10.5,17.1L2104,989.4z"/>
</g>
</svg>
