<?xml version="1.0" encoding="utf-8"?>
<!-- Generator: Adobe Illustrator 21.1.0, SVG Export Plug-In . SVG Version: 6.00 Build 0)  -->
<svg version="1.1" id="Layer_1" xmlns="http://www.w3.org/2000/svg" xmlns:xlink="http://www.w3.org/1999/xlink" x="0px" y="0px"
	 viewBox="0 0 1742 1111" style="enable-background:new 0 0 1742 1111;background: #D3E9FA;" xml:space="preserve">
  <filter id="BLURR-1" x="-20" y="-20" width="200" height="200">
        <feGaussianBlur in="SourceGraphic" stdDeviation="19" />
    </filter>
  <filter id="BLURR-2" x="-20" y="-20" width="200" height="200">
        <feGaussianBlur in="SourceGraphic" stdDeviation="9" />
    </filter>
  <!-- filter:url(#BLURR-1); -->
<style type="text/css">
	.st0{fill:#02005D;}
	.st1{fill:#005079;}
	.st2{fill:#00C6A0; filter: url(#BLURR-2);}
	.st3{fill:#130060;stroke:#000000;stroke-width:5;stroke-linecap:square;stroke-linejoin:round;stroke-miterlimit:10;}
	.st4{fill:#00C3B8;stroke:#000000;stroke-width:5;stroke-linecap:square;stroke-linejoin:round;stroke-miterlimit:10;}
	.st5{fill:#BDE6FC;stroke:#000000;stroke-width:5;stroke-linecap:square;stroke-linejoin:round;stroke-miterlimit:10;}
	.st6{fill:#009DAE;stroke:#000000;stroke-width:5;stroke-linecap:square;stroke-linejoin:round;stroke-miterlimit:10;}
	.st7{fill:#03E4A7;stroke:#000000;stroke-width:5;stroke-linecap:square;stroke-linejoin:round;stroke-miterlimit:10;}
	.st8{fill:#00AE99;stroke:#000000;stroke-width:5;stroke-linecap:square;stroke-linejoin:round;stroke-miterlimit:10;}
	.st9{fill:#00C6A0;}
	.st10{fill:#005178;stroke:#000000;stroke-width:5;stroke-linecap:square;stroke-linejoin:round;stroke-miterlimit:10;}
	.st11{fill:#6A02B5;stroke:#000000;stroke-width:5;stroke-linecap:square;stroke-linejoin:round;stroke-miterlimit:10;}
	.st12{fill:#02B2A5;stroke:#000000;stroke-width:5;stroke-linecap:square;stroke-linejoin:round;stroke-miterlimit:10;}
	.st13{fill:#018C84;stroke:#000000;stroke-width:5;stroke-linecap:square;stroke-linejoin:round;stroke-miterlimit:10;}
	.st14{fill:#530499;stroke:#000000;stroke-width:5;stroke-linecap:square;stroke-linejoin:round;stroke-miterlimit:10;}
	.st15{fill:#00A367;stroke:#000000;stroke-width:5;stroke-linecap:square;stroke-linejoin:round;stroke-miterlimit:10;}
	.st16{fill:none;}
	.st17{fill:#FFFFFF;}
	.st18{fill:#F400CB;}
	.st19{fill:#8100CF;stroke:#000000;stroke-width:5;stroke-linecap:square;stroke-linejoin:round;stroke-miterlimit:10;}
	.st20{fill:#02005D;stroke:#000000;stroke-width:5;stroke-linecap:square;stroke-linejoin:round;stroke-miterlimit:10;}
	@keyframes fade {
   0%   { opacity: 6; }
   10.9%  { opacity: 6; }
   11%   { opacity: 0; }
   12%  { opacity: 6; }
   44%  { opacity: 6; }
   44.5%  { opacity: 0; }
   45%  { opacity: 6; }
   46.4%  { opacity: 6; }
   46.5%  { opacity: 0; }
   46.7%  { opacity: 6; }
   49.4%  { opacity: 6; }
   49.5%  { opacity: 0; }
   49.7%  { opacity: 6; }
   77.4%  { opacity: 6; }
   77.5%  { opacity: 0; }
   77.6%  { opacity: 6; }
   100% { opacity: 5; }
}
.st21 {
fill:#BDE6FC;
 opacity: 0;
   animation-name: fade;
   animation-duration: 13s;
   animation-iteration-count: infinite; filter:url(#BLURR-1);
}
</style>
<g>
	<path d="M785.5,681.8c0,3.9-2.5,6.8-6.6,7.7c3.1,0.5,4.9,2.6,4.9,6c0,5.3-4.4,8.9-11.3,8.9h-11.9l5.1-29.2H777
		C782.9,675.1,785.5,677.8,785.5,681.8z M769.5,698.8h2.5c2.6,0,4.1-1.8,4.1-4c0-2.3-1.6-3-3.4-3h-1.9L769.5,698.8z M771.6,687h1.7
		c2.6,0,4.2-1.5,4.2-3.6c0-1.7-1.2-2.7-2.9-2.7h-1.9L771.6,687z"/>
	<path d="M811.6,704.4h-7.5c0-1.7,0-2.6,0.1-3.4c-0.9,2.4-3.5,3.9-6.7,3.9c-3.6,0-6.2-2.3-6.2-5.6c0-2.3,0.7-3.8,2.3-5
		c1.3-0.9,3.5-1.6,6.8-2l4.9-0.6l0.1-0.4c0.1-0.5,0.2-0.9,0.2-1.3c0-1.1-0.6-1.8-1.6-1.8c-1.5,0-2.1,0.8-2.4,2.3h-8.2
		c0.5-4.4,4.8-7.3,10.9-7.3c6.3,0,9.3,2.1,9.3,6.8c0,0.7-0.1,1.6-0.2,2.5l-1.2,6.8C811.8,701,811.6,703.1,811.6,704.4z M803.2,695.2
		c-2.4,0.3-3.5,1.2-3.5,2.9c0,1.1,0.8,1.8,2,1.8c1.5,0,2.5-1,2.8-2.8l0.4-2.1L803.2,695.2z"/>
	<path d="M822.4,695.2c0-5.3,2.8-11.9,12.1-11.9c5.2,0,9.9,2,10.4,7.2l-7.9,1.6c0-2.3-1.2-3.2-2.6-3.2c-3,0-3.9,3.5-3.9,6.1
		c0,3,1.3,3.9,2.8,3.9c1.9,0,2.8-1.4,3.2-3.3l7.4,1.9c-1.1,4.2-4.6,7.4-10.8,7.4C828.6,704.9,822.4,703.1,822.4,695.2z"/>
	<path d="M869.5,691.5l4.4,12.8h-9l-1.9-8.2l-2,2.1l-1.1,6.1H852l5.3-29.9h7.9l-2.9,16.4l6.3-7.2h8.9L869.5,691.5z"/>
	<path d="M884.1,698.8h6l3.3-18.7H888l1-5.6h13.3l-4.3,24.3h6.2l-1,5.6h-20.1L884.1,698.8z"/>
	<path d="M914.1,698.8h6l1.6-9.4h-5.4l1-5.6h13.3l-2.6,15h6.2l-1,5.6h-20.1L914.1,698.8z M931,681.9h-8.5l1.3-7.4h8.5L931,681.9z"/>
	<path d="M946.8,683.8h5.1l0.9-4.9l8.5-3l-1.4,7.8h6.8l-0.9,5.5h-6.8l-0.9,5.1c-0.6,3,1.4,3.8,4,3.8c1.2,0,1.8-0.1,2.4-0.2l-1.3,6.1
		c-1,0.3-2.1,0.5-4.2,0.5c-6.3,0-10.2-2.2-9.1-8.1l1.3-7.3h-5.1L946.8,683.8z"/>
</g>
<g>
	<g>
		<path class="st0" d="M801.9,731.6v-1.1c0-3.2,1.4-5.1,4-5.1c2.7,0,3.4,2.1,3.5,3.3l-1.4,0.2c-0.1-0.9-0.6-2.3-2.2-2.3
			c-1.5,0-2.4,1-2.4,4.1v0.6c0,2.6,0.7,4.2,2.4,4.2c2,0,2.4-2,2.4-2.9V732h-2.7v-1.2h4v5.7h-1l-0.2-1.6c-0.4,1.1-1.2,1.9-2.7,1.9
			C803.2,736.9,801.9,734.7,801.9,731.6z"/>
		<path class="st0" d="M819.4,733.4h-3.8l-1,3.2h-1.4l3.5-10.9h1.6l3.5,10.9h-1.4L819.4,733.4z M816,732.2h3c-0.7-2.2-1.2-4-1.5-5.3
			h0C817.2,728.2,816.7,730,816,732.2z"/>
		<path class="st0" d="M829.9,734h-1.3l-1-4.3c-0.2-0.6-0.4-2-0.5-2.8H827c0,0.7,0,2,0,2.9v6.8h-1.4v-10.9h2.1l1.2,5.7
			c0.1,0.3,0.1,0.8,0.2,1h0.1c0-0.2,0.1-0.6,0.2-1l1.2-5.7h2.1v10.9h-1.4v-6.8c0-0.9,0-2.2,0-2.9h-0.1c-0.1,0.8-0.3,2.2-0.5,2.8
			L829.9,734z"/>
		<path class="st0" d="M844.1,726.9h-4.9v3.5h4.7v1.2h-4.7v3.8h5.1v1.2h-6.5v-10.9h6.4V726.9z"/>
		<path class="st0" d="M848.6,733.5l1.4-0.3c0.2,1.3,1,2.5,2.6,2.5c1,0,2.2-0.4,2.2-1.7c0-1.4-0.9-1.8-1.8-2l-1.5-0.4
			c-1.5-0.4-2.7-1.3-2.7-3c0-1.6,1.4-3.1,3.5-3.1c2,0,3.6,0.8,3.8,3.1l-1.4,0.4c-0.1-1.7-1.2-2.3-2.4-2.3c-1.6,0-2.1,0.9-2.1,1.8
			c0,1,0.8,1.6,1.7,1.8l1.4,0.4c1.5,0.4,2.8,1,2.8,3.1c0,1.5-1.1,3.1-3.7,3.1C850,736.9,848.9,735.3,848.6,733.5z"/>
	</g>
	<g>
		<path class="st0" d="M871.4,733.4h-3.8l-1,3.2h-1.4l3.5-10.9h1.6l3.5,10.9h-1.4L871.4,733.4z M868,732.2h3c-0.7-2.2-1.2-4-1.5-5.3
			h0C869.2,728.2,868.7,730,868,732.2z"/>
		<path class="st0" d="M881.2,732h-2v4.6h-1.4v-10.9h3.5c2.4,0,3.7,1.2,3.7,3.2c0,1.5-0.9,2.6-2.3,2.9l2.7,4.8h-1.6L881.2,732z
			 M879.2,730.9h2c1.5,0,2.2-0.7,2.2-2c0-1.3-0.8-2-2.2-2h-2V730.9z"/>
		<path class="st0" d="M888.9,731.5v-0.8c0-3.3,1.4-5.3,4-5.3c2.3,0,3.6,1.2,3.8,3.8l-1.4,0.2c-0.1-1.8-0.9-2.8-2.4-2.8
			c-1.7,0-2.5,1.2-2.5,4v0.8c0,2.8,0.9,4.2,2.5,4.2c1.5,0,2.3-1.1,2.4-2.9l1.4,0.3c-0.2,2.2-1.4,3.8-3.9,3.8
			C890.2,736.9,888.9,734.9,888.9,731.5z"/>
		<path class="st0" d="M906.4,733.4h-3.8l-1,3.2h-1.4l3.5-10.9h1.6l3.5,10.9h-1.4L906.4,733.4z M903,732.2h3c-0.7-2.2-1.2-4-1.5-5.3
			h0C904.2,728.2,903.7,730,903,732.2z"/>
		<path class="st0" d="M912.6,725.7h3.2c3,0,4.6,2.3,4.6,5.4c0,3.1-1.8,5.5-4.7,5.5h-3.2V725.7z M915.8,735.4c2.1,0,3.2-2,3.2-4.3
			c0-2.3-1.1-4.2-3.2-4.2h-1.8v8.5H915.8z"/>
		<path class="st0" d="M931.1,726.9h-4.9v3.5h4.7v1.2h-4.7v3.8h5.1v1.2h-6.5v-10.9h6.4V726.9z"/>
	</g>
</g>
<g>
	<path d="M971.1,674.3c-2.7,0-4.9-2.2-4.9-4.9s2.2-4.9,4.9-4.9s4.9,2.2,4.9,4.9S973.8,674.3,971.1,674.3z M971.1,665.2
		c-2.3,0-4.2,1.9-4.2,4.2s1.9,4.2,4.2,4.2c2.3,0,4.2-1.9,4.2-4.2S973.4,665.2,971.1,665.2z"/>
</g>
<g>
	<path d="M971.1,669.7h-0.7v1.7h-0.7v-4.3h1.5c0.9,0,1.5,0.5,1.5,1.3c0,0.5-0.3,0.9-0.8,1.1l0.9,1.9h-0.8L971.1,669.7z M970.4,669.1
		h0.6c0.5,0,0.8-0.3,0.8-0.7s-0.3-0.7-0.8-0.7h-0.6V669.1z"/>
</g>
<path class="st1" d="M859.1,524.8l-7.1-26l51.5-26.1l22,17l-29.2,14.5c0,0,8.8-12.5-3.1-11.4s-8.1,13.8,0,14L859.1,524.8z"/>
<polygon id="WILLYWILLY" class="st2" points="852,498.8 875.8,486.7 875.8,516 859.1,524.8 "/>
<polygon class="st3" points="764.9,377.1 850.2,330.1 892.5,330.1 948.5,339.1 868.9,381.1 816.9,370.1 "/>
<polygon class="st4" points="868.9,381.1 868.9,412.1 948.5,367.5 948.5,339.1 "/>
<polygon class="st5" points="846,476.8 882.2,459.5 871.2,410.8 868.9,412.1 828.9,414.1 "/>
<polygon class="st6" points="848.1,484.4 892.2,462.8 882.2,459.5 846,476.8 "/>
<polygon class="st7" points="871.2,410.8 882.2,459.5 892.2,462.8 879.5,406.2 "/>
<polygon class="st8" points="890.5,400 903.5,472.6 852,498.8 848.1,484.4 892.2,462.8 879.5,406.2 "/>
<polygon class="st9" points="860.9,531.1 859.1,524.8 873.1,517.4 873.1,537.9 "/>
<polygon class="st10" points="910.6,388.7 937.9,491.8 954.6,498.8 878.9,541.1 860.9,531.1 859.1,524.8 925.5,489.7 903.5,472.6 
	890.5,400 "/>
<polygon class="st11" points="918.5,384.3 945.2,486.1 963.5,493.8 954.6,498.8 937.9,491.8 910.6,388.7 "/>
<polygon class="st12" points="878.9,541.1 879.5,552 963.5,504.1 963.5,493.8 "/>
<polygon class="st13" points="865.6,559.7 941.8,516.5 947.2,600.5 868.6,646.4 "/>
<polygon class="st14" points="950.4,511.6 955.2,596.5 947.2,600.5 941.8,516.5 "/>
<polygon class="st15" points="922.5,553.2 932.7,546.9 934.1,565.2 923.8,571.8 "/>
<path class="st16" d="M895.3,519.1l-1.9,1c-0.5,0.3-1.2-0.1-1.2-0.7l-0.1-1.3l-6.4,3.4l4.5,2.8l11.9-6.8l-4-2.6l-1.7,0.9v2.2
	C896.3,518.9,895.9,518.8,895.3,519.1z"/>
<path d="M908.2,515.6l-8.8-5.6c-0.8-0.5-1.7-0.5-2.5-0.1l-0.7,0.4v5.7l1.7-0.9l4,2.6l-11.9,6.8l-4.5-2.8l4.8-2.9l-0.3-4.9l-10.7,5.5
	c-0.8,0.4-1.3,1.2-1.3,2.1c0,0.9,0.4,1.7,1.2,2.2l9.4,5.9c0.4,0.3,0.9,0.4,1.3,0.4c0.4,0,0.9-0.1,1.2-0.3l16.8-9.6
	c0.8-0.4,1.2-1.2,1.3-2.1S909,516.1,908.2,515.6z"/>
<path d="M914.2,502.3v2.8c0,0,1.8,0.8,3.9,0.8s2.9-0.9,2.9-0.9v-2.8c0,0-1.2,1.1-3,1.1C916.2,503.4,914.2,502.3,914.2,502.3z"/>
<path d="M920.8,498.4v2.8c0,0,1.8,0.8,3.9,0.8s2.9-0.9,2.9-0.9v-2.8c0,0-1.2,1.1-3,1.1C922.8,499.4,920.8,498.4,920.8,498.4z"/>
<path d="M923,503.6v2.8c0,0,1.8,0.8,3.9,0.8c2.1,0,2.9-0.9,2.9-0.9v-2.8c0,0-1.2,1.1-3,1.1C924.9,504.6,923,503.6,923,503.6z"/>
<path d="M930.9,499.6v2.8c0,0,1.8,0.8,3.9,0.8s2.9-0.9,2.9-0.9v-2.8c0,0-1.2,1.1-3,1.1C932.9,500.6,930.9,499.6,930.9,499.6z"/>
<path class="st17" d="M893.2,505.4L893.2,505.4c-3.3,0-6-2.7-6-6v-0.7c0-3.3,2.7-6,6-6l0,0c3.3,0,6,2.7,6,6v0.7
	C899.2,502.7,896.5,505.4,893.2,505.4z"/>
<circle class="st18" cx="893" cy="499" r="4.1"/>
<g>
	<path d="M892.1,519.5c0,0.6,0.7,1,1.2,0.7l1.9-1c0.6-0.3,1-0.3,1-1V516l-4.2,2.3L892.1,519.5z"/>
	<polygon points="896.3,504.2 891.3,504.2 891.7,512.7 896.3,510.3 	"/>
	<polygon points="896.3,516 896.3,510.3 891.7,512.7 892,518.2 	"/>
</g>
<path d="M893.2,507.9c-4.7,0-8.5-3.8-8.5-8.5v-0.7c0-4.7,3.8-8.5,8.5-8.5c4.7,0,8.5,3.8,8.5,8.5v0.7
	C901.7,504.1,897.9,507.9,893.2,507.9z M893.2,495.3c-1.9,0-3.5,1.6-3.5,3.5v0.7c0,1.9,1.6,3.5,3.5,3.5c1.9,0,3.5-1.6,3.5-3.5v-0.7
	C896.7,496.8,895.1,495.3,893.2,495.3z"/>
<path class="st18" d="M914.4,502c-0.1,0-0.1-0.2,0-0.2c0.4-0.2,1.6-0.8,3.2-0.8c1.6,0,2.8,0.5,3.2,0.8c0.1,0.1,0.1,0.2,0,0.3
	c-0.4,0.3-1.5,0.9-2.8,0.9C916.5,503,915,502.3,914.4,502z"/>
<path class="st18" d="M921,498.2c-0.1,0-0.1-0.1,0-0.2c0.4-0.2,1.5-0.8,3.2-0.9c1.7,0,2.9,0.6,3.3,0.9c0.1,0,0.1,0.1,0,0.2
	c-0.3,0.3-1.4,1-2.9,1C923.1,499.2,921.5,498.4,921,498.2z"/>
<path class="st18" d="M923.1,503.2c-0.1,0-0.1-0.1,0-0.2c0.4-0.2,1.5-0.8,3.2-0.9c1.6,0,2.7,0.5,3.2,0.8c0.1,0.1,0.1,0.2,0,0.3
	c-0.4,0.3-1.5,0.9-2.8,0.9C925.3,504.2,923.6,503.5,923.1,503.2z"/>
<path class="st18" d="M931.1,499.4c-0.1,0-0.1-0.2,0-0.2c0.4-0.2,1.6-0.8,3.2-0.8c1.7,0,2.8,0.6,3.2,0.8c0.1,0.1,0.1,0.2,0,0.2
	c-0.4,0.3-1.5,1-2.9,1C933.3,500.4,931.7,499.7,931.1,499.4z"/>
<polygon class="st19" points="774.9,605.1 764.9,377.1 816.9,370.1 868.9,381.1 868.9,412.1 828.9,414.1 860.9,531.1 878.9,541.1 
	879.5,552 865.6,559.7 868.6,646.4 "/>
<polygon class="st20" points="784.9,599.1 774.2,384.8 817.2,379.8 859.2,387.8 859.2,404.1 818.5,405.8 852.5,538.5 867.5,546.1 
	867.5,549.5 856.4,556.1 858.5,631.8 "/>
<polygon id="BUMBUMBUM" class="st21" points="851,472 917,490 902,404 873,419 838,421 "/>
</svg>
