<?xml version="1.0" encoding="utf-8"?>
<!-- Generator: Adobe Illustrator 22.0.1, SVG Export Plug-In . SVG Version: 6.00 Build 0)  -->
<svg version="1.1" id="Layer_1" xmlns="http://www.w3.org/2000/svg" xmlns:xlink="http://www.w3.org/1999/xlink" x="0px" y="0px"
	 viewBox="0 0 1400 1111" style="enable-background:new 0 0 1400 1111;" xml:space="preserve">
<style type="text/css">
	.st0{fill:#EEC4C5;}
	.st1{fill:#114176;}
	.st2{fill:#EFC3C5;}
</style>
<rect y="0" class="st0" width="1400" height="1111"/>
<g>
	<g>
		<path class="st1" d="M501.7,558.7c4.6-0.3,9.8-0.5,15.7-0.5c5.7,0,10,0.9,12.8,2.8c1.8,1.2,3.3,2.9,4.6,5.2c1.3,2.2,2,4.8,2,7.5
			c0,4-0.9,7.4-2.9,10.4c-2,2.9-4.1,5.2-6.9,6.6c1.5,5.3,3.5,11.4,5.9,17.9l6.9,17.9l-14.8,1l-9.7-28.7v12.8l0.2,15.5h-13.8
			c0.2-10.9,0.3-22.4,0.3-34.4L501.7,558.7z M515.3,569v21.4c1.2-0.3,2.5-0.6,4.1-1.1c0.8-0.2,1.7-1.3,2.8-3.4
			c1-2.1,1.5-4.4,1.5-7.1c0-6.7-2.3-10.1-7.1-10.1C516.1,569,515.6,569,515.3,569z"/>
		<path class="st1" d="M543.9,569.9c2.8-2.4,5.4-4.6,8.2-6.6c1.2-0.9,2.3-1.7,3.6-2.5c1.2-0.8,2.1-1.3,2.8-1.7l1-0.6
			c1-0.2,2.1-0.3,3.4-0.3c5,0,9.1,1.8,12.5,5.4c4.5,5,6.9,12.6,6.9,22.7c0,5.3-0.3,10.5-0.9,15.5s-1.2,8.5-1.7,10.7l-0.9,3.3
			c-1.4,1.7-3.8,4.1-7,6.7c-3.3,2.8-5.7,4.4-7.4,5.3c-0.9,0.2-2,0.3-3.3,0.3c-3.8,0-7-0.8-9.7-2.3c-2.7-1.5-4.9-3.8-6.3-6.5
			c-1.5-2.9-2.6-5.9-3.2-9.2c-0.8-3.3-1-7-1-10.9c0-4.1,0.3-8.6,0.8-13.5c0.5-4.9,1-8.6,1.5-11.5L543.9,569.9z M555.9,570.6
			c-1.3,5.6-2,13.8-2,24.7c0,6.5,0.9,11.5,2.9,14.8c2,3.3,4.5,5,7.7,5c0.8,0,1.5-0.1,2.2-0.3c1.2-6.2,1.8-13.2,1.8-21.2
			c0-2.6-0.1-5-0.2-7c-0.2-2-0.5-4.1-1-6.2c-0.5-2.1-1.2-4-2.1-5.3c-0.9-1.4-2.1-2.5-3.8-3.3C560.1,571.1,558.2,570.6,555.9,570.6z"
			/>
		<path class="st1" d="M591.1,569.9c2.8-2.4,5.4-4.6,8.2-6.6c1.2-0.9,2.3-1.7,3.6-2.5c1.2-0.8,2.1-1.3,2.8-1.7l1-0.6
			c1-0.2,2.1-0.3,3.4-0.3c5,0,9.1,1.8,12.5,5.4c4.5,5,6.9,12.6,6.9,22.7c0,5.3-0.3,10.5-0.9,15.5s-1.2,8.5-1.7,10.7l-0.9,3.3
			c-1.4,1.7-3.8,4.1-7,6.7c-3.3,2.8-5.7,4.4-7.4,5.3c-0.9,0.2-2,0.3-3.3,0.3c-3.8,0-7-0.8-9.7-2.3c-2.8-1.5-4.9-3.8-6.3-6.5
			c-1.5-2.9-2.6-5.9-3.2-9.2c-0.8-3.3-1-7-1-10.9c0-4.1,0.3-8.6,0.8-13.5c0.5-4.9,1-8.6,1.5-11.5L591.1,569.9z M603.1,570.6
			c-1.3,5.6-2,13.8-2,24.7c0,6.5,0.9,11.5,2.9,14.8c2,3.3,4.5,5,7.7,5c0.8,0,1.5-0.1,2.2-0.3c1.2-6.2,1.8-13.2,1.8-21.2
			c0-2.6-0.1-5-0.2-7c-0.2-2-0.5-4.1-1-6.2c-0.5-2.1-1.2-4-2.1-5.3c-0.9-1.4-2.1-2.5-3.8-3.3C607.2,571.1,605.3,570.6,603.1,570.6z"
			/>
		<path class="st1" d="M647,567.4c-0.5,2.4-1.8,5-4,7.5c-2.1,2.5-4.6,4.5-7.4,5.7c1.3-2.6,2-5.6,2-8.6c-0.5-2.3-1.8-4.4-4.1-6.2
			l9.2-7.7C645.6,560.9,647,564,647,567.4z"/>
		<path class="st1" d="M654.5,567l12.2-8.9c1.5,0,2.9,0.2,4.2,0.5c1.3,0.3,2.8,0.9,4.2,1.8c1.5,0.9,2.8,2.2,3.6,4.1
			c0.9,1.8,1.5,4.1,1.7,6.7l-12.6,6.2c0-0.2,0-0.4,0-0.8c0-0.3-0.1-0.8-0.3-1.7c-0.2-0.8-0.4-1.5-0.6-2.1c-0.2-0.6-0.6-1.2-1.1-1.7
			c-0.5-0.5-1.1-0.9-1.8-0.9c-0.4,2.9-0.6,5.6-0.6,8.3c0,2,0.3,3.2,0.8,4.1c0.5,0.9,1.5,1.7,2.9,2.3c3.5,1.7,5.9,2.9,7,3.6
			c4.9,2.9,7.1,7.5,7.1,14.3c0,2.3-0.2,4.8-0.8,7.3c-0.5,2.5-0.9,4.4-1.4,5.7l-0.8,2l-11,9.8c-0.8,0.2-1.7,0.3-2.9,0.3
			c-1.7,0-3.3-0.1-4.5-0.4c-1.3-0.3-2.6-0.9-4.1-1.8c-1.4-0.9-2.5-2.4-3.3-4.4c-0.8-2-1.2-4.6-1.3-7.7l12.7-5c0,0.2,0,0.4,0,0.8
			c0,0.3,0.1,0.8,0.3,1.7c0.2,0.8,0.4,1.5,0.6,2.1c0.2,0.6,0.6,1.2,1.1,1.8c0.5,0.6,1.1,0.9,1.8,1c0.8-2.3,1.2-4.8,1.2-7.3
			c0-2.9-0.6-5.2-1.8-6.5c-1.2-1.4-3.3-2.9-6.5-4.1c-5-2.1-8.1-5.6-9-10.5c-0.3-2-0.5-3.8-0.5-5.6
			C651.3,576.8,652.3,571.9,654.5,567z"/>
		<path class="st1" d="M709.6,558.7h35.3L739,569c-2.5-0.1-5.2-0.2-7.7-0.2c-0.2,8.2-0.3,17-0.3,26.8l0.3,31.1h-13.7
			c0.2-11,0.3-21.3,0.3-31.1l-0.3-26.8l-12.8,0.3L709.6,558.7z"/>
		<path class="st1" d="M752,558.7l16.4-0.5c2.6,15.8,5.2,30.3,7.5,43.6l4.9,24.5l-13.9,1c-1.2-8-2.2-14.6-3.2-19.7h-10.7l-2.4,18.8
			l-10.9,1c1.7-7.9,3.3-16.4,5-25.4L752,558.7z M762.5,597.7l-4.2-23.3l-3.8,23.3H762.5z"/>
		<path class="st1" d="M805.1,578c0.1-0.6,0.1-1.2,0.1-1.7c0-2.9-0.8-4.8-2-5.7c-1.4-1-2.9-1.5-4.5-1.5l-1.3,0.1
			c-1.4,7.4-2,15.3-2,23.8c0,3.2,0.1,5.6,0.2,7.3c0.2,2.4,0.5,4.6,1.1,6.5c0.5,1.8,1.2,3.2,2,4.4s1.7,2,2.4,2.6
			c0.8,0.6,1.7,1.1,2.9,1.4c1.2,0.3,2,0.4,2.6,0.5s1.4,0.1,2.3,0.1c3.2,0,6.1-1.2,8.5-3.6l0.4,0.1c0.2,0.1,0.4,0.3,0.6,0.4
			c0.2,0.2,0.3,0.3,0.3,0.3c-0.3,0.8-1.2,2.3-2.6,4.8c-1.4,2.4-2.6,4.4-3.8,6c-1.3,1.8-2.9,3-4.4,3.6c-1.7,0.7-3.8,0.9-6.5,0.9
			c-6.2,0-11-2.4-14-7.4c-2-3.2-3.3-6.5-4.1-10.2c-0.8-3.6-1-8.3-1-13.7c0-4.6,0.4-9.8,1.2-15.6s1.4-9.2,2-10.3
			c0.2-0.5,1.2-1.7,3-3.2c1.8-1.7,3.8-3.2,6-4.8c4.4-3.2,7.7-4.8,10-4.8c2.4,0,4.5,0.3,6.2,0.8c1.8,0.5,3.4,1.7,5,3.4
			c2,2.1,2.9,5,2.9,8.3v0.6L805.1,578z"/>
		<path class="st1" d="M825.2,569.9c2.8-2.4,5.4-4.6,8.2-6.6c1.2-0.9,2.3-1.7,3.6-2.5c1.2-0.8,2.1-1.3,2.8-1.7l1-0.6
			c1-0.2,2.1-0.3,3.4-0.3c5,0,9.1,1.8,12.5,5.4c4.5,5,6.9,12.6,6.9,22.7c0,5.3-0.3,10.5-0.9,15.5s-1.2,8.5-1.7,10.7l-0.9,3.3
			c-1.4,1.7-3.8,4.1-7,6.7c-3.3,2.8-5.7,4.4-7.4,5.3c-0.9,0.2-2,0.3-3.3,0.3c-3.8,0-7-0.8-9.7-2.3c-2.8-1.5-4.9-3.8-6.3-6.5
			c-1.5-2.9-2.6-5.9-3.2-9.2c-0.8-3.3-1-7-1-10.9c0-4.1,0.3-8.6,0.8-13.5c0.5-4.9,1-8.6,1.5-11.5L825.2,569.9z M837.2,570.6
			c-1.3,5.6-2,13.8-2,24.7c0,6.5,0.9,11.5,2.9,14.8c2,3.3,4.5,5,7.7,5c0.8,0,1.5-0.1,2.2-0.3c1.2-6.2,1.8-13.2,1.8-21.2
			c0-2.6-0.1-5-0.2-7c-0.2-2-0.5-4.1-1-6.2c-0.5-2.1-1.2-4-2.1-5.3c-0.9-1.4-2.1-2.5-3.8-3.3C841.3,571.1,839.4,570.6,837.2,570.6z"
			/>
		<path class="st1" d="M871.9,567l12.2-8.9c1.5,0,2.9,0.2,4.2,0.5c1.3,0.3,2.8,0.9,4.2,1.8c1.5,0.9,2.8,2.2,3.6,4.1
			c0.9,1.8,1.5,4.1,1.7,6.7l-12.6,6.2c0-0.2,0-0.4,0-0.8c0-0.3-0.1-0.8-0.3-1.7c-0.2-0.8-0.4-1.5-0.6-2.1c-0.2-0.6-0.6-1.2-1.1-1.7
			s-1.1-0.9-1.8-0.9c-0.4,2.9-0.6,5.6-0.6,8.3c0,2,0.3,3.2,0.8,4.1c0.5,0.9,1.5,1.7,2.9,2.3c3.5,1.7,5.9,2.9,7,3.6
			c4.9,2.9,7.1,7.5,7.1,14.3c0,2.3-0.2,4.8-0.8,7.3c-0.5,2.5-0.9,4.4-1.4,5.7l-0.8,2l-11,9.8c-0.8,0.2-1.7,0.3-2.9,0.3
			c-1.7,0-3.3-0.1-4.5-0.4c-1.3-0.3-2.6-0.9-4.1-1.8c-1.4-0.9-2.5-2.4-3.3-4.4c-0.8-2-1.2-4.6-1.3-7.7l12.7-5c0,0.2,0,0.4,0,0.8
			c0,0.3,0.1,0.8,0.3,1.7c0.2,0.8,0.4,1.5,0.6,2.1c0.2,0.6,0.6,1.2,1.1,1.8c0.5,0.6,1.1,0.9,1.8,1c0.8-2.3,1.2-4.8,1.2-7.3
			c0-2.9-0.6-5.2-1.8-6.5c-1.2-1.4-3.3-2.9-6.5-4.1c-5-2.1-8.1-5.6-9-10.5c-0.3-2-0.5-3.8-0.5-5.6
			C868.8,576.8,869.8,571.9,871.9,567z"/>
	</g>
	<g>
		<path class="st1" d="M589,673h-9.4v-0.8l0.5-0.1c0.4,0,0.5-0.1,0.5-0.3v-7.7c0-0.1-0.1-0.3-0.6-0.3l-0.4-0.1V663h9.4v3.5h-1.4
			l-0.3-1.1c-0.4-1.5-1-1.7-3-1.7h-0.9v3.8h0.4c0.6,0,1.1-0.1,1.3-0.8l0.4-1.1h1l-0.4,4.2h-1l-0.2-1c-0.1-0.5-0.3-0.8-1.2-0.8h-0.3
			v3.8h1.1c2,0,2.5-0.2,3.2-1.7l0.3-0.9h1.4L589,673z"/>
		<path class="st1" d="M602.6,673v-0.8l0.8-0.1c0.3,0,0.4-0.4,0.3-2.9l-0.1-5.2h-0.2l-2.6,8.5h-2l-2.3-8.3h-0.2l-0.3,5
			c-0.1,2.8-0.1,2.9,0.3,2.9l0.8,0.1v0.8h-3.5v-0.8l0.8-0.1c0.3,0,0.5,0,0.6-2.9l0.2-4.6c0-0.2-0.3-0.6-0.8-0.6l-0.8-0.1v-0.8h5
			l1.7,6.5h0.2l2-6.5h5v0.8l-0.9,0.1c-0.3,0-0.4,0.3-0.4,0.5l0.1,5c0,2.6,0.3,2.9,0.5,2.9l0.8,0.1v0.8h-4.9L602.6,673L602.6,673z"/>
		<path class="st1" d="M621.2,673h-9.4v-0.8l0.5-0.1c0.4,0,0.5-0.1,0.5-0.3v-7.7c0-0.1-0.1-0.3-0.6-0.3l-0.4-0.1V663h9.5v3.5h-1.4
			l-0.3-1.1c-0.4-1.5-1-1.7-3-1.7h-0.9v3.8h0.4c0.6,0,1.1-0.1,1.3-0.8l0.4-1.1h1l-0.4,4.2h-1l-0.2-1c-0.1-0.5-0.3-0.8-1.2-0.8h-0.3
			v3.8h1.1c2,0,2.5-0.2,3.2-1.7l0.3-0.9h1.4L621.2,673z"/>
		<path class="st1" d="M635,671.7c0.1,0.2,0.3,0.5,0.8,0.5l0.4,0.1v0.8h-3.5l-0.8-1.4l-1.5-2.9h-0.6v3.2c0,0.2,0.1,0.3,0.6,0.3
			l0.2,0.1v0.8h-4.6v-0.8l0.5-0.1c0.4,0,0.5-0.1,0.5-0.3v-7.7c0-0.1-0.1-0.3-0.6-0.3l-0.4-0.1v-0.8h5.2c2.8,0,4.1,1,4.1,2.4
			c0,1.2-0.8,2.1-2.2,2.8L635,671.7z M630.3,663.8h-0.6v4.2l0.8,0.1c1-0.2,1.7-0.8,1.7-2.1C632.3,664.6,631.5,663.8,630.3,663.8z"/>
		<path class="st1" d="M644.8,673v-0.8l0.4-0.1c0.8-0.1,0.8-0.4,0.3-1.7l-0.2-0.5h-3.2v0.1c-0.4,1.3-0.3,2,0.4,2.1l0.4,0.1v0.8h-4.1
			v-0.8l0.3-0.1c0.8-0.2,1-0.3,2-2.9l2-5.2v-0.8l2.4-0.5l3,8.5c0.2,0.5,0.5,0.8,1,0.8l0.4,0.1v0.8H644.8L644.8,673z M644,665.4h-0.2
			l-1.3,3.8h2.8L644,665.4z"/>
		<path class="st1" d="M661.8,673h-8.1v-0.8l0.5-0.1c0.4,0,0.5-0.1,0.5-0.3v-7.7c0-0.1-0.1-0.3-0.6-0.3l-0.4-0.1v-0.8h4.9v0.8
			l-0.5,0.1c-0.5,0-0.5,0.1-0.5,0.3v8l0,0c2.1,0,2.4-0.2,2.9-1.7l0.3-0.8h1.4L661.8,673z"/>
		<path class="st1" d="M671,673h-4.7v-0.8l0.5-0.1c0.4,0,0.5-0.1,0.5-0.3v-7.7c0-0.1-0.1-0.3-0.6-0.3l-0.4-0.1V663l4.6-0.1
			c3.8,0,6.1,2,6.1,4.8C676.9,670.6,674.7,673,671,673z M670.5,664H670v8.3l1.1,0.2c1.8-0.1,2.9-2,2.9-4.1
			C674,665.6,672.9,664,670.5,664z"/>
		<path class="st1" d="M692.7,673h-4.4v-0.8l0.5-0.1c0.4,0,0.5-0.1,0.5-0.3v-7.7c0-0.1-0.1-0.3-0.6-0.3l-0.4-0.1V663h4.6
			c3,0,4.4,0.8,4.4,2.2c0,1.4-1.5,2.2-2.9,2.4v0.1c1.7,0.2,3.2,0.9,3.2,2.5C697.6,671.9,696.3,673,692.7,673z M692.4,663.8H692v3.8
			h0.6c0.9,0,1.8-0.6,1.8-1.8C694.5,664.8,693.8,663.8,692.4,663.8z M694.7,670.5c0-1.4-1-2.1-2.3-2.1H692v4l0.6,0.1
			C693.9,672.4,694.7,671.5,694.7,670.5z"/>
		<path class="st1" d="M711.2,673h-9.4v-0.8l0.5-0.1c0.4,0,0.5-0.1,0.5-0.3v-7.7c0-0.1-0.1-0.3-0.6-0.3l-0.4-0.1V663h9.4v3.5h-1.4
			l-0.3-1.1c-0.4-1.5-1-1.7-3-1.7h-0.9v3.8h0.4c0.6,0,1.1-0.1,1.3-0.8l0.4-1.1h1l-0.4,4.2h-1l-0.2-1c-0.1-0.5-0.3-0.8-1.2-0.8h-0.3
			v3.8h1.1c2,0,2.5-0.2,3.2-1.7l0.3-0.9h1.4L711.2,673z"/>
		<path class="st1" d="M721,673v-0.8l0.4-0.1c0.8-0.1,0.8-0.4,0.3-1.7l-0.2-0.5h-3.2v0.1c-0.4,1.3-0.3,2,0.4,2.1l0.4,0.1v0.8H715
			v-0.8l0.3-0.1c0.8-0.2,1-0.3,2-2.9l2-5.2v-0.8l2.4-0.5l3,8.5c0.2,0.5,0.5,0.8,1,0.8l0.4,0.1v0.8H721L721,673z M720.1,665.4H720
			l-1.3,3.8h2.8L720.1,665.4z"/>
		<path class="st1" d="M739.6,673l-1.3-0.3c-0.6,0.2-1.7,0.5-2.9,0.5c-3.3,0-5.6-1.7-5.6-5c0-3.2,2.4-5.3,5.6-5.3
			c1.1,0,2.1,0.2,2.6,0.4l1.7-0.4v3.8h-1.4l-0.9-2.5c-0.5-0.2-1.1-0.3-1.7-0.3c-2.1,0-3.2,1.7-3.2,4.2c0,2.8,1.1,4.4,3,4.4
			c0.6,0,1.2-0.1,1.7-0.3l0.9-2.5h1.7L739.6,673z"/>
		<path class="st1" d="M751,673v-0.8h0.5c0.5,0,0.5-0.2,0.5-0.3v-3.5h-3.8v3.5c0,0.2,0.1,0.3,0.6,0.3l0.4,0.1v0.8h-4.9v-0.8l0.5-0.1
			c0.4,0,0.5-0.1,0.5-0.3v-7.7c0-0.1-0.1-0.3-0.6-0.3l-0.4-0.1v-0.8h4.9v0.8l-0.5,0.1c-0.5,0-0.5,0.1-0.5,0.3v3.3h3.8v-3.3
			c0-0.2-0.1-0.3-0.6-0.3l-0.4-0.1v-0.8h4.9v0.8l-0.5,0.1c-0.4,0-0.5,0.1-0.5,0.3v7.7c0,0.1,0.1,0.3,0.6,0.3l0.4,0.1v0.8L751,673
			L751,673z"/>
		<path class="st1" d="M760.4,676l-0.5-0.5c1-0.8,1.7-1.2,1.7-2.1c0-1.1-1.7-1.5-1.7-1.7c0-0.6,0.5-1.3,1.4-1.3c1.1,0,1.8,0.9,1.8,2
			C763,673.9,762,675.1,760.4,676z"/>
		<path class="st1" d="M784.7,663.8L784,664c-0.3,0.1-0.6,0.2-0.6,3.2v6h-2.1l-5.2-7.1H776v3c0,2.9,0.3,3,0.5,3.2l0.9,0.2v0.8h-3.8
			v-0.8l0.8-0.2c0.2-0.1,0.6-0.2,0.6-3.2v-4.2c0-0.2-0.3-0.5-0.5-0.6l-0.8-0.4v-0.8h3.6l4.9,6.7h0.2V667c0-2.9-0.3-3.2-0.5-3.2
			l-0.9-0.2v-0.8h3.8L784.7,663.8L784.7,663.8z"/>
		<path class="st1" d="M792.7,673.3c-1.5,0-2.4-0.2-3.4-0.4l-0.1-3.2h1.4l0.8,2.5c0.5,0.2,1,0.2,1.4,0.2c1.4,0,1.8-0.6,1.8-1.4
			c0-1-0.8-1.3-2.3-1.7c-2-0.6-3.2-1.3-3.2-3c0-1.8,1.4-3.2,4.1-3.2c0.9,0,1.5,0.1,2.4,0.3l0.8-0.2v3.4h-1.3l-0.8-2.3
			c-0.4-0.1-0.8-0.2-1.2-0.2c-1.2,0-1.8,0.5-1.8,1.2c0,0.8,0.8,1.1,2,1.5c2.4,0.8,3.6,1.4,3.6,3.2
			C796.7,671.8,795.2,673.3,792.7,673.3z"/>
		<path class="st1" d="M816.8,664l-0.4,0.1c-0.9,0.3-1.2,0.6-2,3l-2,6.1h-2.2l-1.7-5.9h-0.2l-2,5.9h-2.3l-2.8-8.3
			c-0.2-0.5-0.3-0.8-0.8-0.8l-0.5-0.1v-0.8h5.3v0.8L805,664c-0.5,0.1-0.6,0.5-0.3,1.7l1.4,5.3h0.2l1.7-5.2l-0.3-1
			c-0.1-0.4-0.4-0.8-0.8-0.8l-0.5-0.1v-0.8h5.3v0.8l-0.5,0.1c-0.6,0.1-0.6,0.5-0.3,1.7l1.3,5.3h0.2l1.1-4c0.6-2.1,0.4-2.9-0.3-3
			l-0.5-0.1l-0.1-0.8h4.2V664z"/>
	</g>
	<g>
		<g>
			<g>
				<path class="st1" d="M711.9,493.2h-25.1c-0.4,0.3-0.8,0.6-1,0.9h27.2C712.7,493.8,712.4,493.5,711.9,493.2z"/>
				<path class="st1" d="M709.5,491.5h-20c-0.5,0.3-0.9,0.6-1.4,0.9H711C710.4,492,709.8,491.7,709.5,491.5z"/>
				<path class="st1" d="M714,495h-29c-0.3,0.3-0.5,0.6-0.8,0.9h30.6C714.5,495.4,714.2,495.3,714,495z"/>
				<path class="st1" d="M715.5,496.7h-32c-0.4,0.6-0.8,1.1-1.2,1.7h34.4C716.4,497.9,715.9,497.3,715.5,496.7z"/>
				<path class="st1" d="M699.6,488.8c-2.9,0-5.7,0.6-8.3,1.7h16.4C705.3,489.5,702.4,488.8,699.6,488.8z"/>
				<path class="st1" d="M679.2,508.9c0,11.2,9.1,20.1,20.1,20.1s20.1-9.1,20.1-20.1c0-0.3,0-0.6,0-0.9h-40.3
					C679.3,508.4,679.2,508.7,679.2,508.9z"/>
				<path class="st1" d="M717.6,500.2h-36.4c-0.1,0.3-0.3,0.6-0.4,0.9H718C717.9,500.8,717.8,500.5,717.6,500.2z"/>
				<path class="st1" d="M718.7,502.8h-38.5c-0.3,0.8-0.5,1.7-0.6,2.6h39.8C719.2,504.6,718.9,503.7,718.7,502.8z"/>
			</g>
			<path class="st1" d="M671.9,510.8h54.8c0.9,0,1.3,1,0.9,1.8c-6.6,13.3-13.7,19.2-28.1,19.2c-14.7,0-25.3-8.9-28.3-19.6
				C671,511.5,671.1,510.8,671.9,510.8z"/>
			<g>
				<path class="st2" d="M678,515.4c0.2,0.1,0.5,0.2,0.8,0.4c0.8,0.4,1.4-0.8,0.6-1.1c-0.2-0.1-0.5-0.2-0.8-0.4
					C677.9,513.9,677.3,515,678,515.4L678,515.4z"/>
			</g>
			<g>
				<path class="st2" d="M685.8,515.5c0.8,0,0.8-1.3,0-1.3C685.1,514.2,685.1,515.5,685.8,515.5L685.8,515.5z"/>
			</g>
			<g>
				<path class="st2" d="M687.9,519.4c0.8,0,0.8-1.3,0-1.3C687.3,518.2,687.3,519.4,687.9,519.4L687.9,519.4z"/>
			</g>
			<g>
				<path class="st2" d="M695.1,524.2c0.8,0,0.8-1.3,0-1.3C694.3,522.9,694.3,524.2,695.1,524.2L695.1,524.2z"/>
			</g>
			<g>
				<path class="st2" d="M704.7,517.6c0.8,0,0.8-1.3,0-1.3C703.9,516.2,703.9,517.6,704.7,517.6L704.7,517.6z"/>
			</g>
			<g>
				<path class="st2" d="M708.6,518.1c0.8,0,0.8-1.3,0-1.3C707.9,516.8,707.9,518.1,708.6,518.1L708.6,518.1z"/>
			</g>
			<g>
				<path class="st2" d="M721.3,514.3c0.8,0,0.8-1.3,0-1.3C720.6,513,720.6,514.3,721.3,514.3L721.3,514.3z"/>
			</g>
			<g>
				<path class="st2" d="M718.6,514.2c0.8,0,0.8-1.3,0-1.3C717.8,513,717.8,514.2,718.6,514.2L718.6,514.2z"/>
			</g>
			<g>
				<path class="st2" d="M720.1,519.4c0.8,0,0.8-1.3,0-1.3C719.4,518.2,719.4,519.4,720.1,519.4L720.1,519.4z"/>
			</g>
			<g>
				<path class="st2" d="M720.1,519.4c0.8,0,0.8-1.3,0-1.3C719.4,518.2,719.4,519.4,720.1,519.4L720.1,519.4z"/>
			</g>
			<g>
				<path class="st2" d="M719.4,519c0,0.2-0.1,0.5-0.2,0.8c0.3-0.1,0.8-0.2,1-0.3c-0.4-0.3-0.6-0.6-0.8-1.1
					c-0.2-0.8-1.4-0.4-1.2,0.3c0.2,0.6,0.5,1.2,1,1.7c0.4,0.3,0.9,0.2,1-0.3c0.1-0.3,0.2-0.8,0.2-1
					C720.7,518.2,719.4,518.2,719.4,519L719.4,519z"/>
			</g>
			<g>
				<path class="st2" d="M716.5,522.8c0.8,0,0.8-1.3,0-1.3C715.7,521.5,715.7,522.8,716.5,522.8L716.5,522.8z"/>
			</g>
			<g>
				<path class="st2" d="M712.4,524.4c0.8,0,0.8-1.3,0-1.3C711.6,523.1,711.6,524.4,712.4,524.4L712.4,524.4z"/>
			</g>
			<g>
				<path class="st2" d="M710.4,526.4c0.1-0.2,0.1-0.4,0.2-0.6c0.3-0.8-1-1.1-1.2-0.3c-0.1,0.2-0.1,0.4-0.2,0.6
					C708.8,526.9,710.1,527.2,710.4,526.4L710.4,526.4z"/>
			</g>
			<g>
				<path class="st2" d="M712.3,520.4c0.8,0,0.8-1.3,0-1.3C711.5,519.1,711.5,520.4,712.3,520.4L712.3,520.4z"/>
			</g>
			<g>
				<path class="st2" d="M713.3,520.4c0.8,0,0.8-1.3,0-1.3C712.5,519.1,712.5,520.4,713.3,520.4L713.3,520.4z"/>
			</g>
			<g>
				<path class="st2" d="M713.3,520.4c0.8,0,0.8-1.3,0-1.3C712.5,519.1,712.5,520.4,713.3,520.4L713.3,520.4z"/>
			</g>
			<g>
				<path class="st2" d="M709.2,520c0.8,0,0.8-1.3,0-1.3C708.3,518.8,708.3,520,709.2,520L709.2,520z"/>
			</g>
			<g>
				<path class="st2" d="M715.4,517c0.8,0,0.8-1.3,0-1.3C714.6,515.8,714.6,517,715.4,517L715.4,517z"/>
			</g>
			<g>
				<path class="st2" d="M711.2,522.9c0.8,0,0.8-1.3,0-1.3C710.4,521.5,710.4,522.9,711.2,522.9L711.2,522.9z"/>
			</g>
			<g>
				<path class="st2" d="M711.2,522.9c0.8,0,0.8-1.3,0-1.3C710.4,521.5,710.4,522.9,711.2,522.9L711.2,522.9z"/>
			</g>
			<g>
				<path class="st2" d="M705,529.3c0.8,0,0.8-1.3,0-1.3C704.2,528.1,704.2,529.3,705,529.3L705,529.3z"/>
			</g>
			<g>
				<path class="st2" d="M721.3,516.9c0.8,0,0.8-1.3,0-1.3C720.5,515.7,720.5,516.9,721.3,516.9L721.3,516.9z"/>
			</g>
			<g>
				<path class="st2" d="M716.6,517c0.8,0,0.8-1.3,0-1.3C715.8,515.8,715.8,517,716.6,517L716.6,517z"/>
			</g>
			<g>
				<path class="st2" d="M713.9,514.1c0.8,0,0.8-1.3,0-1.3C713.1,512.8,713.1,514.1,713.9,514.1L713.9,514.1z"/>
			</g>
			<g>
				<path class="st2" d="M714.5,527.2c0.8,0,0.8-1.3,0-1.3C713.7,526,713.7,527.2,714.5,527.2L714.5,527.2z"/>
			</g>
			<g>
				<path class="st2" d="M713.7,526.3c0.8,0,0.8-1.3,0-1.3C712.8,525.1,712.8,526.3,713.7,526.3L713.7,526.3z"/>
			</g>
			<g>
				<path class="st2" d="M724.6,513.7c0.8,0,0.8-1.3,0-1.3C723.8,512.4,723.8,513.7,724.6,513.7L724.6,513.7z"/>
			</g>
			<g>
				<path class="st2" d="M704.3,526c0.4,0,0.4-0.8,0-0.8C703.9,525.3,703.9,526,704.3,526L704.3,526z"/>
			</g>
			<g>
				<path class="st2" d="M714.8,520.8c0.2-0.1,0.3-0.2,0.3-0.4c0-0.2-0.1-0.4-0.2-0.4c-0.4-0.1-0.8-0.1-1.1-0.1
					c0.1,0.2,0.1,0.4,0.2,0.6c-0.1,0-0.1,0.1-0.1,0.2c0.2,0,0.4-0.1,0.6-0.1c0-0.1,0-0.2,0.1-0.2c-0.2-0.1-0.4-0.2-0.6-0.2
					c0,0.1,0,0.2,0,0.3c0,0.4,0.8,0.4,0.8,0c0-0.1,0-0.2,0-0.3c0-0.3-0.3-0.4-0.6-0.2c-0.3,0.2-0.3,0.5-0.3,0.9
					c0.1,0.4,0.6,0.2,0.6-0.1c0.1-0.5-0.3-1.2-0.9-0.8c-0.3,0.2-0.2,0.6,0.2,0.6s0.6,0,0.9,0.1c-0.1-0.1-0.2-0.3-0.2-0.4l0,0
					C714,520.4,714.4,521.1,714.8,520.8L714.8,520.8z"/>
			</g>
			<g>
				<path class="st2" d="M713.7,515.5c-1-0.2-1.4,0.8-1.5,1.7c0,0.4,0.4,0.4,0.6,0.2c0.2-0.2,0.2-0.5,0.2-0.8c0-0.4-0.8-0.4-0.8,0
					c0,0.2,0,0.4,0,0.5c0,0.2,0.3,0.4,0.5,0.3c0.4-0.2,0.5-0.5,0.6-0.9c0-0.3-0.4-0.4-0.6-0.2c-0.2,0.2-0.3,0.5-0.1,0.8
					c0.1,0.3,0.5,0.2,0.6-0.1c0-0.2,0.1-0.4,0.1-0.5c0.1-0.4-0.5-0.6-0.6-0.2c-0.1,0.4-0.2,0.9,0.1,1.2c0.2,0.3,0.6,0.4,1,0.2
					c0.8-0.5,0.2-1.4-0.6-1.5c-0.4,0-0.4,0.6,0,0.8c0.1,0,0.2,0,0.3,0.2c-0.1,0.1-0.2,0.1-0.2,0c-0.1-0.2,0-0.4,0-0.6
					c-0.2-0.1-0.4-0.1-0.6-0.2c0,0.2-0.1,0.4-0.1,0.5c0.2,0,0.4-0.1,0.6-0.1l0,0c-0.2-0.1-0.4-0.2-0.6-0.2c0,0.2-0.1,0.3-0.3,0.4
					c0.2,0.1,0.3,0.2,0.5,0.3c0-0.2,0-0.4,0-0.5c-0.2,0-0.4,0-0.8,0c0,0.2,0,0.3-0.1,0.4c0.2,0.1,0.4,0.1,0.6,0.2
					c0-0.3,0.1-1.1,0.6-1C714,516.1,714.2,515.5,713.7,515.5L713.7,515.5z"/>
			</g>
			<g>
				<path class="st2" d="M724.7,515.8c0.1-0.3,0.2-0.6,0.1-1c0-0.3-0.5-0.3-0.6-0.1c-0.1,0.2-0.1,0.3-0.1,0.6
					c0.1-0.1,0.2-0.2,0.3-0.3c-0.2,0-0.5,0-0.8,0c0.1,0.2,0.2,0.4,0.2,0.6c0,0,0,0,0.1,0c-0.1,0-0.2,0.1-0.2,0.1c0-0.1,0-0.2,0-0.3
					c-0.4-0.2-0.8,0.4-0.3,0.6c0.4,0.2,1,0.1,0.9-0.5c0-0.4-0.5-0.6-0.9-0.3c-0.2,0.2,0,0.6,0.2,0.6c0.2,0,0.5,0,0.8,0
					c0.2,0,0.3-0.1,0.3-0.3c0-0.1,0-0.1,0.1-0.2c-0.2,0-0.4-0.1-0.6-0.1c0,0.2,0,0.3-0.1,0.5C724,515.8,724.5,516.1,724.7,515.8
					L724.7,515.8z"/>
			</g>
			<g>
				<path class="st2" d="M707.2,522c0.4,0,0.4-0.8,0-0.8S706.8,522,707.2,522L707.2,522z"/>
			</g>
			<g>
				<path class="st2" d="M705.1,526.3c0.4,0,0.4-0.8,0-0.8C704.7,525.7,704.7,526.3,705.1,526.3L705.1,526.3z"/>
			</g>
			<g>
				<path class="st2" d="M706.8,528.7c0.4,0,0.4-0.8,0-0.8C706.4,528.1,706.4,528.7,706.8,528.7L706.8,528.7z"/>
			</g>
			<g>
				<path class="st2" d="M707.9,529c0.4,0,0.4-0.8,0-0.8C707.4,528.4,707.4,529,707.9,529L707.9,529z"/>
			</g>
			<g>
				<path class="st2" d="M707.9,529c0.1,0,0.1,0.1,0.2,0.1c0-0.2,0.1-0.4,0.1-0.5l0.1,0.1c-0.2,0-0.4,0.1-0.6,0.1
					c0.1,0.1,0.1,0.2,0,0.3c0.2-0.1,0.4-0.1,0.6-0.2c0,0.1,0,0.1-0.1,0.2C708.2,529,708,529,707.9,529c0.1,0,0.2,0.1,0.3,0.3
					c0.2,0.4,0.8,0,0.6-0.3c-0.1-0.1-0.1-0.2-0.2-0.4c-0.1-0.1-0.2-0.2-0.4-0.2c-0.4,0.1-0.5,0.5-0.3,0.8c0.1,0.3,0.6,0.1,0.6-0.2
					c0-0.2,0-0.4-0.1-0.6c-0.1-0.2-0.5-0.2-0.6,0.1c-0.1,0.4,0.3,0.8,0.8,0.8c0.2-0.1,0.3-0.4,0.1-0.5c-0.2-0.2-0.4-0.3-0.8-0.3
					C707.4,528.2,707.4,529,707.9,529L707.9,529z"/>
			</g>
			<g>
				<path class="st2" d="M719.9,515.1c0.4,0,0.4-0.8,0-0.8C719.5,514.6,719.5,515.1,719.9,515.1L719.9,515.1z"/>
			</g>
			<g>
				<g>
					<g>
						<path class="st1" d="M702.3,497.7c2.8-4.8-1-9.5,0.2-14.4c0.6-2.3,2.3-4,2.5-6.3c0.3-2.8-0.8-5.3-1.5-7.9c-1.2-4-1.3-7-0.4-11
							c0.5-2.1,0.6-4,0.4-6.1c-0.3-2.1-0.8-0.5-0.5-3.4c0.2-1.7,0.3-0.8,0.3-2.3c0.1-3.4-1-6.6-0.6-10.2c0-0.4-0.4-0.6-0.8-0.5
							c-1.3-0.2-2.8-0.3-4.1-0.5c-0.3-0.1-0.8-0.1-0.8,0.3c-0.9,5.6,0.4,11.3-0.1,17c-0.2,2.6-0.8,5-0.5,7.5
							c0.3,2.6,1.1,5.2,1.4,7.9c0.3,3.6-1.1,6.3-1.7,9.8c-0.4,2.3,0,4.1,0.3,6.2c0.5,3.6-0.8,6.5-1.1,9.8c-0.5,4.1-0.9,7-4.1,10
							c-0.5,0.4,0.1,1.2,0.8,0.9c5.2-2.9,10.4,3.2,15.3-0.3c0.3-0.2,0.4-0.9-0.1-1c-4-0.8-4.1-5.7-5-8.7c-0.2-0.8-1.3-0.4-1.1,0.3
							c1.2,3.6,1.2,8.6,5.7,9.5c0-0.3-0.1-0.8-0.1-1c-4.8,3.3-10.2-2.5-15.3,0.3c0.2,0.3,0.4,0.6,0.8,0.9c4.1-4,3.8-8.2,4.8-13.3
							c0.6-3,1-4.5,0.8-7.5c-0.2-2.4-0.5-4.6,0.1-7.1c0.3-1.4,0.9-2.9,1.2-4.4c0.4-2.3,0.3-4.4-0.1-6.6c-0.8-4.1-1.2-7.4-0.8-11.5
							c0.4-2.9,0.3-5.6,0.2-8.5c-0.1-1.7-1.2-8,0.5-9c-0.2,0.1,2.6,0.5,2.4,0.3c0.8,0.6,0.3,1.4,0.4,2.3c0.1,1.5,0.3,3.2,0.3,4.6
							c0.1,1.4-0.5,5-0.4,5.6c0.2,1.8,1.3,3.5,1.3,5.4c0,3.2-1.7,6.1-1.5,9.4c0.1,2.3,1,4.5,1.7,6.7c0.5,1.7,1.1,3.3,1.1,5
							c0.1,2.6-1.4,4.1-2.1,6.2c-1.7,5,2.2,10.6-0.4,15.2C701,497.7,702,498.2,702.3,497.7L702.3,497.7z"/>
					</g>
					<g>
						<path class="st1" d="M694.8,499c2.5,0.3,5-0.1,7.4-1c0.6-0.3,0.4-1.3-0.3-1.1c-2.3,0.9-4.8,1.2-7.1,1
							C694,497.8,694,498.9,694.8,499L694.8,499z"/>
					</g>
					<g>
						<path class="st1" d="M696,488.9c2,0.3,3.8,0.1,5.6-0.8c0.6-0.3,0.1-1.2-0.6-0.9c-1.5,0.8-3.2,0.9-4.8,0.6
							C695.7,487.8,695.4,488.8,696,488.9L696,488.9z"/>
					</g>
					<g>
						<path class="st1" d="M696.8,479.9c2.5,0.5,5,0,7.1-1.3c0.6-0.4,0-1.3-0.6-0.9c-2,1.2-4.1,1.7-6.3,1.2
							C696.4,478.6,696,479.7,696.8,479.9L696.8,479.9z"/>
					</g>
					<g>
						<path class="st1" d="M698,472.1c1.7,0.5,3.5-0.4,4.2-2c0.3-0.6-0.8-1.2-0.9-0.6c-0.5,1.1-1.7,1.8-2.9,1.4
							C697.7,470.9,697.3,471.9,698,472.1L698,472.1z"/>
					</g>
					<g>
						<path class="st1" d="M697.2,463.4c1.4,0.1,2.8,0.1,4.1-0.2c0.8-0.1,0.4-1.2-0.3-1.1c-1.2,0.2-2.5,0.2-3.8,0.1
							C696.5,462.2,696.5,463.4,697.2,463.4L697.2,463.4z"/>
					</g>
					<g>
						<path class="st1" d="M696.7,457.1c2,0.2,3.8-0.5,5.3-2c0.5-0.5-0.3-1.3-0.8-0.8c-1.2,1.2-2.8,1.7-4.4,1.7
							C696,455.9,696,457.1,696.7,457.1L696.7,457.1z"/>
					</g>
					<g>
						<path class="st1" d="M697.5,451c1.4,0,2.8-0.6,3.6-1.8c0.4-0.6-0.5-1.1-0.9-0.6c-0.6,0.8-1.7,1.3-2.6,1.2
							C696.7,449.9,696.7,451,697.5,451L697.5,451z"/>
					</g>
					<g>
						<path class="st1" d="M697.6,447.5c2-0.8,3.5-2,4.8-3.8c0.4-0.6-0.6-1.1-0.9-0.6c-1,1.5-2.3,2.6-4.1,3.2
							C696.7,446.7,696.9,447.8,697.6,447.5L697.6,447.5z"/>
					</g>
					<g>
						<path class="st1" d="M697.5,442.6c1.5,0.2,2.9-0.3,4.1-1.4c0.5-0.5-0.3-1.3-0.8-0.8c-0.9,0.9-2,1.2-3.2,1.1
							C696.8,441.5,696.8,442.5,697.5,442.6L697.5,442.6z"/>
					</g>
					<g>
						<path class="st1" d="M696.9,438.8c1,0,2,0,2.9,0c0.8,0,0.8-1.1,0-1.1c-1,0-2,0-2.9,0C696.3,437.6,696.3,438.8,696.9,438.8
							L696.9,438.8z"/>
					</g>
					<g>
						<path class="st1" d="M701.7,436.3c7.3,1.3,13.9,4.4,19.1,9.7c5,5,8.3,11.3,11.9,17.2c0.4,0.6,1.3,0.1,0.9-0.6
							c-3.8-6.5-7.4-13.3-13.1-18.5c-5.3-4.8-11.7-7.7-18.6-9C701.3,435.1,701,436.2,701.7,436.3L701.7,436.3z"/>
					</g>
					<g>
						<path class="st1" d="M697.2,435.2c-14.6,0.1-24.6,13.8-29.4,26.3c-0.3,0.8,0.8,0.9,1.1,0.3c4.6-12.2,14.4-25.4,28.4-25.5
							C697.9,436.3,697.9,435.2,697.2,435.2L697.2,435.2z"/>
					</g>
					<g>
						<path class="st1" d="M699.2,435c-4.4-0.2-8.7-2.5-13.1-3.5c-3.3-0.8-6.7-1.2-10.2-1.1c-5.9,0.2-11.3,2.1-15.8,5.9
							c-0.5,0.4,0.2,1.2,0.8,0.8c5.7-4.8,13.1-6.1,20.4-5.3c6.2,0.8,11.9,4.1,17.9,4.4C699.9,436.2,699.9,435.1,699.2,435L699.2,435
							z"/>
					</g>
					<g>
						<path class="st1" d="M699.3,435.8c6.5,0,12.3-2.8,18.6-3.3c6.9-0.6,14.3,2.9,19.7,6.5c0.6,0.4,1.1-0.6,0.6-0.9
							c-5-3.2-11.6-6.5-17.6-6.7c-7.4-0.3-14,3.4-21.5,3.4C698.7,434.7,698.7,435.8,699.3,435.8L699.3,435.8z"/>
					</g>
					<g>
						<path class="st1" d="M700.1,436c2.1-2.6,4.2-5.4,7.1-7.4c3.5-2.3,7.4-2.5,11.5-2.5c0.8,0,0.8-1.1,0-1.1
							c-3.8,0-7.7,0.1-11.1,2.1c-3.4,2-5.9,5.2-8.3,8.1C698.9,435.8,699.7,436.4,700.1,436L700.1,436z"/>
					</g>
					<g>
						<path class="st1" d="M699.7,435.2c-2.5-3-4.9-6.2-6.9-9.7c-1.1-1.8-2-3.6-3.8-4.8c-3.5-2.2-7.7-3.5-11.5-1.7
							c-0.6,0.3-0.1,1.2,0.6,0.9c5.3-2.5,11.2,2,13.8,6.1c2.1,3.4,4.5,6.7,7.1,9.8C699.3,436.6,700.1,435.8,699.7,435.2L699.7,435.2
							z"/>
					</g>
					<g>
						<path class="st1" d="M702.4,436.7c2,0.8,3,3.5,4.1,5.3c1,1.8,1.8,3.6,2.6,5.4c0.3,0.6,1.3,0.4,1.1-0.3c-1-2.4-2.2-4.9-3.5-7.1
							c-1-1.7-2-3.6-4-4.4C702,435.4,701.7,436.4,702.4,436.7L702.4,436.7z"/>
					</g>
					<g>
						<path class="st1" d="M705.1,436.6c2,1.3,2.8,3.8,3.8,5.7c0.9,2,2,4.1,2.9,6.2c0.3,0.6,1.2,0.1,0.9-0.6
							c-1.2-2.6-2.4-5.2-3.5-7.7c-0.8-1.8-1.7-3.4-3.3-4.5C705,435.2,704.5,436.2,705.1,436.6L705.1,436.6z"/>
					</g>
					<g>
						<path class="st1" d="M707.5,438.1c2.9,3.8,6.5,7.7,7.4,12.5c0.1,0.8,1.2,0.4,1.1-0.3c-0.9-5-4.6-8.9-7.5-12.8
							C708,437,707.1,437.5,707.5,438.1L707.5,438.1z"/>
					</g>
					<g>
						<path class="st1" d="M711.9,439.2c2.8,3.2,4.6,6.9,5.6,10.9c0.2,0.8,1.2,0.4,1.1-0.3c-1.1-4.2-3.2-8.1-6-11.4
							C712.2,437.9,711.4,438.7,711.9,439.2L711.9,439.2z"/>
					</g>
					<g>
						<path class="st1" d="M716.4,441.8c0.1,0.9,0.4,1.7,0.9,2.4c0.5,0.8,1.3,1.3,1.7,2.1c0.4,0.9,0.4,2.2,0.6,3.2
							c0.3,1.5,0.6,3,0.8,4.5c0.1,0.8,1.2,0.4,1.1-0.3c-0.5-2.4-0.8-5.2-1.4-7.4c-0.6-1.8-2.3-2.8-2.8-4.8
							C717.3,440.8,716.4,441.1,716.4,441.8L716.4,441.8z"/>
					</g>
					<g>
						<path class="st1" d="M720.6,446.5c-0.4,1.5-0.1,2.9,0.4,4.4c0.8,2.1,1.3,4,1.2,6.2c0,0.8,1.1,0.8,1.1,0c0.1-1.5-0.1-3-0.5-4.4
							c-0.6-2-1.7-3.8-1.1-5.9C721.9,446,720.9,445.7,720.6,446.5L720.6,446.5z"/>
					</g>
					<g>
						<path class="st1" d="M721.7,447.8c2,4.4,3.3,9,4.2,13.7c0.1,0.8,1.2,0.4,1.1-0.3c-0.9-4.9-2.4-9.5-4.4-14
							C722.3,446.6,721.3,447.1,721.7,447.8L721.7,447.8z"/>
					</g>
					<g>
						<path class="st1" d="M725.5,453c0.8,4.1,1.7,8.3,2.5,12.4c0.2,0.8,1.2,0.4,1.1-0.3c-0.9-4.1-1.8-8.3-2.5-12.4
							C726.4,452,725.4,452.3,725.5,453L725.5,453z"/>
					</g>
					<g>
						<path class="st1" d="M727.9,455.9c-0.5,4.1,1.5,8.6,2.6,12.5c0.2,0.8,1.2,0.4,1.1-0.3c-1.1-3.8-3-8.2-2.6-12.2
							C729.1,455.1,728,455.1,727.9,455.9L727.9,455.9z"/>
					</g>
					<g>
						<path class="st1" d="M730,460.6c0.9,2.5,1.8,5,2.6,7.4c0.2,0.8,1.3,0.4,1.1-0.3c-0.8-2.5-1.7-5-2.6-7.4
							C730.8,459.6,729.7,459.9,730,460.6L730,460.6z"/>
					</g>
					<g>
						<path class="st1" d="M696.1,435.2c-4.5,2-7.5,6.3-7.9,11.3c0,0.8,1,0.8,1.1,0c0.3-4.6,3.2-8.5,7.4-10.4
							C697.3,435.8,696.8,434.8,696.1,435.2L696.1,435.2z"/>
					</g>
					<g>
						<path class="st1" d="M691.5,436c-2.1,1.8-4.8,3.5-6.2,6.1c-1.3,2.2-1.4,5-1.5,7.4c0,0.8,1.1,0.8,1.1,0
							c0.1-2.9,0.3-5.7,2.2-8.1c1.5-1.7,3.4-3.2,5.3-4.6C692.8,436.3,692,435.5,691.5,436L691.5,436z"/>
					</g>
					<g>
						<path class="st1" d="M683.6,439.9c-2,4.2-3,8.6-3.3,13.2c0,0.8,1,0.8,1.1,0c0.3-4.4,1.3-8.6,3.2-12.7
							C684.8,439.7,683.9,439.3,683.6,439.9L683.6,439.9z"/>
					</g>
					<g>
						<path class="st1" d="M679.8,443.4c-0.9,4.2-1.4,8.5-1.7,12.8c0,0.8,1,0.8,1.1,0c0.2-4.2,0.8-8.3,1.7-12.5
							C681,443,679.9,442.7,679.8,443.4L679.8,443.4z"/>
					</g>
					<g>
						<path class="st1" d="M675.9,447.9c0.1,3,0,6.1-0.4,9.1c-0.1,0.8,1,0.8,1.1,0c0.3-3,0.5-6.1,0.4-9.1
							C676.9,447.2,675.8,447.2,675.9,447.9L675.9,447.9z"/>
					</g>
					<g>
						<path class="st1" d="M673.9,450.6c-1.5,2.9-2.1,6-2,9.1c0.1,0.8,1.2,0.8,1.1,0c-0.3-3,0.3-5.9,1.7-8.6
							C675.2,450.5,674.2,449.9,673.9,450.6L673.9,450.6z"/>
					</g>
					<g>
						<path class="st1" d="M670.1,456c-0.3,3-0.4,6.1-0.1,9.1c0.1,0.8,1.1,0.8,1.1,0c-0.2-3-0.2-6.1,0.1-9.1
							C671.3,455.3,670.1,455.3,670.1,456L670.1,456z"/>
					</g>
					<g>
						<path class="st1" d="M667.6,460.4c0,2.5,0,5,0,7.5c0,0.8,1.1,0.8,1.1,0c0-2.5,0-5,0-7.5C668.6,459.7,667.6,459.7,667.6,460.4
							L667.6,460.4z"/>
					</g>
					<g>
						<path class="st1" d="M668.3,459.3c-1.7,1.7-2.8,3.4-3.4,5.6c-0.2,0.8,0.8,1,1.1,0.3c0.6-2,1.7-3.6,3.2-5
							C669.5,459.6,668.8,458.8,668.3,459.3L668.3,459.3z"/>
					</g>
					<g>
						<path class="st1" d="M693.4,434.6c-3.8-1.1-7.7,0.1-10.4,3c-0.5,0.5,0.3,1.3,0.8,0.8c2.3-2.6,5.9-3.8,9.3-2.8
							C693.8,436,694,434.8,693.4,434.6L693.4,434.6z"/>
					</g>
					<g>
						<path class="st1" d="M688.5,432.7c-4,0.8-7.4,2.8-10.2,5.6c-0.5,0.5,0.3,1.3,0.8,0.8c2.6-2.9,5.9-4.6,9.7-5.3
							C689.5,433.7,689.2,432.6,688.5,432.7L688.5,432.7z"/>
					</g>
					<g>
						<path class="st1" d="M687.3,431.6c-5.3-0.6-10.3,1.8-13.2,6.2c-0.4,0.6,0.6,1.1,0.9,0.6c2.8-4.1,7.4-6.2,12.3-5.7
							C687.9,432.9,687.9,431.7,687.3,431.6L687.3,431.6z"/>
					</g>
					<g>
						<path class="st1" d="M680.1,430.6c-3.2,1-5.9,2.8-8,5.3c-0.5,0.5,0.3,1.3,0.8,0.8c2-2.3,4.5-4.1,7.4-5
							C681.1,431.5,680.9,430.4,680.1,430.6L680.1,430.6z"/>
					</g>
					<g>
						<path class="st1" d="M674.6,431.3c-4-0.2-5.7,3.5-7,6.6c-0.3,0.8,0.8,0.9,1.1,0.3c1-2.6,2.5-6.1,6-5.9
							C675.2,432.3,675.2,431.3,674.6,431.3L674.6,431.3z"/>
					</g>
					<g>
						<path class="st1" d="M669,432.2c-1.8,1-3.2,2.5-4,4.5c-0.3,0.8,0.8,0.9,1.1,0.3c0.6-1.7,2-3,3.4-3.8
							C670.3,432.7,669.7,431.7,669,432.2L669,432.2z"/>
					</g>
					<g>
						<path class="st1" d="M665.7,433.2c-2.2,0.6-4,2.4-4.4,4.6c-0.2,0.8,0.9,1,1.1,0.3c0.4-2,1.8-3.3,3.6-3.8
							C666.8,434,666.5,433.1,665.7,433.2L665.7,433.2z"/>
					</g>
					<g>
						<path class="st1" d="M705.9,435.2c3.8-0.8,7.5,0.3,10.4,2.9c0.5,0.5,1.3-0.3,0.8-0.8c-3.2-2.9-7.3-4.1-11.4-3.2
							C704.9,434.3,705.1,435.5,705.9,435.2L705.9,435.2z"/>
					</g>
					<g>
						<path class="st1" d="M709.2,434.7c1.2-0.5,2.5-1,3.8-1.2c1.4-0.2,1.5,0.3,2.4,1.1c1.4,1.2,3.5,1.7,4.4,3.4
							c0.3,0.6,1.2,0.1,0.9-0.6c-1-2.2-3.8-2.9-5.3-4.5c-1.7-1.7-4.5,0.1-6.5,0.8C708.2,434,708.4,435.1,709.2,434.7L709.2,434.7z"
							/>
					</g>
					<g>
						<path class="st1" d="M713.9,433.1c3.6-0.8,6.9,3.8,8.6,6.2c0.4,0.6,1.4,0,0.9-0.6c-2.2-3-5.6-7.7-10-6.7
							C712.9,432.2,713.3,433.4,713.9,433.1L713.9,433.1z"/>
					</g>
					<g>
						<path class="st1" d="M715.5,432.6c0.9,0.1,2-0.1,2.9,0c1.7,0.1,2.6,1.1,3.8,2.1c1.8,1.4,3.4,2.9,4.8,4.8
							c0.4,0.6,1.4,0,0.9-0.6c-1.7-2.2-3.8-4.1-6-5.7c-0.8-0.8-1.7-1.3-2.8-1.5c-1.2-0.2-2.4,0.1-3.6,0
							C714.8,431.4,714.8,432.5,715.5,432.6L715.5,432.6z"/>
					</g>
					<g>
						<path class="st1" d="M718.6,432.5c1.3-0.1,2.6,0,4.1,0.2c1.7,0.2,2.2,1.1,3,2.4c0.9,1.5,2.1,2.5,3.8,3.3
							c0.6,0.3,1.2-0.6,0.6-0.9c-1.5-0.8-2.6-1.7-3.4-3.2c-0.4-0.8-0.8-1.4-1.3-2c-1.7-1.3-4.8-1.1-6.5-1
							C717.9,431.3,717.9,432.5,718.6,432.5L718.6,432.5z"/>
					</g>
					<g>
						<path class="st1" d="M725.5,433.7c1-0.2,2.2-0.4,3.2,0s1.2,1.3,1.5,2.2c0.3,1.1,0.6,2.2,1.7,2.9c0.6,0.3,1.2-0.6,0.6-0.9
							c-1.5-0.8-1.1-3.2-2.3-4.4c-1.3-1.3-3.3-1.1-5-0.8C724.5,432.9,724.8,433.8,725.5,433.7L725.5,433.7z"/>
					</g>
					<g>
						<path class="st1" d="M734.2,441.2c0.8,0,0.8-1.1,0-1.1C733.6,440,733.6,441.2,734.2,441.2L734.2,441.2z"/>
					</g>
					<g>
						<path class="st1" d="M730.6,434.8c1.8,2,3,4.4,3.8,6.9c0.2,0.8,1.2,0.4,1.1-0.3c-0.8-2.8-2.1-5.3-4.1-7.4
							C730.9,433.5,730.1,434.3,730.6,434.8L730.6,434.8z"/>
					</g>
					<g>
						<path class="st1" d="M733.8,437c0.6,1,1.3,2,2,2.9c0.4,0.6,1.3,0,0.9-0.6c-0.6-1-1.3-2-2-2.9
							C734.5,435.8,733.4,436.4,733.8,437L733.8,437z"/>
					</g>
					<g>
						<path class="st1" d="M697.9,433.8c-1.7-1.2-3.2-2.3-4.9-3.5c-0.6-0.4-1.1,0.5-0.6,0.9c1.7,1.2,3.2,2.3,4.9,3.5
							C698,435.2,698.5,434.3,697.9,433.8L697.9,433.8z"/>
					</g>
					<g>
						<path class="st1" d="M694.8,430.6c-1.3-1.1-2.8-2.1-4.4-2.9c-0.6-0.3-1.2,0.6-0.6,0.9c1.5,0.8,2.9,1.7,4.1,2.8
							C694.5,431.9,695.2,431.1,694.8,430.6L694.8,430.6z"/>
					</g>
					<g>
						<path class="st1" d="M692.4,427.7c-1.7-0.8-3.3-1.5-5-2.5c-0.6-0.4-1.1,0.6-0.6,0.9c1.7,1,3.4,2,5.2,2.6
							C692.7,429,693,428,692.4,427.7L692.4,427.7z"/>
					</g>
					<g>
						<path class="st1" d="M692.1,425.2c-2.6-0.8-5.3-1.3-8-1.3c-0.8,0-0.8,1.1,0,1.1c2.6,0,5.2,0.5,7.7,1.3
							C692.6,426.6,692.8,425.5,692.1,425.2L692.1,425.2z"/>
					</g>
					<g>
						<path class="st1" d="M691,423.5c-2.1-0.9-4.4-1.7-6.5-2c-1-0.1-3.5-0.8-4,0.8c-0.1,0.8,0.9,1,1.1,0.3c0.1-0.5,4.1,0.4,4.6,0.5
							c1.5,0.3,2.9,0.8,4.2,1.5C691.1,424.7,691.6,423.7,691,423.5L691,423.5z"/>
					</g>
					<g>
						<path class="st1" d="M685.1,420.2c-2.9-0.6-5.6-0.3-8.3,1c-0.6,0.3-0.1,1.2,0.6,0.9c2.3-1.1,4.9-1.4,7.4-0.9
							C685.5,421.5,685.8,420.4,685.1,420.2L685.1,420.2z"/>
					</g>
					<g>
						<path class="st1" d="M700.4,435.1c1.7-2,4-3.2,6.5-3.2c0.8,0,0.8-1.1,0-1.1c-2.9,0-5.6,1.3-7.4,3.5
							C699.2,434.8,700,435.5,700.4,435.1L700.4,435.1z"/>
					</g>
					<g>
						<path class="st1" d="M703,431.9c0.6-1.1,2.1-1.3,3.2-1.5c1.2-0.3,2.3-0.6,3.5-0.9c0.8-0.2,0.4-1.2-0.3-1.1
							c-1.7,0.5-3.4,0.9-5,1.4c-1,0.3-1.8,0.8-2.3,1.7C701.7,431.9,702.7,432.5,703,431.9L703,431.9z"/>
					</g>
					<g>
						<path class="st1" d="M706.2,429.8c2-2.1,4.9-2.9,7.5-2c0.8,0.2,0.9-0.8,0.3-1.1c-3.2-1.2-6.3-0.2-8.6,2.1
							C704.9,429.4,705.6,430.3,706.2,429.8L706.2,429.8z"/>
					</g>
					<g>
						<path class="st1" d="M712.5,426.9c2.5-0.3,5.3-0.6,7.1,1.5c0.4,0.5,1.2-0.2,0.8-0.8c-2-2.4-5.3-2.2-8.2-1.8
							C711.5,426,711.8,427,712.5,426.9L712.5,426.9z"/>
					</g>
					<g>
						<path class="st1" d="M706.4,430.2c1.7,0,3.4,0,5.2,0c0.8,0,0.8-1.1,0-1.1c-1.7,0-3.4,0-5.2,0
							C705.7,429.1,705.7,430.2,706.4,430.2L706.4,430.2z"/>
					</g>
					<g>
						<path class="st1" d="M708,429.4c2.4-1,5.2-1,7.5,0c0.6,0.3,1.2-0.8,0.6-0.9c-2.9-1.2-5.9-1.2-8.6,0
							C706.8,428.8,707.4,429.8,708,429.4L708,429.4z"/>
					</g>
				</g>
				<g>
					<path class="st1" d="M701.1,447c1.5,0,1.7-2.4,0-2.4C699.6,444.6,699.6,447,701.1,447L701.1,447z"/>
				</g>
				<g>
					<path class="st1" d="M700.9,449.3c1.7,0,1.7-2.4,0-2.4C699.3,446.9,699.3,449.3,700.9,449.3L700.9,449.3z"/>
				</g>
				<g>
					<path class="st1" d="M700.9,452.4c1.7,0,1.7-2.4,0-2.4C699.3,450.1,699.3,452.4,700.9,452.4L700.9,452.4z"/>
				</g>
				<g>
					<path class="st1" d="M699.7,451.3c0,0.4,0,0.9,0,1.3c0,0.8,0.6,1.2,1.2,1.2c0.8,0,1.2-0.6,1.2-1.2c0-0.4,0-0.9,0-1.3
						c0-0.8-0.6-1.2-1.2-1.2C700.2,450.1,699.7,450.6,699.7,451.3L699.7,451.3z"/>
				</g>
				<g>
					<path class="st1" d="M700.9,455.4c1.7,0,1.7-2.4,0-2.4S699.3,455.4,700.9,455.4L700.9,455.4z"/>
				</g>
				<g>
					<path class="st1" d="M700.9,442.1c1.7,0,1.7-2.4,0-2.4C699.3,439.7,699.3,442.1,700.9,442.1L700.9,442.1z"/>
				</g>
				<g>
					<path class="st1" d="M700.9,443.8c1.7,0,1.7-2.4,0-2.4S699.3,443.8,700.9,443.8L700.9,443.8z"/>
				</g>
				<g>
					<path class="st1" d="M701.1,447.7c1.5,0,1.7-2.4,0-2.4C699.6,445.2,699.6,447.7,701.1,447.7L701.1,447.7z"/>
				</g>
				<g>
					<path class="st1" d="M701.4,451.4c1.5,0,1.7-2.4,0-2.4C699.9,449,699.9,451.4,701.4,451.4L701.4,451.4z"/>
				</g>
				<g>
					<path class="st1" d="M701.7,460.8c1.5,0,1.7-2.4,0-2.4S700.1,460.8,701.7,460.8L701.7,460.8z"/>
				</g>
				<g>
					<path class="st1" d="M700.9,459.2c1.7,0,1.7-2.4,0-2.4C699.3,456.8,699.3,459.2,700.9,459.2L700.9,459.2z"/>
				</g>
				<g>
					<path class="st1" d="M700.9,468.1c1.7,0,1.7-2.4,0-2.4S699.3,468.1,700.9,468.1L700.9,468.1z"/>
				</g>
				<g>
					<path class="st1" d="M700.9,468.1c1.7,0,1.7-2.4,0-2.4S699.3,468.1,700.9,468.1L700.9,468.1z"/>
				</g>
				<g>
					<path class="st1" d="M702.1,466.9c0-0.5,0.1-1,0.1-1.7c-0.8,0.1-1.7,0.2-2.4,0.3c0.4,1.8,0.5,3.6,0.4,5.4
						c-0.1,1.2,1.7,1.7,2.2,0.6c0.3-0.3,0.3-0.4-0.1-0.5c0-0.6,0-1.1,0-1.7c-0.8,0.8-1.2,1.7-1.5,2.6c-0.2,0.8,0.4,1.5,1.2,1.5
						c0.3,0,0.6,0.1,1,0.1c-0.3-0.8-0.6-1.4-0.9-2.1c-0.8,0.8-1,1.4-1,2.4c-0.1,1.7,2.3,1.5,2.4,0c0.1-0.2,0.2-0.5,0.3-0.8
						c0.8-0.8,0.2-2-0.9-2.1c-0.3,0-0.6-0.1-1-0.1c0.4,0.5,0.8,1,1.2,1.5c0.2-0.6,0.4-1.1,0.9-1.5c0.4-0.4,0.5-1.3,0-1.7
						c-1.4-1.2-2.9-0.5-3.6,0.9c0.8,0.2,1.5,0.4,2.2,0.6c0.2-2.1,0-4.1-0.5-6.2c-0.3-1.4-2.3-1-2.4,0.3c0,0.5-0.1,1-0.1,1.7
						C699.6,468.5,702,468.4,702.1,466.9L702.1,466.9z"/>
				</g>
				<g>
					<path class="st1" d="M702.2,478.1c1.7,0,1.7-2.4,0-2.4C700.7,475.7,700.7,478.1,702.2,478.1L702.2,478.1z"/>
				</g>
				<g>
					<path class="st1" d="M701.4,478.9c-0.8,0.4-1.4,1-1.4,2s0.8,1.8,1.7,1.7c0.6-0.1,1.2-0.5,1.2-1.2c0-0.6-0.6-1.3-1.2-1.2
						c0.4,0.1,0.6,0.2,0.8,0.5c0.1,0.2,0,0.4-0.1,0.6c-0.1,0.1-0.1,0,0.1,0c0.1,0,0.1-0.1,0.2-0.1c0.6-0.3,0.8-1.1,0.4-1.7
						C702.7,478.6,702,478.5,701.4,478.9L701.4,478.9z"/>
				</g>
				<g>
					<path class="st1" d="M700.8,481.5c-1.3,2.8,0.9,5.3,3.8,4.4c1.2-0.4,1.1-2.4-0.3-2.4c-1.4,0-3.8-0.4-4.9,0.8
						c-1.4,1.5,1,3.2-0.1,4.8c-0.4,0.5-0.1,1.3,0.4,1.7c0.3,0.1,0.5,0.3,0.8,0.4c-0.1-0.5-0.3-1.1-0.4-1.7c-0.3,0.4-0.6,0.8-0.9,1.1
						c-0.6,0.8-0.3,1.7,0.5,2c1.2,0.4,2.1,0.4,3.3,0.1c-0.4-0.8-0.8-1.3-1.2-2c-1,1.2-2,2.4-3,3.6c-1,1.2,0.8,2.9,1.7,1.7
						c1-1.2,2-2.4,3-3.6c0.8-0.9,0.1-2.3-1.2-2c-0.8,0-1.3-0.1-2-0.1c0.2,0.8,0.4,1.3,0.5,2c0.6-0.6,0.8-0.9,1.3-1.7
						c0.4-0.5,0.1-1.3-0.4-1.7c-0.3-0.1-0.5-0.3-0.8-0.4c0.1,0.5,0.3,1.1,0.4,1.7c0.8-1,1-2,0.6-3.2c-0.1-0.5-0.4-1-0.3-1
						c0,0,2.3,0.1,2.6,0.1c-0.1-0.8-0.2-1.7-0.3-2.4c-0.4-0.3-0.8-0.5-1.1-0.8C703.5,481.3,701.4,480.1,700.8,481.5L700.8,481.5z"/>
				</g>
				<g>
					<path class="st1" d="M700.1,499.1c1.5,0,1.7-2.4,0-2.4C698.5,496.7,698.5,499.1,700.1,499.1L700.1,499.1z"/>
				</g>
				<g>
					<path class="st1" d="M700.1,502.6c1.5,0,1.7-2.4,0-2.4C698.5,500.2,698.5,502.6,700.1,502.6L700.1,502.6z"/>
				</g>
				<g>
					<path class="st1" d="M700.1,502.6c0.2,0,0.4,0,0.5,0c0.8,0,1.2-0.6,1.2-1.2c0-0.8-0.6-1.2-1.2-1.2c-0.2,0-0.4,0-0.5,0
						c-0.8,0-1.2,0.6-1.2,1.2S699.3,502.6,700.1,502.6L700.1,502.6z"/>
				</g>
				<g>
					<path class="st1" d="M703,502.8c1.5,0,1.7-2.4,0-2.4C701.4,500.4,701.4,502.8,703,502.8L703,502.8z"/>
				</g>
				<g>
					<path class="st1" d="M701.4,501.5c1.5,0,1.7-2.4,0-2.4C699.9,499.1,699.9,501.5,701.4,501.5L701.4,501.5z"/>
				</g>
				<g>
					<path class="st1" d="M701.1,499.7c1.5,0,1.7-2.4,0-2.4C699.6,497.2,699.6,499.7,701.1,499.7L701.1,499.7z"/>
				</g>
			</g>
		</g>
		<g>
			<path class="st1" d="M616.8,471.2c0.6-0.4,0.8-0.6,0.9-1l0.1-0.5h0.8l-0.1,3.5l-1.5,0.8l-3.6,1.8v1.1l3.8,0.1
				c0.2,0,0.3-0.1,0.3-0.8l0.1-0.6h0.8l-0.2,5.2l-0.8-0.1v-0.8c0-0.5-0.1-0.6-0.3-0.6l-9.2-0.3c-0.2,0-0.3,0.1-0.4,0.8l-0.1,0.6
				h-0.8l0.2-5.3c0.1-3,1.3-4.4,3-4.4c1.5,0.1,2.5,1,3.2,2.8L616.8,471.2z M607.6,476c0,0.1,0,0.9,0,0.9l4.9,0.2l0.2-1.1
				c-0.1-1.4-0.8-2.3-2.4-2.3C608.5,473.4,607.6,474.3,607.6,476z"/>
			<path class="st1" d="M620.9,458l-2,9.8l-0.8-0.2l0.1-0.8c0-0.5,0-0.6-0.2-0.8l-9.1-1.8c-0.2,0-0.3,0-0.5,0.6l-0.2,0.6l-0.8-0.1
				l2-9.8l3.8,0.8l-0.3,1.2l-1.7,0.1c-1.4,0.1-1.7,0.5-2.1,3.3l-0.2,0.8l4.4,0.9l0.1-0.4c0.2-1,0.2-1.5-0.2-1.7l-1.1-0.8l0.2-0.9
				l4.4,1.3l-0.2,0.9l-1.2-0.1c-0.5,0-0.6,0.1-0.9,1.4l-0.1,0.4l4.4,0.9l0.2-0.9c0.6-2.9,0.5-3.4-0.6-4.1l-1.2-0.8l0.3-1.3
				L620.9,458z"/>
			<path class="st1" d="M623.5,450.9c-0.5,1.4-1.1,2.3-1.8,3.2l-3.4-1.1l0.4-1.1l2.9,0.2c0.4-0.5,0.8-1.1,1-1.7
				c0.5-1.5,0-2.4-0.9-2.9c-1.3-0.5-2.1,0.4-3.2,1.7c-1.3,1.7-2.5,2.9-4.4,2.1c-1.7-0.6-2.8-2.5-1.7-5.3c0.3-1,0.8-1.5,1.1-2.3
				l0.1-1l3.6,1.3l-0.4,1.1l-2.6-0.2c-0.4,0.5-0.8,0.9-0.9,1.5c-0.5,1.3,0,2.2,0.8,2.5c1.1,0.4,2-0.4,2.9-1.7c1.5-1.8,2.8-3,4.8-2.2
				C623.5,446,624.6,448.1,623.5,450.9z"/>
			<path class="st1" d="M624,431.7l-1.5-0.4c-1.3-0.3-1.7,0-2.5,1.4l-0.1,0.1l8.3,4.8c0.1,0.1,0.3,0,0.6-0.4l0.5-0.8l0.8,0.3l-2.9,5
				l-0.6-0.4l0.4-0.8c0.2-0.4,0.2-0.6,0-0.8l-8.3-4.6v0.1c-0.8,1.4-0.9,2,0,2.9l1.2,1.1l-0.6,1.1l-3.2-2.2l5.3-9.3l3.3,2L624,431.7z
				"/>
			<path class="st1" d="M636.2,428.1l-0.6-0.5l0.4-0.6c0.4-0.8,0.1-0.8-1.4-1.4l-1-0.4l-2.3,2.9l0.4,0.8c0.8,1.3,1.3,1.7,2,1.2
				l0.5-0.4l0.6,0.4l-2.6,3.3l-0.6-0.5l0.2-0.4c0.3-0.8,0.4-1.1-1.4-4l-3.3-5.4l-0.6-0.5l0.9-2.2l10.2,3.6c0.4,0.1,0.8,0,1.1-0.3
				l0.6-0.5l0.6,0.4L636.2,428.1z M628.1,423.1L628.1,423.1l2.5,4.2l2-2.5L628.1,423.1z"/>
			<path class="st1" d="M642.7,406.3l-0.5,0.8c-0.3,0.4-0.4,0.8,2,3.2l2,2.2c1.7,2,1.5,4.4-0.6,6.2c-2.1,2-4.4,2.2-6.2,0.2l-4.5-5.2
				c-0.1-0.1-0.2-0.1-0.8,0.2l-0.5,0.3l-0.5-0.5l3.8-3.4l0.4,0.6l-0.4,0.5c-0.3,0.4-0.4,0.6-0.2,0.8l4.1,4.6c1.5,1.7,3,1.7,4.4,0.5
				c1.4-1.3,1.5-2.9,0-4.4l-1.8-2c-2.2-2.5-2.5-2.5-3-2.3l-0.9,0.5l-0.5-0.5l3.2-2.9L642.7,406.3z"/>
			<path class="st1" d="M659.2,406.4c0.6,0.3,0.9,0.3,1.3,0.2l0.5-0.2l0.4,0.6l-3,2l-1.4-0.8l-3.5-2l-0.9,0.6l2,3.3
				c0.1,0.1,0.2,0.1,0.8-0.1l0.5-0.2l0.4,0.6l-4.4,2.8l-0.3-0.6l0.5-0.4c0.4-0.3,0.4-0.5,0.3-0.6l-4.9-7.9c-0.1-0.1-0.2-0.2-0.8,0.1
				l-0.5,0.2l-0.4-0.6l4.5-2.9c2.5-1.7,4.4-1.4,5.3,0.1c0.8,1.2,0.5,2.8-0.5,4.1L659.2,406.4z M650.2,401.4
				c-0.1,0.1-0.8,0.5-0.8,0.5l2.6,4.1l1-0.5c1.1-0.9,1.4-2,0.6-3.3C652.9,400.7,651.5,400.6,650.2,401.4z"/>
			<path class="st1" d="M668.6,403.9l-0.2-0.8l0.6-0.4c0.8-0.4,0.5-0.8-0.5-2l-0.8-0.8l-3.4,1.4l0.1,0.8c0.1,1.5,0.4,2.1,1.1,2
				l0.6-0.1l0.3,0.8l-4,1.7l-0.2-0.8l0.4-0.3c0.8-0.5,0.8-0.8,0.8-4.1l-0.3-6.3l-0.3-0.8l1.8-1.5l7.1,8.2c0.3,0.3,0.6,0.4,1.1,0.3
				l0.8-0.1l0.3,0.8L668.6,403.9z M663.9,395.7l-0.2,0.1l0.3,5l2.9-1.2L663.9,395.7z"/>
			<path class="st1" d="M685.3,388l-0.8,0.4c-0.5,0.2-0.8,0.5,0.1,3.8l1.5,6.9l-1.7,0.4l-8.5-7.4h-0.1l1,4.4c0.8,3.2,1,3.4,1.5,3.4
				h1l0.2,0.8l-4.2,1l-0.1-0.8l0.8-0.4c0.5-0.2,0.8-0.4-0.1-3.8l-1-4.6c-0.1-0.6-0.5-0.9-0.9-1l-0.9-0.1l-0.2-0.8l3.8-0.8l7.7,7h0.1
				l-0.8-3.8c-0.8-3.2-1-3.4-1.5-3.4h-1l-0.2-0.8l4.2-1V388L685.3,388z"/>
			<path class="st1" d="M699.3,390.1l-0.5-1.5c-0.4-1.3-0.9-1.5-2.5-1.4h-0.1l0.4,9.5c0,0.2,0.1,0.3,0.8,0.3h0.9l0.1,0.8l-5.6,0.3
				v-0.8l0.9-0.1c0.5-0.1,0.6-0.2,0.6-0.4l-0.4-9.5h-0.1c-1.7,0.1-2.1,0.3-2.5,1.7l-0.3,1.7l-1.3,0.1l0.2-4l10.7-0.5l0.2,3.8
				L699.3,390.1z"/>
			<path class="st1" d="M719,400.6c-1.3-0.3-2-1.1-2.3-2.5c-1.1,0.9-2.5,1.7-4.2,1.2c-2-0.4-2.9-2-2.6-3.6c0.3-1.7,1.8-2.5,3.2-2.8
				c-1-0.8-1.5-2-1.2-3c0.3-1.7,2.2-2.6,4.4-2.2c1.8,0.4,2.9,1.7,2.6,3c-0.3,1.3-1.4,2-2.9,2.2c1,0.8,1.8,1.8,2.2,2.9
				c0,0,1-0.9,1.1-1.1c0.4-0.5,0.3-0.8-0.1-0.9l-0.4-0.2l0.1-0.8l4.1,0.8l-0.2,0.8h-0.5c-0.5,0-1.2,0.2-1.7,0.8l-2,1.5
				c0.4,1.4,0.6,2.5,1.8,2.8c0.5,0.1,1.1,0,1.5-0.1l0.2,0.5C721.3,400.3,720.2,400.8,719,400.6z M713.7,393.4
				c-0.8,0.4-1.4,1-1.7,1.8c-0.3,1.2,0.5,2.4,1.8,2.8c0.8,0.2,1.8-0.1,2.5-0.8C716.1,395.4,715.1,394.4,713.7,393.4z M715.9,388.4
				c-0.9-0.2-1.7,0.4-1.8,1.2c-0.2,1,0.2,2,1.5,2.8c0.8-0.4,1.3-1.1,1.4-2C717.2,389.5,716.8,388.6,715.9,388.4z"/>
			<path class="st1" d="M750.1,401.9l-0.4-0.1c-0.9-0.2-1.3-0.1-3.6,2.2l-5.3,5.2l-1.7-0.9l1.4-7.4l-0.1-0.1l-5.6,5.3l-1.7-0.9
				l1.7-10.3c0.1-0.4,0-0.8-0.4-1l-0.6-0.5l0.3-0.8l5,2.6l-0.4,0.6l-0.8-0.3c-0.6-0.2-0.8,0.2-1,1.7l-1.3,6.5l0.1,0.1l4.9-4.5
				l0.3-1.3c0.1-0.4,0-0.8-0.4-1l-0.6-0.5l0.3-0.8l5,2.6l-0.4,0.6l-0.8-0.3c-0.6-0.2-0.8,0.2-1,1.7l-1.3,6.5h0.1l3.4-3.4
				c2.1-2.1,2.2-2.8,1.5-3.3l-0.5-0.4l0.3-0.8l4.1,2.1L750.1,401.9z"/>
			<path class="st1" d="M746.2,412.9l0.5-0.5l0.8,0.5c0.4,0.2,0.6,0.3,0.8,0.1l5.6-7.4c0.1-0.1,0.1-0.3-0.4-0.8l-0.6-0.5l0.4-0.6
				l4.4,3.3l-0.5,0.5l-0.8-0.5c-0.4-0.3-0.6-0.2-0.8-0.1l-5.6,7.4c-0.1,0.1-0.1,0.3,0.3,0.6l0.6,0.6l-0.4,0.6L746.2,412.9z"/>
			<path class="st1" d="M769.4,419.5l-0.8-0.5c-0.4-0.3-0.8-0.3-3.2,2l-5,5l-1.2-1.2l2-11.2l-0.1-0.1l-3.2,3.2
				c-2.4,2.3-2.4,2.6-2.1,3l0.6,0.8L756,421l-3-3.2l0.6-0.5l0.8,0.5c0.4,0.3,0.8,0.3,3.2-2l3.4-3.3c0.5-0.4,0.5-0.9,0.4-1.3
				l-0.5-0.9l0.5-0.6l2.6,2.8l-1.8,10.3l0.1,0.1l2.8-2.8c2.4-2.3,2.4-2.6,2.1-3.2l-0.5-0.8l0.5-0.6l3,3.2L769.4,419.5z"/>
			<path class="st1" d="M768.9,437.3l-5.6-8.3l0.6-0.4l0.4,0.5c0.3,0.3,0.5,0.4,0.6,0.3l7.7-5.2c0.1-0.1,0.2-0.2-0.1-0.8l-0.3-0.5
				l0.6-0.5l5.6,8.3l-3.2,2.1l-0.8-1l1-1.2c0.9-1,0.8-1.4-0.9-3.8l-0.5-0.8l-3.5,2.5l0.3,0.4c0.6,0.9,0.9,1.2,1.4,1l1.3-0.3l0.5,0.8
				l-4,2.1l-0.5-0.8l0.9-0.8c0.3-0.3,0.3-0.6-0.4-1.7l-0.2-0.3l-3.8,2.6l0.5,0.8c1.7,2.5,2.1,2.8,3.4,2.4l1.3-0.4l0.8,1.1
				L768.9,437.3z"/>
			<path class="st1" d="M775,450.2l-1.7-4.6l0.8-0.2l0.3,0.6c0.2,0.4,0.4,0.5,0.5,0.5l8.6-3.2c0.2-0.1,0.2-0.2,0.1-0.8l-0.1-0.6
				l0.8-0.3l1.8,4.9c1.2,3.2,0.8,4.6-0.8,5.2c-1.5,0.6-2.9-0.4-3.8-2h-0.1c0.5,2.1,0,3.8-1.5,4.4C777.9,454.6,776.3,453.5,775,450.2
				z M780,447.8l-0.2-0.6l-4.2,1.7l0.2,1l0.1,0.2c0.5,1.3,1.7,2,3,1.5C780.3,451,780.5,449.4,780,447.8z M784.9,446l-0.3-0.8
				l-4.2,1.7l0.4,0.9c0.5,1.4,1.7,1.8,2.9,1.4C784.9,448.7,785.6,447.7,784.9,446z"/>
			<path class="st1" d="M778.7,463.3l0.8-0.1l0.3,0.8c0.3,0.8,0.6,0.6,2-0.2l0.9-0.5l-0.8-3.8l-0.8-0.1c-1.5-0.2-2.1,0-2.1,0.8v0.6
				l-0.8,0.2l-0.8-4.1l0.8-0.1l0.2,0.4c0.4,0.8,0.6,1,4,1.5l6.2,0.9l0.8-0.2l1.1,2.1L781,467c-0.3,0.2-0.5,0.5-0.5,1v0.8l-0.8,0.2
				L778.7,463.3z M787.7,460.4v-0.2l-4.9-0.6l0.6,3.2L787.7,460.4z"/>
			<path class="st1" d="M782,480.2c-0.6,0.4-0.8,0.6-0.8,1l-0.1,0.5l-0.8,0.1l-0.1-3.5l1.4-0.8l3.5-2.1l-0.1-1.1l-3.8,0.1
				c-0.2,0-0.3,0.1-0.3,0.8l-0.1,0.6l-0.8,0.1l-0.2-5.2h0.8l0.1,0.8c0.1,0.5,0.2,0.6,0.4,0.6l9.2-0.3c0.2,0,0.3-0.1,0.3-0.8l0.1-0.6
				l0.8-0.1l0.2,5.3c0.1,3-1,4.5-2.8,4.5c-1.5,0.1-2.6-0.9-3.3-2.5L782,480.2z M790.9,474.9c0-0.1-0.1-0.9-0.1-0.9l-4.9,0.2
				l-0.1,1.1c0.2,1.3,1,2.2,2.6,2.2C790.1,477.4,791,476.5,790.9,474.9z"/>
		</g>
	</g>
	<g>
		<path class="st1" d="M693.2,724.8c-6.2,0-8.1-4.1-8.2-4.1l1.7-0.8c0.1,0.1,1.5,3,6.5,3c1.7,0,3-0.8,4.5-1.5c2-1.1,4.4-2.2,7.7-2.2
			c4.2,0,7.5,3.8,7.7,4.1l-1.4,1.2c0,0-3-3.4-6.3-3.4c-2.9,0-5,1-6.9,2C696.9,723.9,695.4,724.8,693.2,724.8z"/>
	</g>
	<g>
		<path class="st1" d="M693.2,719.7c-6.2,0-8.1-4.1-8.2-4.1l1.7-0.8c0.1,0.1,1.5,3,6.5,3c1.7,0,3-0.8,4.5-1.5c2-1,4.4-2.2,7.7-2.2
			c4.2,0,7.5,3.8,7.7,4.1l-1.4,1.2c0,0-3-3.4-6.3-3.4c-2.9,0-5,1-6.9,2C696.9,718.9,695.4,719.7,693.2,719.7z"/>
	</g>
	<g>
		<path class="st1" d="M693.2,714.3c-6.2,0-8.1-4.1-8.2-4.1l1.7-0.8c0.1,0.1,1.5,3,6.5,3c1.7,0,3-0.8,4.5-1.5c2-1.1,4.4-2.2,7.7-2.2
			c4.2,0,7.5,3.8,7.7,4.1l-1.4,1.2c0,0-3-3.4-6.3-3.4c-2.9,0-5,1-6.9,2C696.9,713.5,695.4,714.3,693.2,714.3z"/>
	</g>
</g>
</svg>
