<?xml version="1.0" encoding="utf-8"?>
<!-- Generator: Adobe Illustrator 21.1.0, SVG Export Plug-In . SVG Version: 6.00 Build 0)  -->
<svg version="1.1" id="Layer_1" xmlns="http://www.w3.org/2000/svg" xmlns:xlink="http://www.w3.org/1999/xlink" x="0px" y="0px"
	 viewBox="0 0 796 796" style="enable-background:new 0 0 796 796;" xml:space="preserve">
<style type="text/css">
	.st0{fill:#283055;}
	.st1{fill:#C6A35D;}
	.st2{fill:#C6A35D;stroke:#C6A35D;stroke-width:0.6171;stroke-miterlimit:10;}
	.st3{fill:#C6A35D;stroke:#283055;stroke-width:0.5795;stroke-miterlimit:10;}
	.st4{fill:none;stroke:#C6A35D;stroke-width:1.2773;stroke-miterlimit:10;}
	.st5{fill:none;stroke:#C6A35D;stroke-width:1.1828;stroke-miterlimit:10;}
	.st6{fill:#C6A35D;stroke:#C6A35D;stroke-width:1.164;stroke-miterlimit:10;}
</style>
<rect x="-0.3" y="0.3" class="st0" width="796.3" height="795.6"/>
<g>
	<path class="st1" d="M222,365.9c3.3,0.3,5.9,1.8,7.8,4.3s2.7,5.6,2.3,9.2c-0.2,2.2-1.3,5.2-3.1,8.9c-0.1,0.3-0.2,0.5-0.2,0.7
		c-0.1,0.6,0.5,1.1,1.8,1.6c0.4,0.1,0.6,0.3,0.6,0.5c0,0.3-0.3,0.4-0.8,0.4c-0.5,0-1.3-0.2-2.5-0.5c-1-0.2-2.1-0.4-3.4-0.6
		c-1-0.1-1.9-0.2-2.5-0.2c-1.2,0-2-0.1-2.2-0.1c-0.6-0.1-0.8-0.3-0.8-0.6c0-0.4,0.8-0.6,2.4-0.7c2.7-0.2,4.9-1.2,6.6-2.8
		c1.8-1.8,2.8-3.7,3-5.9c0.2-1.9-0.3-3.6-1.3-5.1c-1.1-1.5-2.5-2.3-4.3-2.4c-1.5-0.2-2.8,0.2-3.8,0.9c-0.7,0.6-2.2,2.5-4.5,5.9
		c-2.5,3.7-4.8,6.2-7.1,7.4c-2,1.1-4.4,1.5-7,1.3c-3.1-0.3-5.6-1.7-7.4-4.1c-1.8-2.4-2.6-5.3-2.2-8.6c0.2-1.8,0.8-3.7,1.9-5.7
		c0.4-0.7,0.5-1.1,0.6-1.4c0.1-0.5-0.4-0.9-1.3-1.2c-0.3-0.1-0.5-0.3-0.4-0.5c0-0.4,0.3-0.5,0.8-0.5c0.2,0,0.7,0.1,1.5,0.3
		c0.8,0.2,1.5,0.3,2,0.3c1.9,0.2,3.5,0.3,4.8,0.3c0.1,0,0.3,0,0.4,0c0.3,0,0.5,0.2,0.4,0.5c0,0.3-0.6,0.6-1.8,0.8
		c-1.2,0.2-2.4,0.7-3.6,1.4c-1.2,0.7-2.1,1.4-2.7,2.2c-0.8,1-1.2,2.2-1.4,3.7c-0.2,2,0.1,3.7,1,5c0.9,1.3,2.1,2,3.8,2.2
		c1.5,0.1,2.8-0.3,4.1-1.3c1.2-1,2.9-3,5-6c2.6-3.7,4.5-6.1,6-7.2C216.5,366.3,219,365.6,222,365.9z"/>
	<path class="st1" d="M247.7,318.1c0.3,0.1,0.4,0.5,0.1,1.2l-0.1,0.4c-0.3,0.7-0.8,2.1-1.4,4c-0.7,1.9-1.2,3.3-1.5,4.2
		c-0.1,0.4-0.4,1.2-0.9,2.3c-0.4,1.2-1,2.7-1.7,4.7l-0.5,1.3c-0.2,0.5-0.4,0.7-0.7,0.6c-0.3-0.1-0.3-0.4-0.2-0.9l0.6-1.7
		c0.6-1.6,0.7-2.6,0.2-3.2c-0.1-0.2-1.1-0.6-3-1.3L211,319.6c2.4,2.1,6.4,5.2,11.9,9.3l14,10.1c1.7,1.2,2.5,2,2.4,2.4
		c-0.1,0.4-0.7,0.5-1.8,0.5c-0.3,0-4-0.1-11-0.3c-2.6-0.1-10-0.4-22.1-0.8l26.5,9.7c1.5,0.6,2.5,0.9,2.8,0.9c0.3,0.1,0.6,0,0.9-0.2
		c0.6-0.3,1.2-1.1,1.6-2.4c0.4-1.2,0.8-1.8,1.2-1.6c0.2,0.1,0.3,0.4,0.1,0.9l-1.9,4.5c-0.3,0.8-0.6,1.7-0.9,2.7
		c-0.4,1.4-0.7,2.3-0.9,2.8c-0.3,0.7-0.5,1-0.9,0.9c-0.3-0.1-0.3-0.4-0.1-1c0.5-1.4,0.8-2.2,0.8-2.5c0.2-1.1,0.1-1.9-0.5-2.3
		c-0.4-0.3-1.2-0.6-2.5-1.1l-24.4-8.9c-2.7-1-4.4-1.4-5-1.3c-0.6,0.2-1.3,1.3-2,3.4c-0.2,0.5-0.5,0.8-0.8,0.6
		c-0.3-0.1-0.4-0.5-0.1-1l0.5-1.4l3.5-9.6c0-0.1,0.1-0.3,0.3-0.5c10.5,0.5,19.2,0.9,26.1,1.2l-21-15.5l0.4-1.1l2.5-6.7
		c0-0.1,0.1-0.4,0.3-0.9c0.2-0.5,0.4-1,0.5-1.4l0.9-2.3c0.2-0.7,0.5-1,0.8-0.9c0.3,0.1,0.4,0.4,0.2,0.8l-0.4,1.2
		c-0.6,1.4-0.8,2.4-0.6,3c0.2,0.6,0.7,1.1,1.7,1.5c0.3,0.1,0.9,0.3,1.8,0.7c0.9,0.3,5.2,1.9,12.8,4.7l14.2,5.2
		c1.2,0.4,2,0.4,2.5-0.2c0.4-0.6,0.8-1.5,1.3-2.8C247,318.6,247.4,318,247.7,318.1z"/>
	<path class="st1" d="M262.9,295.8c0.3,0.2,0.3,0.5,0,0.8c-0.1,0.2-0.3,0.4-0.4,0.6c-1.3,1.8-2.4,3.3-3.2,4.6
		c-0.9,1.4-2.2,3.4-3.8,6.1c-0.6,0.9-1,1.6-1.2,2c-0.3,0.5-0.6,0.6-0.9,0.4c-0.2-0.1-0.2-0.2-0.1-0.4c0.1-0.2,0.4-0.8,1.1-1.8
		c0.4-1.1,0.5-1.8,0.2-2.2c-0.3-0.4-1.4-1.3-3.5-2.6l-21.8-14.4c-0.6-0.4-1.1-0.7-1.7-1.1c-0.6-0.3-0.8-0.5-0.8-0.5
		c-0.8-0.5-1.6,0-2.6,1.5c-0.6,0.8-0.9,1.2-1.2,1.1c-0.2-0.1-0.3-0.3-0.2-0.4c0.1-0.1,0.3-0.5,0.7-1.2c-0.2,0.3,0.2-0.2,1.1-1.6
		c0.9-1.4,1.7-2.6,2.4-3.6l1.5-2.3c0.3-0.5,0.8-1.2,1.4-2.1c0.6-0.9,1-1.5,1.2-1.9l0.3-0.5c0.3-0.4,0.5-0.5,0.7-0.4
		c0.2,0.1,0.2,0.3,0.2,0.4c0,0.2-0.3,0.6-0.8,1.5c-0.6,1-0.7,1.7-0.6,2.1l0.8,0.7l25.5,16.9c1.3,0.9,2.2,1.2,2.6,1.1
		c0.4-0.1,1.2-1,2.4-2.6C262.5,295.7,262.7,295.7,262.9,295.8z"/>
	<path class="st1" d="M271.9,246.2c0.2,0.2,0.2,0.4,0,0.6c-0.3,0.3-1,0-2.2-0.7c-2.4-1.5-4.4-2.2-5.9-2.1c-1.5,0.1-3.2,1.1-5,2.9
		c-0.7,0.7-1.3,1.3-1.8,1.8l23.3,23.4c0.7,0.6,1.3,0.8,1.8,0.7c0.5-0.2,1.6-0.9,3.2-2.3c0.3-0.3,0.6-0.3,0.8-0.1
		c0.3,0.3,0.2,0.6-0.2,1c-0.1,0.1-0.3,0.3-0.6,0.5c-0.4,0.4-0.7,0.7-1,0.9l-4.1,3.8l-6.3,6.7c-0.4,0.4-0.6,0.4-0.8,0.2
		c-0.2-0.2-0.2-0.3-0.1-0.4c0.1-0.1,0.5-0.6,1.2-1.3c1.4-1.5,1.8-2.5,1.3-3.3c-0.3-0.4-2.9-3-7.7-7.9l-16.3-16.3
		c-0.3,0.3-0.6,0.6-1,1c-2,2-3.2,3.9-3.3,5.6c-0.2,1.7,0.5,3.6,2.2,5.8c0.9,1.3,1.3,2.1,1,2.4c-0.2,0.2-0.5,0.2-0.8-0.1
		c-0.2-0.2-0.9-1-2-2.3c-2.3-2.7-3.9-4.6-4.8-5.5l0.6-0.6l2.8-2.8c0.1-0.1,1-0.9,2.7-2.6c1.7-1.7,3.9-3.8,6.6-6.5
		c1.5-1.5,2.8-2.8,3.9-3.9c1.1-1.2,2.2-2.2,3.1-3.2c0.8-0.8,1.5-1.5,1.9-2c1.7,1.6,4,3.5,6.9,5.8
		C271.5,245.9,271.8,246.1,271.9,246.2z"/>
	<path class="st1" d="M332,240.6c0.1,0.2,0,0.4-0.3,0.5c-0.2,0.1-0.4,0.2-0.6,0.3c-1.2,0.5-4.3,2.2-9.4,5.1
		c-0.5,0.3-1.2,0.7-2.2,1.2l-1.5,0.8c-1,0.6-1.5,0.7-1.7,0.4c-0.2-0.3,0.2-0.6,0.9-1.1c0.7-0.4,1.2-0.9,1.6-1.4
		c0.4-0.5,0.5-1,0.3-1.3c-0.1-0.2-0.3-0.7-0.8-1.6l-1.3-2.3l-6.2-10.9l-9.6,5.5c-0.6,0.3-1.1,0.6-1.6,0.9l8.3,14.6
		c0.5,0.8,1.4,0.9,2.7,0.4c1-0.4,1.7-0.7,1.8-0.7c0.2,0,0.3,0,0.4,0.2c0.1,0.2,0,0.4-0.3,0.6c-0.4,0.2-1.5,0.8-3.3,1.8
		c-1.8,0.9-2.6,1.3-2.3,1.2c-0.2,0.1-1.1,0.7-2.8,1.8c-1.7,1.1-3.3,2-4.9,2.9l-0.5,0.3c-0.6,0.3-0.9,0.3-1.1,0.1
		c-0.1-0.3,0-0.5,0.4-0.8c1.5-0.8,2.4-1.6,2.7-2.3c0.2-0.3-0.2-1.2-1.1-2.7l-14.9-26c-0.6-1-1.2-1.5-1.9-1.3
		c-0.7,0.1-1.6,0.5-2.8,1.2c-0.4,0.2-0.7,0.2-0.8,0c-0.1-0.2,0-0.3,0.4-0.6c-0.1,0.1,1.1-0.6,3.5-2l5.9-3.4c1.2-0.7,2.4-1.4,3.6-2.1
		c0.5-0.3,0.9-0.5,0.9-0.5c0.4-0.3,0.8-0.2,0.9,0.1c0.1,0.2,0.1,0.4,0,0.5c-0.1,0.1-0.6,0.5-1.5,1c-0.9,0.5-1.3,1.1-1.3,1.5
		c0,0.5,0.3,1.2,0.8,2.1l6.3,11.1l1.2-0.5c3.2-1.7,6.5-3.6,10-5.9l-6-10.5c-1.2-2.1-2.6-2.8-4.2-1.9c-1,0.6-1.6,0.7-1.8,0.5
		c-0.1-0.3,0-0.5,0.4-0.7l0.5-0.3c0.5-0.3,1.4-0.8,2.6-1.5c1.3-0.7,2.6-1.5,4.1-2.4l3.6-2l3.5-2c0.3-0.2,0.5-0.2,0.6,0
		c0.1,0.2-0.4,0.7-1.5,1.5c-1.1,0.8-1.7,1.4-1.8,2c-0.1,0.6,0.4,1.6,1.3,3.2l13.3,23.2c1.2,2,2.1,3.1,2.9,3.2
		c0.8,0.1,1.8-0.1,3.1-0.8C331.3,240.2,331.8,240.2,332,240.6z"/>
	<path class="st1" d="M396.9,204.4c0,0.2-1.1,0.5-3.3,0.9c-1.2,0.2-2,0.5-2.3,0.7c-0.3,0.3-0.4,0.9-0.5,1.8c-0.3,5-1.5,9-3.6,12.1
		l0.5,0.5l1.4,1.7l1.4,1.6c0.9,1.1,1.8,1.8,2.7,2.1c0.9,0.3,2.4,0.3,4.6,0.2c0.8-0.1,1.3,0.1,1.3,0.4c0,0.2-0.3,0.4-1,0.5l-3.2,0.4
		c-2.2,0.3-3,0.4-2.6,0.3c-1,0.1-3.4,0.4-7.3,0.9c-0.7-1-1.3-1.8-1.9-2.6c-2.5,2.7-6,4.4-10.4,4.9c-4,0.5-7.3-0.1-10-1.7
		c-2.7-1.6-4.3-4.1-4.7-7.2c-0.3-2.6,0.2-4.9,1.5-6.9c1.3-2,3.7-3.9,7-5.7c-1.5-1.2-2.6-2.1-3.2-2.7c-1.4-1.4-2.3-3.2-2.5-5.3
		c-0.3-2.4,0.4-4.5,2-6.2c1.6-1.7,3.8-2.8,6.7-3.1c2.8-0.4,5.2,0,7.1,1.1c1.9,1.1,3,2.7,3.3,4.8c0.5,3.6-1.7,6.4-6.4,8.4
		c1.8,1.4,4.1,3.5,6.9,6.3c2.8,2.8,4.9,5,6.1,6.5c2.2-3.4,3.1-7.3,2.5-11.8c-0.1-0.9-0.6-1.3-1.6-1.2c-2.8,0.4-4.3,0.4-4.3,0
		c0-0.3,0.5-0.5,1.7-0.7l4.8-0.6l4.6-0.6C395.9,204.1,396.9,204.1,396.9,204.4z M382.1,225.1c-6.6-6.9-11.6-11.9-15-14.9
		c-1.6,1.6-2.2,4.2-1.7,8c0.4,3.1,1.6,5.6,3.8,7.5c2.1,1.9,4.6,2.7,7.3,2.3C378.8,227.8,380.7,226.8,382.1,225.1z M373.9,199.2
		c-0.6-4.5-2-6.6-4.2-6.3c-2.1,0.3-3,1.9-2.6,4.9c0.2,1.4,0.8,2.8,1.7,4.3c1,1.4,2.1,2.6,3.5,3.4
		C373.8,204.3,374.3,202.2,373.9,199.2z"/>
	<path class="st1" d="M465.8,240.5c-0.1,0.3-0.5,0.4-1.2,0.2l-0.4-0.1c-0.8-0.2-2.1-0.6-4-1.2c-1.9-0.6-3.4-1-4.3-1.3
		c-0.4-0.1-1.2-0.3-2.4-0.7c-1.2-0.3-2.8-0.8-4.8-1.4l-1.3-0.4c-0.5-0.1-0.7-0.4-0.6-0.7c0.1-0.3,0.4-0.4,0.9-0.2l1.8,0.5
		c1.6,0.5,2.6,0.5,3.2,0c0.2-0.1,0.5-1.2,1.1-3.1l8.3-28.3c-2,2.6-4.8,6.7-8.4,12.5l-9.2,14.6c-1.1,1.8-1.9,2.6-2.2,2.5
		c-0.4-0.1-0.6-0.7-0.6-1.8c0-0.3-0.2-4-0.4-11c-0.1-2.6-0.3-10-0.6-22.1l-7.9,27c-0.5,1.6-0.7,2.5-0.8,2.8c-0.1,0.3,0,0.6,0.2,0.9
		c0.4,0.6,1.2,1.1,2.5,1.4c1.3,0.3,1.8,0.7,1.7,1.1c-0.1,0.2-0.4,0.3-0.9,0.1l-4.6-1.6c-0.8-0.3-1.7-0.5-2.8-0.7
		c-1.4-0.3-2.4-0.5-2.9-0.7c-0.7-0.2-1-0.5-1-0.8c0.1-0.3,0.4-0.3,1-0.2c1.4,0.4,2.2,0.6,2.5,0.7c1.1,0.2,1.9,0,2.2-0.7
		c0.2-0.4,0.5-1.2,0.9-2.6l7.3-24.9c0.8-2.8,1.1-4.5,0.9-5c-0.2-0.6-1.4-1.2-3.5-1.8c-0.6-0.2-0.8-0.4-0.7-0.7
		c0.1-0.3,0.4-0.4,1-0.2l1.4,0.4l9.8,2.9c0.1,0,0.3,0.1,0.6,0.2c0.2,10.5,0.4,19.2,0.6,26.1l14-22l1.1,0.3l6.9,2
		c0.1,0,0.4,0.1,0.9,0.3c0.5,0.2,1,0.3,1.4,0.4l2.4,0.7c0.7,0.2,1,0.5,0.9,0.7c-0.1,0.3-0.3,0.4-0.8,0.3l-1.2-0.4
		c-1.4-0.5-2.5-0.6-3.1-0.4c-0.6,0.2-1.1,0.8-1.3,1.8c-0.1,0.3-0.3,0.9-0.5,1.8c-0.3,0.9-1.5,5.3-3.8,13.1l-4.2,14.6
		c-0.4,1.3-0.2,2.1,0.3,2.5c0.6,0.4,1.5,0.7,2.9,1.1C465.3,239.8,465.9,240.2,465.8,240.5z"/>
	<path class="st1" d="M489,254.2c-0.2,0.3-0.4,0.3-0.8,0c-0.2-0.1-0.4-0.3-0.6-0.4c-1.8-1.2-3.4-2.1-4.8-2.9
		c-1.4-0.8-3.5-1.9-6.3-3.4c-0.9-0.5-1.6-0.9-2.1-1.1c-0.5-0.3-0.6-0.5-0.5-0.8c0.1-0.2,0.2-0.2,0.4-0.1c0.2,0.1,0.8,0.4,1.9,0.9
		c1.1,0.4,1.8,0.4,2.2,0.1c0.4-0.3,1.2-1.5,2.4-3.7l13-22.7c0.3-0.6,0.7-1.2,1-1.7c0.3-0.6,0.4-0.9,0.4-0.8c0.4-0.8-0.1-1.6-1.7-2.5
		c-0.9-0.5-1.3-0.9-1.1-1.1c0.1-0.2,0.3-0.3,0.4-0.3c0.1,0,0.6,0.3,1.3,0.7c-0.3-0.2,0.3,0.1,1.7,1c1.4,0.8,2.7,1.5,3.7,2.1l2.4,1.4
		c0.5,0.3,1.2,0.7,2.1,1.2c0.9,0.5,1.6,0.9,2,1.1l0.5,0.3c0.4,0.2,0.5,0.5,0.4,0.7c-0.1,0.2-0.2,0.2-0.4,0.2c-0.2,0-0.7-0.3-1.5-0.7
		c-1-0.5-1.7-0.6-2.1-0.4l-0.7,0.8L487,248.6c-0.8,1.3-1.1,2.2-0.9,2.7c0.2,0.4,1.1,1.2,2.7,2.3C489.1,253.8,489.2,254,489,254.2z"
		/>
	<path class="st1" d="M526,272.7c-0.5,0.5-0.8,0.9-1.2,1.3c-1.2,1.1-2,2-2.7,2.8l-2.5,2.9c-3.4-3.2-9.6-8.8-18.8-16.8l-1.7-1.5
		c-1.2-1-1.7-1.7-1.5-1.9c0.2-0.2,0.5-0.2,0.9,0.2c1.4,1.2,2.4,1.7,3.1,1.7c0.4,0,1.1-0.5,2.1-1.6l19.3-22.1
		c0.8-0.9,1.2-1.6,1.3-1.9c0-0.7-0.3-1.3-1-1.9l-1-0.9c-0.3-0.3-0.4-0.5-0.2-0.7c0.2-0.2,0.5-0.1,0.8,0.2c0.2,0.2,0.4,0.4,0.7,0.6
		L534,242c0.1,0.1,0.3,0.3,0.5,0.4c0.3,0.2,0.3,0.5,0.1,0.7c-0.2,0.2-0.7,0.1-1.4-0.6c-1-0.9-1.7-1.3-2.1-1.2
		c-0.4,0.1-1.4,1.1-3.1,3l-8.5,9.7c-1.7,2-5.6,6.5-11.5,13.5c0.5,0.5,1.1,1,1.7,1.6c2.9,2.5,4.9,4.1,6.2,4.9c2,1.1,4,1.3,5.8,0.5
		c0.9-0.4,2.2-1.3,3.9-2.6c0.5-0.4,0.8-0.5,0.9-0.3C526.7,271.7,526.5,272.1,526,272.7z"/>
	<path class="st1" d="M551.2,305.8c-0.6,0.4-1,0.7-1.4,1c-1.4,0.8-2.5,1.5-3.2,2.1l-3.1,2.3c-2.5-3.9-7.3-10.8-14.3-20.7l-1.3-1.9
		c-0.9-1.3-1.3-2-1-2.2c0.3-0.2,0.5-0.1,0.8,0.4c1.1,1.5,2,2.3,2.6,2.4c0.4,0.1,1.2-0.3,2.4-1.1l24-17c1-0.7,1.6-1.2,1.7-1.6
		c0.2-0.7,0-1.4-0.6-2.1l-0.8-1.1c-0.2-0.3-0.2-0.6,0-0.7c0.2-0.2,0.5,0,0.8,0.4c0.2,0.2,0.3,0.5,0.5,0.7l8,11.3
		c0.1,0.1,0.2,0.3,0.3,0.5c0.2,0.3,0.2,0.5,0,0.7c-0.3,0.2-0.7-0.1-1.2-0.9c-0.8-1.1-1.4-1.6-1.8-1.6c-0.4,0-1.6,0.7-3.7,2.2
		l-10.5,7.5c-2.2,1.5-6.9,5-14.4,10.5c0.4,0.6,0.8,1.2,1.3,1.9c2.2,3.1,3.8,5.2,4.9,6.2c1.7,1.6,3.6,2.2,5.5,1.8
		c1-0.2,2.5-0.7,4.4-1.6c0.5-0.2,0.9-0.3,1-0.1C552.1,305,551.8,305.3,551.2,305.8z"/>
	<path class="st1" d="M568.4,344.5c-0.1,0-1.6,0.6-4.7,1.8c-1.6,0.6-2.8,1-3.5,1.3c-0.7,0.3-1.1,0.4-1,0.4
		c-3.1-9.1-6.1-16.9-8.9-23.5l-1.7-4.2c-0.2-0.6-0.2-1,0-1.1c0.2-0.1,0.3,0,0.4,0.1c0.1,0.1,0.3,0.6,0.8,1.5c0.7,1.5,1.5,2.2,2.4,2
		c0.5-0.1,1-0.3,1.5-0.5l25.6-10.1c2-0.8,3.1-1.3,3.3-1.4c0.5-0.2,0.8-0.6,0.9-0.9c0.1-0.4-0.1-1-0.4-2c-0.4-1-0.5-1.6-0.2-1.7
		c0.3-0.1,0.7,0.3,1.1,1.2s0.9,2.2,1.6,3.8c2.6,6.1,4.6,11.2,6.1,15.2l1.4,3.4c0.3,0.7,0.7,1.6,1.2,2.7l-5.3,2.6
		c-1.7,0.9-2.7,1.4-3.1,1.5c-0.3,0.1-0.6,0-0.7-0.3c-0.1-0.3,0.2-0.7,1.1-1.2c2.2-1.2,3.5-2.8,4-4.8c0.4-2,0.1-4.5-1.2-7.6
		c-0.4-0.9-1.1-2.5-2.1-4.8l-14.9,5.9c1.4,3.7,2.6,6,3.6,6.7c0.9,0.7,2.6,0.8,5.1,0.2c1.3-0.3,2-0.3,2.2,0c0.1,0.3-0.1,0.6-0.7,0.8
		c-0.6,0.2-1.9,0.7-3.8,1.3c-0.7,0.2-1.5,0.5-2.6,1c-2.9,1.1-5.1,2-6.5,2.7c-0.2,0.1-0.4,0.2-0.7,0.4c-0.4,0.2-0.7,0.1-0.8-0.2
		c-0.1-0.2-0.1-0.4,0-0.5c0.1-0.1,0.6-0.4,1.5-1c2.3-1.3,3.6-2.3,3.9-3.2c0.4-0.8,0.1-2.3-0.7-4.4l-1.4-3.5l-17,6.7l1.3,3.2
		c1.5,3.7,2.5,5.9,2.9,6.7c0.5,1,1.3,1.8,2.3,2.5c1,0.6,2,0.9,2.9,0.9c0.9,0,2.5-0.2,4.7-0.7c0.5-0.1,0.9,0,1,0.2
		C569.1,344.1,568.9,344.3,568.4,344.5z"/>
	<path class="st1" d="M568.9,391.6c-2,0.3-3.2-0.9-3.5-3.5c-0.4-3.3,0.3-6.1,2.1-8.3c1.4-1.8,3-2.9,4.8-3.3l4.4-1.1
		c2.8-0.7,4.6-1.6,5.6-2.7c1-1.1,1.3-2.7,1-4.8l-12.3,1.6c-2.8,0.4-4.4,0.6-4.6,0.7c-0.6,0.1-1,0.4-1.2,0.9c-0.2,0.5-0.2,1.5,0,2.9
		c0.1,0.9,0,1.3-0.3,1.4c-0.3,0-0.5-0.2-0.5-0.6l-0.7-5.2l-0.1-0.9c-0.1-0.6-0.2-1.3-0.2-1.8l-0.5-3.9c0-0.4-0.1-0.8-0.2-1.2
		c-0.1-0.4-0.1-0.6-0.1-0.8l-0.3-2.5c-0.1-0.5,0-0.8,0.3-0.8c0.3,0,0.6,0.7,0.8,2.1c0.2,1.2,0.6,1.9,1.1,2c0.3,0.1,1,0,2.3-0.1
		l27.8-3.6c1.9-0.2,3-0.4,3.3-0.5c0.3-0.1,0.6-0.4,0.7-0.8c0.1-0.5,0.2-1.4,0-2.5c-0.1-0.8,0-1.2,0.3-1.2c0.3,0,0.4,0.1,0.5,0.4
		c0.1,0.3,0.2,1.2,0.4,2.6l0.1,1c0.1,0.6,0.2,1.3,0.2,1.9l0.2,1.8c0,0,0.1,0.4,0.1,1.1c0.1,0.7,0.2,1.3,0.3,1.9l0.4,3.1
		c0.7,5,0.7,8.5,0.2,10.4c-0.4,1.5-1.2,2.8-2.4,3.8c-1.1,1-2.5,1.6-4,1.8c-3.4,0.5-6.2-1-8.4-4.4c-0.9-1.5-1.8-3.8-2.5-6.8l-0.3,0
		c0.3,3.9-0.4,6.9-2,8.9c-1.6,2-4.4,3.4-8.4,4.3c-3.2,0.7-5.2,1.4-5.9,2.1c-0.7,0.7-1,1.4-1,2c0.1,0.5,0.2,0.8,0.5,0.8
		c0.1,0,0.3-0.3,0.5-0.7c0.2-0.4,0.5-0.7,1-0.8c1-0.1,1.5,0.3,1.7,1.4C570.6,390.8,570.1,391.5,568.9,391.6z M594.3,374.4
		c4.6-0.6,6.7-2.7,6.2-6.4c-0.2-1.2-0.6-1.9-1.5-2.1c-0.5-0.1-2.5,0.1-5.9,0.5l-8.9,1.2c0.3,2.8,1.3,4.7,2.9,5.8
		C588.7,374.5,591.1,374.9,594.3,374.4z"/>
</g>
<g>
	<path class="st1" d="M271.3,511.7c-1.2,1.1-2.7,1.4-4.3,0.9c-1-0.3-1.9-1-2.8-2c-0.4-0.4-0.7-1-1.1-1.6l-5.5,4.7
		c-0.3,0.3-0.5,0.4-0.5,0.5c-0.1,0.2-0.1,0.5,0,0.7c0.3,0.4,0.5,0.8,0.8,1.1c0.1,0.1,0.1,0.3,0,0.3c-0.1,0.1-0.3,0.1-0.4-0.1
		c-0.1-0.1-0.1-0.1-0.2-0.2c-0.6-0.7-1.7-2-3.4-4l-0.2-0.3c-0.3-0.4-0.4-0.6-0.3-0.7c0.1-0.1,0.3,0,0.5,0.3c0.5,0.6,0.9,0.9,1.1,0.9
		c0.1,0.1,0.3,0,0.5-0.2l11.4-9.7c0.4-0.3,0.6-0.7,0.5-1c-0.1-0.2-0.2-0.4-0.5-0.7l-0.2-0.2c0,0-0.1-0.1-0.1-0.1
		c-0.2-0.2-0.2-0.3-0.1-0.4c0.1-0.1,0.3,0,0.6,0.4l3.6,4.2c1.2,1.5,1.9,2.8,2,3.9C272.9,509.7,272.4,510.8,271.3,511.7z
		 M269.6,509.7c1.9-1.7,2.2-3.3,0.8-4.9c-0.5-0.5-0.9-0.8-1.2-0.8c-0.1,0-0.4,0.1-0.7,0.4l-5.2,4.4c0.1,0.1,0.2,0.2,0.3,0.4
		c0.7,0.8,1.5,1.4,2.4,1.7C267.2,511.1,268.3,510.8,269.6,509.7z"/>
	<path class="st1" d="M277,534.9c-0.5,0.5-1.2,0.4-2-0.4c-1-0.9-1.3-2-1.1-3.3c0.1-0.6,0.3-1,0.5-1.4c0.2-0.4,0.9-1.3,2-2.7
		c0.7-0.9,0.9-1.6,0.8-2.4c-0.1-0.7-0.7-1.6-1.6-2.5l-5.5,5.8c-0.2,0.2-0.2,0.6,0.2,1c0.1,0.1,0.4,0.4,0.8,0.8
		c0.2,0.2,0.2,0.3,0.1,0.4c-0.1,0.1-0.3,0.1-0.5-0.1l-0.2-0.2c-0.1-0.1-0.6-0.6-1.6-1.5c-0.2-0.2-0.5-0.5-0.9-0.9
		c-0.4-0.4-0.7-0.7-0.8-0.8l-0.7-0.7c-0.3-0.3-0.4-0.4-0.2-0.5c0.1-0.1,0.3,0,0.7,0.4c0.6,0.5,1,0.8,1.1,0.7c0.1,0,0.4-0.2,0.8-0.6
		l9.6-10.2c0.5-0.5,0.7-0.8,0.7-1c0-0.2-0.3-0.6-0.8-1.1c-0.3-0.3-0.4-0.5-0.3-0.6c0.1-0.1,0.3-0.1,0.5,0.1c0,0,0.1,0.1,0.1,0.2
		l2.4,2.4c0.2,0.2,0.6,0.5,1.1,0.9c0.5,0.4,0.9,0.7,1.1,0.9c1.1,1.1,1.8,2.2,2,3.3c0.2,1.1-0.1,2.1-1,3c-0.8,0.9-1.8,1.2-3,1.2
		c-1.2-0.1-2.5-0.6-3.7-1.7c-0.1-0.1-0.2-0.1-0.2-0.1c0,0,0,0.1,0.1,0.2c1.1,1.4,1.5,2.7,1.4,3.9c-0.2,1.1-1,2.7-2.5,4.6
		c-0.9,1.1-1,1.9-0.4,2.5c0.2,0.2,0.3,0.2,0.4,0.2c0,0,0,0,0-0.1c0.1-0.2,0.1-0.3,0.2-0.4c0.2-0.3,0.5-0.3,0.8,0
		C277.3,534.3,277.3,534.6,277,534.9z M281.9,522.1c1.7-1.8,1.7-3.3,0.2-4.8c-0.4-0.4-0.7-0.6-1-0.6c-0.3,0-0.5,0.1-0.8,0.4
		l-4.4,4.7c1.2,1.1,2.2,1.7,3.2,1.8C280,523.5,281,523.1,281.9,522.1z"/>
	<path class="st1" d="M295.9,545.3c0,0.1-0.3,0.4-0.8,1c-0.5,0.6-0.9,1.2-1.3,1.7l-0.5,0.7c-1.3-1.1-3.9-3.1-7.8-6
		c-0.5-0.4-0.9-0.7-1.4-1c-0.5-0.3-0.8-0.6-0.9-0.7l-0.2-0.2c-0.3-0.2-0.3-0.3-0.3-0.5c0.1-0.1,0.1-0.1,0.2,0c0,0,0.3,0.2,0.8,0.5
		c0.4,0.2,0.6,0.3,0.8,0.3c0.2-0.1,0.4-0.4,0.8-0.9l8.5-11.5c0.3-0.4,0.4-0.7,0.3-0.8c-0.1-0.2-0.4-0.5-1-0.9
		c-0.2-0.2-0.3-0.3-0.2-0.4c0.1-0.1,0.3-0.1,0.6,0.2l3.5,2.6c0.1,0.1,0.9,0.7,2.3,1.7c1.4,1,2.4,1.7,2.8,2.1
		c0.4,0.3,0.8,0.6,1.2,0.7c-0.4,0.6-0.9,1.5-1.6,2.6l-0.6,0.9c0,0.1-0.1,0.2-0.2,0.3c-0.1,0.1-0.2,0.2-0.3,0.1
		c-0.1-0.1-0.1-0.4,0.1-0.8c0.7-1.4,0.8-2.5,0.5-3.3c-0.3-0.6-1.3-1.5-3.1-2.9l-1.7-1.2l-4.4,6l0.5,0.4c1.5,1.1,2.5,1.7,3,1.7
		c0.5,0,1.2-0.5,2.2-1.5c0.2-0.3,0.4-0.4,0.5-0.3c0.1,0.1,0.1,0.3,0,0.5c-0.2,0.2-0.5,0.6-0.8,1c-0.4,0.5-0.7,0.8-0.8,1
		c-1.1,1.5-1.8,2.5-2.2,3c-0.1,0.1-0.2,0.3-0.2,0.4c-0.1,0.2-0.3,0.2-0.4,0.1c-0.1-0.1-0.1-0.2-0.1-0.3c0.1-0.1,0.3-0.6,0.7-1.3
		c0.5-0.9,0.5-1.6,0.1-2.2c-0.2-0.3-0.8-0.8-1.8-1.5l-0.9-0.7l-5.1,6.8c3,2.2,4.8,3.4,5.4,3.7c1,0.5,2.2,0,3.4-1.4
		c0.3-0.3,0.5-0.4,0.6-0.3C296.1,544.8,296.1,545,295.9,545.3z"/>
	<path class="st1" d="M316.5,561.9c-0.1,0.1-0.3,0.1-0.6-0.1l-0.2-0.1c-0.2-0.1-0.6-0.3-1.1-0.6c-0.5-0.3-1-0.5-1.3-0.7
		c-0.4-0.2-1-0.5-1.5-0.9c-0.6-0.3-1-0.6-1.2-0.7l-0.2-0.1c-0.3-0.2-0.4-0.3-0.4-0.5c0.1-0.1,0.3-0.1,0.8,0.1
		c0.8,0.4,1.3,0.6,1.5,0.5c0.1,0,0.4-0.5,0.9-1.4l6.4-11.5c0,0-0.2,0.2-0.7,0.6c-1.6,1.5-3.9,3.7-7.1,6.6l-3,2.9
		c-0.6,0.6-0.9,0.8-1,0.8c-0.1-0.1-0.1-0.3,0-0.7c0.3-1.6,1-5.6,2-12.1l0.4-2.9c-0.2,0.3-0.4,0.7-0.6,1.2l-4,7.2
		c-1.5,2.7-2.2,4.1-2.2,4.1c0,0.2,0.3,0.5,0.9,0.9c0.5,0.3,0.7,0.5,0.6,0.6c-0.1,0.2-0.3,0.2-0.6,0c-0.2-0.1-0.4-0.2-0.5-0.3
		c-0.2-0.1-0.4-0.3-0.5-0.4l-2.6-1.3c-0.3-0.1-0.4-0.3-0.3-0.4c0.1-0.1,0.5,0,1.4,0.5c0.4,0.2,0.6,0.3,0.7,0.2
		c0.1-0.1,0.4-0.5,0.7-1.1l5.9-10.6c0.7-1.2,1-1.9,1.1-2c0.1-0.2,0-0.4-0.1-0.6c-0.2-0.2-0.5-0.5-1.1-0.9c-0.2-0.1-0.3-0.3-0.2-0.4
		c0.1-0.2,0.4-0.1,0.8,0.1c0.1,0,0.2,0.1,0.4,0.2l1.2,0.6c0.9,0.5,1.5,0.8,1.9,1c0,0.2-0.3,1.6-0.7,4.2c-0.2,1.1-0.7,4.2-1.5,9.3
		c0.8-0.8,1.6-1.6,2.4-2.4l6.4-6c0.4-0.3,0.7-0.6,1-0.8l3.3,1.8c0.5,0.3,0.7,0.4,0.8,0.5c0,0.1,0,0.2,0,0.3c-0.1,0.1-0.2,0.2-0.5,0
		c-0.4-0.2-0.7-0.4-0.9-0.4c-0.4-0.1-0.7-0.2-0.9-0.1c-0.1,0.1-0.7,0.9-1.6,2.5l-5.7,10.3c-0.3,0.6-0.5,1-0.4,1.1
		c0.1,0.2,0.6,0.6,1.3,1l0.1,0.1C316.4,561.7,316.5,561.8,316.5,561.9z"/>
	<path class="st1" d="M329.8,567.6c-0.1,0.1-0.2,0.2-0.4,0.1l-0.2-0.1c-0.1-0.1-1.1-0.6-3.1-1.4c-0.4-0.2-0.8-0.3-1.2-0.4
		c-0.2-0.1-0.5-0.2-0.9-0.4c-0.2-0.1-0.3-0.2-0.2-0.3c0.1-0.1,0.3-0.1,0.7,0c0.6,0.2,1,0.3,1.2,0.2c0.2-0.1,0.4-0.5,0.7-1.3
		l5.2-12.3c0.3-0.8,0.5-1.2,0.4-1.3c0-0.2-0.4-0.5-1.2-0.8c-0.3-0.1-0.4-0.3-0.4-0.4c0.1-0.1,0.2-0.1,0.4-0.1l3.2,1.3
		c0.2,0.1,0.7,0.3,1.4,0.6l0.9,0.4c0.3,0.1,0.3,0.2,0.3,0.4c0,0.1-0.4,0-1.1-0.2c-0.4-0.1-0.7-0.2-0.8-0.1c-0.1,0.1-0.3,0.4-0.5,0.9
		l-5.2,12.5c-0.4,0.9-0.5,1.4-0.5,1.5c0.1,0.2,0.6,0.6,1.4,0.9C329.8,567.4,329.9,567.5,329.8,567.6z"/>
	<path class="st1" d="M357.6,558.8c0,0.1-0.2,0.2-0.5,0.1c0,0-0.2-0.1-0.5-0.1c-0.1,0-0.2-0.1-0.3-0.1c-0.4-0.1-0.7-0.1-0.8,0.1
		c-0.1,0.1-0.1,0.3-0.2,0.5l-2.7,9.1c-0.7,2.4-1.7,3.9-2.9,4.7c-1.2,0.8-2.8,0.9-4.7,0.3c-2.3-0.7-3.8-1.9-4.3-3.5
		c-0.4-1.1-0.2-2.6,0.4-4.7l2.9-9.7c0-0.3-0.1-0.5-0.4-0.7c-0.1,0-0.4-0.1-0.9-0.3c-0.3-0.1-0.4-0.2-0.3-0.4c0-0.1,0.2-0.2,0.4-0.1
		l0.4,0.1c0.1,0,0.3,0.1,0.6,0.2c0.3,0.1,0.5,0.1,0.7,0.2l3.5,1c0.1,0,0.2,0.1,0.3,0.1c0.3,0.1,0.4,0.2,0.3,0.4
		c0,0.1-0.1,0.2-0.2,0.1c-0.1,0-0.4-0.1-1-0.2c-0.2-0.1-0.4-0.1-0.5-0.1c-0.2,0-0.3,0.1-0.4,0.3c0,0.1-0.2,0.5-0.4,1.4l-2.6,8.7
		c-0.6,2.1-0.7,3.7-0.3,4.7c0.4,1,1.3,1.7,2.7,2.1c2.5,0.7,4.3-0.2,5.4-2.9c0.2-0.4,0.7-2.2,1.7-5.3l0.4-1.4l0.6-1.9l0.5-1.7
		c0-0.2,0.1-0.3,0.2-0.5c0.1-0.2,0.1-0.3,0.1-0.3c0.1-0.4,0-0.6-0.3-0.8c-0.1-0.1-0.4-0.2-1-0.3c-0.3-0.1-0.5-0.2-0.4-0.4
		c0-0.1,0.2-0.2,0.4-0.1c0.1,0,0.2,0.1,0.3,0.1c0.2,0.1,0.9,0.3,2.1,0.6c0.2,0.1,0.4,0.1,0.6,0.2c0.2,0.1,0.4,0.1,0.5,0.1l0.4,0.1
		C357.5,558.5,357.7,558.7,357.6,558.8z"/>
	<path class="st1" d="M378.9,580c0,0.1-0.2,0.2-0.6,0.1l-0.3,0c-0.2,0-0.7-0.1-1.3-0.2c-0.6-0.1-1.1-0.2-1.4-0.2
		c-0.5-0.1-1.1-0.2-1.7-0.3c-0.7-0.1-1.1-0.2-1.3-0.2l-0.2,0c-0.3-0.1-0.5-0.2-0.5-0.3c0-0.2,0.3-0.2,0.8-0.1c0.9,0.1,1.4,0.1,1.6,0
		c0.1-0.1,0.2-0.6,0.4-1.7l2-13c0,0-0.1,0.3-0.4,0.8c-1,1.9-2.4,4.8-4.3,8.6l-1.8,3.8c-0.4,0.7-0.6,1.1-0.7,1.1
		c-0.1,0-0.2-0.2-0.3-0.7c-0.2-1.6-1-5.6-2.3-12l-0.6-2.8c0,0.3-0.1,0.8-0.2,1.3l-1.3,8.1c-0.5,3.1-0.7,4.6-0.6,4.6
		c0.1,0.2,0.5,0.4,1.1,0.5c0.6,0.1,0.8,0.2,0.8,0.4c0,0.2-0.2,0.2-0.6,0.2c-0.2,0-0.4-0.1-0.6-0.1c-0.2-0.1-0.4-0.1-0.6-0.1
		l-2.9-0.3c-0.3,0-0.4-0.1-0.4-0.3c0-0.2,0.5-0.2,1.5-0.1c0.4,0.1,0.6,0,0.7-0.1c0.1-0.1,0.2-0.6,0.3-1.3l1.9-12
		c0.2-1.4,0.3-2.1,0.3-2.3c0-0.2-0.1-0.4-0.4-0.5c-0.2-0.1-0.7-0.3-1.4-0.4c-0.3-0.1-0.4-0.2-0.4-0.3c0-0.2,0.3-0.2,0.8-0.2
		c0.1,0,0.2,0,0.4,0.1l1.3,0.2c1,0.2,1.7,0.3,2.1,0.3c0,0.2,0.3,1.6,0.8,4.2c0.2,1.1,0.8,4.1,1.8,9.3c0.5-1,1-2.1,1.5-3.1l4-7.8
		c0.2-0.4,0.4-0.8,0.6-1.1l3.7,0.6c0.5,0.1,0.9,0.2,0.9,0.2c0.1,0.1,0.1,0.1,0.1,0.2c0,0.2-0.2,0.2-0.5,0.2c-0.5-0.1-0.8-0.1-1-0.1
		c-0.4,0-0.7,0.1-0.9,0.3c-0.1,0.1-0.3,1.1-0.6,2.9l-1.8,11.7c-0.1,0.7-0.1,1.1,0,1.2c0.2,0.2,0.7,0.3,1.6,0.5l0.2,0
		C378.8,579.7,378.9,579.8,378.9,580z"/>
	<path class="st1" d="M410.3,578.6c0,0.4,0,1.2,0,2.2l-0.3,0c-0.1,0-0.3,0-0.7,0c-0.4,0-0.8,0-1.3,0l-10.5,0.2
		c-0.3,0-0.4-0.1-0.4-0.2c0-0.1,0.2-0.2,0.7-0.2c0.6-0.1,1-0.1,1.1-0.2c0.1-0.1,0.2-0.4,0.2-1l-0.4-14.2c0-0.6-0.1-1-0.2-1.1
		c-0.1-0.1-0.6-0.1-1.4-0.1c-0.3,0-0.5-0.1-0.5-0.3c0-0.2,0.1-0.2,0.3-0.2l0.2,0c0.6,0,1.7,0,3.3,0c0.2,0,0.4,0,0.9-0.1
		c0.4,0,0.8-0.1,1.1-0.1l0.3,0c0.3,0,0.5,0.1,0.5,0.2c0,0.1,0,0.2-0.1,0.2c-0.1,0-0.4,0.1-0.9,0.1c-0.5,0-0.8,0.1-0.9,0.3
		c-0.1,0.1-0.1,0.6-0.1,1.3l0.4,14.9c0.5,0,1.1,0,1.9,0c2-0.1,3.4-0.2,4.2-0.4c0.8-0.2,1.3-0.6,1.6-1.2c0.3-0.6,0.4-1.3,0.4-2.3
		c0-0.2,0.1-0.3,0.3-0.3c0.2,0,0.3,0.1,0.3,0.4l0,0.6c0,0,0,0.1,0,0.2c0,0.1,0,0.2,0,0.4L410.3,578.6z"/>
	<path class="st1" d="M431.2,573.9c0,0.1,0.1,0.5,0.1,1.2c0.1,0.8,0.2,1.5,0.3,2.2l0.1,0.8c-1.7,0.1-4.9,0.6-9.7,1.3
		c-0.6,0.1-1.2,0.2-1.7,0.3c-0.6,0.1-1,0.1-1.2,0.2l-0.3,0c-0.3,0-0.5,0-0.5-0.1c0-0.1,0-0.1,0.1-0.2c0.1,0,0.4-0.1,0.9-0.2
		c0.4-0.1,0.7-0.2,0.7-0.4c0.1-0.2,0.1-0.6,0-1.2l-2.1-14.1c-0.1-0.5-0.2-0.8-0.3-0.8c-0.2-0.1-0.6-0.1-1.4,0.1
		c-0.3,0-0.4,0-0.4-0.2c0-0.1,0.2-0.2,0.5-0.3l4.3-0.6c0.2,0,1.1-0.2,2.8-0.4c1.7-0.3,2.9-0.4,3.5-0.5c0.5-0.1,1-0.2,1.4-0.3
		c0.1,0.7,0.4,1.7,0.7,2.9l0.3,1.1c0,0.1,0.1,0.2,0.1,0.3c0,0.2,0,0.3-0.2,0.3c-0.2,0-0.3-0.2-0.5-0.6c-0.5-1.5-1.2-2.3-2-2.6
		c-0.6-0.2-2-0.2-4.3,0.2l-2.1,0.3l1.1,7.4l0.6-0.1c1.9-0.3,3-0.6,3.4-0.9c0.4-0.3,0.5-1.2,0.5-2.6c0-0.4,0-0.5,0.2-0.6
		c0.2,0,0.3,0.1,0.3,0.4c0,0.3,0.1,0.7,0.1,1.3c0.1,0.6,0.1,1,0.1,1.3c0.3,1.8,0.5,3,0.6,3.7c0,0.2,0.1,0.3,0.1,0.4
		c0,0.2,0,0.3-0.2,0.4c-0.1,0-0.2,0-0.3-0.2c-0.1-0.1-0.2-0.6-0.4-1.4c-0.3-1-0.8-1.5-1.5-1.6c-0.3-0.1-1.1,0-2.4,0.2l-1.1,0.2
		l1.2,8.4c3.7-0.5,5.8-0.9,6.4-1.2c1.1-0.4,1.5-1.6,1.4-3.4c0-0.4,0.1-0.6,0.2-0.7C431,573.4,431.1,573.5,431.2,573.9z"/>
	<path class="st1" d="M455.5,571.8c0,0.1-0.1,0.2-0.3,0.3c-0.2,0-0.3,0.1-0.4,0.1l-3.1,0.7l-3.1,0.9c-0.1,0-0.2,0.1-0.4,0.1
		c-0.3,0.1-0.5,0-0.6-0.1c-0.1-0.2,0.1-0.3,0.6-0.5c1.4-0.4,2.1-0.7,2-1c0,0,0-0.1-0.1-0.2l-0.4-0.6l-0.2-0.3
		c-0.3-0.5-0.9-1.5-2-3.1l-5.2,1.4c-0.3,2.9-0.3,4.5-0.2,4.9c0.1,0.2,0.2,0.3,0.4,0.3c0.1,0,0.5-0.1,1.2-0.2
		c0.5-0.1,0.7-0.1,0.8,0.1c0,0.2-0.1,0.3-0.6,0.4c-0.7,0.2-1.6,0.4-2.6,0.6c-0.2,0.1-0.5,0.1-0.8,0.2c-0.3,0.1-0.5,0.2-0.7,0.3
		c-0.1,0.1-0.2,0.1-0.3,0.1c-0.2,0.1-0.4,0-0.4-0.1c0-0.1,0.2-0.3,0.7-0.5c0.5-0.2,0.9-0.3,1-0.5c0.2-0.2,0.3-0.5,0.3-0.9
		c0.5-6.6,0.8-11.9,1.2-15.9c0-0.2,0-0.4,0.1-0.7l0-0.5c0-0.2,0-0.3,0.1-0.3c0,0,0.1,0,0.2,0.1c0.4,0.6,1.2,1.8,2.5,3.6
		c1,1.4,3.6,5,7.6,10.7c0.2,0.3,0.5,0.5,0.7,0.6c0.2,0,0.7,0,1.3-0.2C455.2,571.7,455.5,571.7,455.5,571.8z M447.3,567.8
		c-0.5-0.7-1.2-1.8-2.3-3.3l-2.1-3.1c-0.2,2-0.4,4.6-0.6,7.7L447.3,567.8z"/>
	<path class="st1" d="M468.9,552.8c0.1,0.2,0,0.3-0.2,0.4c-0.2,0.1-0.4-0.1-0.6-0.5c-0.1-0.3-0.3-0.5-0.4-0.8
		c-0.3-0.5-0.7-0.9-1.1-1.2c-0.5-0.4-1.2-0.5-2-0.3c-0.5,0.1-0.9,0.2-1.2,0.4c-0.7,0.3-1.2,0.5-1.3,0.6l5.7,14.2
		c0.2,0.6,0.5,0.9,0.9,0.9c0.2,0,0.6-0.1,1.4-0.4c0.2-0.1,0.3,0,0.4,0.1c0.1,0.1,0,0.3-0.3,0.4c-0.1,0.1-0.2,0.1-0.3,0.1
		c-1,0.3-1.6,0.6-2,0.8c-0.5,0.2-1,0.4-1.4,0.6c-0.4,0.2-1,0.5-1.7,0.7c-0.4,0.1-0.6,0.2-0.6,0c-0.1-0.1,0.2-0.4,0.9-0.6
		c0.5-0.2,0.8-0.4,0.8-0.7c0-0.2-0.1-0.5-0.3-1l-5.6-14.1c-1.5,0.6-2.5,1.1-2.8,1.4c-0.8,0.8-1,2-0.6,3.6c0.1,0.5,0.1,0.8,0,0.8
		c-0.2,0.1-0.3-0.1-0.5-0.4c-0.1-0.2-0.1-0.3-0.2-0.5l-0.2-0.6c-0.2-0.7-0.6-1.7-0.9-2.9l1.1-0.4l4.8-1.8c0.6-0.2,1.4-0.6,2.6-1.1
		l3.9-1.6c0.4,0.9,1,2.1,1.9,3.8c0,0,0.1,0.1,0.1,0.2C468.8,552.8,468.9,552.8,468.9,552.8z"/>
	<path class="st1" d="M495.5,553.2c0.1,0.1,0,0.3-0.3,0.4l-3,1.7c-0.2,0.1-0.5,0.3-0.9,0.5c-0.4,0.2-0.7,0.4-0.9,0.5
		c-0.3,0.2-0.5,0.2-0.5,0.1c-0.1-0.1,0.2-0.4,0.9-0.8c0.3-0.2,0.5-0.4,0.5-0.5c0-0.1-0.2-0.5-0.5-1.1l-3.6-6.4l-6.7,3.7l3.5,6.3
		c0.4,0.7,0.6,1,0.8,1.1c0.2,0.1,0.6-0.1,1.2-0.3c0.4-0.2,0.6-0.2,0.7-0.1c0.1,0.1,0,0.3-0.3,0.4l-0.2,0.1c-0.4,0.2-0.7,0.4-1.1,0.6
		c-0.4,0.2-0.6,0.3-0.7,0.4c-0.2,0.1-0.5,0.3-0.9,0.5c-0.4,0.2-1,0.6-1.9,1c-0.3,0.2-0.5,0.2-0.5,0.1c-0.1-0.1,0-0.3,0.3-0.5
		c0.2-0.1,0.4-0.2,0.6-0.4c0.3-0.2,0.5-0.4,0.5-0.6c0-0.1-0.2-0.5-0.6-1.3l-6.5-11.7c-0.4-0.7-0.6-1-0.8-1.1c-0.1-0.1-0.4,0-0.8,0.2
		c-0.5,0.2-0.8,0.4-0.8,0.4c-0.1,0-0.2,0-0.2-0.1c-0.1-0.1,0-0.2,0.2-0.3c0.1,0,0.2-0.1,0.4-0.2c0.4-0.2,1.3-0.6,2.6-1.4
		c0.8-0.4,1.3-0.7,1.6-0.9c0.1-0.1,0.2-0.2,0.4-0.3c0.3-0.1,0.4-0.1,0.5,0c0.1,0.1-0.1,0.3-0.6,0.6c-0.5,0.3-0.7,0.5-0.8,0.6
		c0,0.2,0.1,0.5,0.4,1.1l2.8,5.1l6.7-3.7l-2.7-4.8c-0.4-0.8-0.8-1.2-0.9-1.3c-0.2-0.1-0.6,0.1-1.3,0.5c-0.2,0.1-0.4,0.1-0.4,0
		c-0.1-0.1,0-0.3,0.3-0.4l0.1-0.1c0.2-0.1,0.6-0.3,1.1-0.6c0.5-0.3,0.9-0.5,1.2-0.7c0.9-0.5,1.5-0.8,1.8-1c0.3-0.2,0.5-0.3,0.6-0.3
		c0.3-0.2,0.5-0.2,0.6-0.1c0.1,0.1-0.2,0.4-0.8,0.8c-0.2,0.1-0.3,0.2-0.4,0.3c-0.1,0.1-0.2,0.3-0.1,0.4c0,0.1,0.2,0.5,0.5,1.1
		l6.6,11.8c0.4,0.7,0.7,1.1,0.8,1.2c0.2,0.1,0.7-0.1,1.4-0.5C495.2,553.1,495.4,553.1,495.5,553.2z"/>
	<path class="st1" d="M511.1,537.4c0,0.1,0.3,0.4,0.7,1c0.4,0.6,0.8,1.2,1.3,1.8l0.5,0.7c-1.4,0.9-4.1,2.8-8,5.7
		c-0.5,0.4-0.9,0.7-1.4,1c-0.5,0.3-0.8,0.6-0.9,0.7l-0.2,0.2c-0.3,0.2-0.4,0.2-0.5,0.1c-0.1-0.1,0-0.1,0-0.2c0,0,0.3-0.2,0.7-0.6
		c0.3-0.3,0.5-0.5,0.5-0.7c0-0.2-0.2-0.5-0.6-1l-8.5-11.5c-0.3-0.4-0.5-0.6-0.7-0.6c-0.2,0-0.6,0.2-1.2,0.7
		c-0.2,0.2-0.4,0.2-0.5,0.1c-0.1-0.1,0-0.3,0.3-0.5l3.5-2.6c0.1-0.1,0.9-0.7,2.3-1.7c1.4-1,2.4-1.7,2.9-2.1c0.4-0.3,0.8-0.6,1.1-0.9
		c0.5,0.6,1.1,1.3,2,2.3l0.7,0.8c0.1,0.1,0.1,0.1,0.2,0.3c0.1,0.1,0.1,0.2,0,0.3c-0.1,0.1-0.4,0-0.7-0.3c-1.2-1-2.2-1.5-3-1.4
		c-0.6,0.1-1.8,0.8-3.7,2.2l-1.7,1.2l4.4,6l0.5-0.4c1.5-1.1,2.4-1.9,2.5-2.4c0.2-0.5-0.1-1.3-0.8-2.5c-0.2-0.3-0.2-0.5-0.1-0.6
		c0.1-0.1,0.3,0,0.5,0.2c0.2,0.2,0.4,0.6,0.8,1.1c0.3,0.5,0.6,0.9,0.8,1.1c1.1,1.5,1.8,2.4,2.3,2.9c0.1,0.1,0.2,0.2,0.3,0.3
		c0.1,0.2,0.1,0.3,0,0.4c-0.1,0.1-0.2,0.1-0.3,0c-0.1-0.1-0.5-0.4-1-1c-0.7-0.7-1.4-1-2.1-0.8c-0.3,0.1-1,0.5-2,1.3l-0.9,0.7l5,6.8
		c3-2.2,4.7-3.6,5.1-4.1c0.7-0.9,0.6-2.1-0.4-3.7c-0.2-0.4-0.3-0.6-0.1-0.7C510.7,537.1,510.9,537.2,511.1,537.4z"/>
	<path class="st1" d="M529.8,525.1c0.5,0.5,0.3,1.2-0.6,2c-1,0.9-2.1,1.2-3.4,0.9c-0.6-0.1-1-0.3-1.4-0.6c-0.4-0.3-1.2-1-2.6-2.1
		c-0.8-0.7-1.6-1-2.3-1c-0.7,0.1-1.6,0.6-2.6,1.4l5.5,5.8c0.2,0.2,0.6,0.2,1-0.1c0.1-0.1,0.4-0.3,0.9-0.8c0.2-0.2,0.3-0.2,0.4-0.1
		c0.1,0.1,0.1,0.3-0.2,0.5l-0.2,0.2c-0.1,0.1-0.6,0.6-1.6,1.5c-0.2,0.2-0.5,0.5-0.9,0.9c-0.4,0.4-0.7,0.7-0.8,0.8l-0.7,0.7
		c-0.3,0.3-0.5,0.3-0.6,0.2c-0.1-0.1,0.1-0.3,0.4-0.7c0.6-0.6,0.8-0.9,0.7-1.1c0-0.1-0.2-0.4-0.6-0.8l-9.6-10.2
		c-0.5-0.5-0.8-0.7-1-0.7c-0.2,0-0.6,0.2-1.1,0.7c-0.3,0.3-0.5,0.4-0.6,0.3c-0.1-0.1-0.1-0.3,0.1-0.5c0,0,0.1-0.1,0.2-0.1l2.5-2.2
		c0.2-0.2,0.6-0.6,1-1c0.5-0.5,0.8-0.8,1-1c1.1-1.1,2.3-1.7,3.4-1.8c1.1-0.1,2.1,0.3,3,1.1c0.8,0.9,1.1,1.9,1,3.1
		c-0.2,1.2-0.8,2.4-1.9,3.6c-0.1,0.1-0.1,0.2-0.1,0.2c0,0,0.1,0,0.3-0.1c1.5-1,2.8-1.4,3.9-1.1c1.1,0.2,2.6,1.2,4.5,2.8
		c1,0.9,1.9,1.1,2.5,0.5c0.2-0.2,0.2-0.3,0.2-0.4c0,0,0,0-0.1,0c-0.2-0.1-0.3-0.2-0.4-0.2c-0.2-0.3-0.2-0.5,0-0.8
		C529.2,524.8,529.5,524.8,529.8,525.1z M517.3,519.4c-1.7-1.8-3.2-1.9-4.8-0.5c-0.4,0.4-0.6,0.7-0.7,0.9c0,0.2,0.1,0.5,0.3,0.8
		l4.4,4.7c1.2-1.1,1.8-2.1,1.9-3C518.6,521.4,518.2,520.4,517.3,519.4z"/>
	<path class="st1" d="M538.9,508.4c1.1,0.9,1.7,2.2,1.7,3.7c0.1,1.5-0.4,2.8-1.4,4c-0.6,0.7-1.5,1.3-2.8,1.9
		c-0.3,0.2-0.6,0.3-0.7,0.4c-0.1,0.2,0,0.4,0.3,0.7c0.2,0.2,0.2,0.3,0.1,0.5c-0.1,0.1-0.2,0.1-0.4,0c-0.1-0.1-0.2-0.2-0.2-0.2
		c-0.7-0.8-1.4-1.4-2-2c-0.1-0.1-0.5-0.4-1.1-0.9c-0.1-0.1-0.2-0.1-0.3-0.2c-0.2-0.2-0.2-0.3-0.1-0.5c0.1-0.1,0.3-0.1,0.7,0.1
		c2.6,1.6,4.7,1.5,6.2-0.3c0.7-0.8,1-1.6,0.9-2.4c-0.1-0.8-0.5-1.6-1.3-2.2c-0.7-0.6-1.5-0.9-2.4-0.9c-0.9,0-2,0.3-3.3,0.9
		c-1.6,0.7-2.9,1.1-3.9,1.1c-1,0-1.9-0.4-2.7-1.1c-1.1-0.9-1.7-2-1.8-3.3c-0.1-1.3,0.3-2.4,1.2-3.5c0.4-0.4,1-0.9,2-1.4
		c0.3-0.2,0.6-0.3,0.7-0.5c0.1-0.1,0.2-0.3,0.2-0.3c0-0.1-0.1-0.2-0.3-0.5c-0.1-0.1-0.1-0.3,0-0.4c0.1-0.1,0.2-0.1,0.4,0
		c0.1,0.1,0.2,0.2,0.2,0.2c0.3,0.3,0.6,0.6,1.1,1c0.6,0.5,1.1,0.9,1.5,1.2l0.3,0.2c0.2,0.1,0.2,0.2,0.1,0.4
		c-0.1,0.1-0.4,0.1-0.7-0.1c-0.9-0.5-1.8-0.7-2.8-0.6c-1,0.1-1.7,0.5-2.3,1.1c-0.5,0.6-0.8,1.3-0.7,2.1c0.1,0.7,0.5,1.4,1.2,2
		c0.8,0.7,1.7,1,2.7,0.9c0.5-0.1,1.5-0.4,2.9-1c1.6-0.7,3-1,4.1-1C537.1,507.4,538.1,507.7,538.9,508.4z"/>
</g>
<g>
	<path class="st1" d="M296.7,420.5c0,0.1-0.1,0.1-0.2,0.1c-0.1,0-0.1,0-0.2,0c-0.6,0-1,0-1.4,0c-0.4,0-1,0-1.8,0c-0.3,0-0.5,0-0.6,0
		c-0.1,0-0.2,0-0.2-0.1c0,0,0-0.1,0.1-0.1s0.2,0,0.5,0c0.3-0.1,0.5-0.1,0.5-0.3c0-0.1,0.1-0.5,0.1-1.1v-6.7c0-0.2,0-0.3,0-0.5
		c0-0.2,0-0.2,0-0.2c0-0.2-0.2-0.3-0.7-0.3c-0.3,0-0.4,0-0.4-0.1c0-0.1,0-0.1,0.1-0.1s0.2,0,0.4,0c-0.1,0,0.1,0,0.5,0
		c0.4,0,0.8,0,1.1,0h0.7c0.1,0,0.4,0,0.6,0c0.3,0,0.5,0,0.6,0h0.1c0.1,0,0.2,0,0.2,0.1c0,0.1,0,0.1-0.1,0.1s-0.2,0-0.4,0
		c-0.3,0-0.5,0.1-0.5,0.2l0,0.3v7.9c0,0.4,0,0.6,0.1,0.7c0.1,0.1,0.4,0.1,0.9,0.2C296.6,420.4,296.7,420.4,296.7,420.5z"/>
	<path class="st1" d="M310,420.5c0,0.1-0.1,0.1-0.3,0.1h-0.1c-0.2,0-0.6,0-1.1,0s-0.9,0-1.1,0c-0.1,0-0.3,0-0.6,0
		c-0.3,0-0.7,0-1.3,0h-0.3c-0.1,0-0.2,0-0.2-0.1c0-0.1,0.1-0.1,0.2-0.1h0.5c0.4,0,0.7-0.1,0.8-0.2c0,0,0-0.3,0-0.8v-7.6
		c-0.3,0.8-0.7,2-1.2,3.7l-1.2,4.3c-0.1,0.5-0.3,0.8-0.4,0.8c-0.1,0-0.2-0.1-0.3-0.4c0-0.1-0.3-1-0.9-2.7c-0.2-0.6-0.8-2.4-1.7-5.4
		v7.2c0,0.4,0,0.7,0,0.7c0,0.1,0.1,0.1,0.1,0.2c0.1,0.1,0.4,0.2,0.7,0.2c0.3,0,0.5,0,0.5,0.2c0,0.1-0.1,0.1-0.2,0.1l-1.2-0.1
		c-0.2,0-0.5,0-0.7,0c-0.4,0-0.6,0-0.8,0c-0.2,0-0.3,0-0.3-0.1c0-0.1,0.1-0.1,0.2-0.1c0.4,0,0.6,0,0.7,0c0.3,0,0.5-0.1,0.5-0.3
		c0-0.1,0-0.3,0-0.7v-6.7c0-0.7,0-1.2-0.1-1.3c-0.1-0.1-0.4-0.2-1-0.2c-0.1,0-0.2,0-0.2-0.1c0-0.1,0.1-0.1,0.2-0.1h0.4h2.6
		c0,0,0.1,0,0.2,0c0.8,2.6,1.5,4.7,2,6.4l1.9-6.4l0.3,0h1.8c0,0,0.1,0,0.2,0c0.1,0,0.3,0,0.4,0h0.6c0.2,0,0.3,0,0.3,0.1
		c0,0.1-0.1,0.1-0.2,0.1h-0.3c-0.4,0-0.7,0-0.8,0.1c-0.1,0.1-0.2,0.3-0.2,0.5c0,0.1,0,0.2,0,0.5s0,1.4,0,3.5v3.9
		c0,0.3,0.1,0.5,0.3,0.6c0.2,0.1,0.4,0.1,0.8,0.1C309.9,420.4,310,420.4,310,420.5z"/>
	<path class="st1" d="M319.9,413.2c0,0.8-0.3,1.4-0.9,1.9c-0.6,0.5-1.4,0.7-2.4,0.7c-0.3,0-0.6,0-1.1-0.1v3.6c0,0.5,0,0.8,0.1,0.9
		c0.1,0.1,0.3,0.1,0.8,0.2c0.3,0,0.4,0,0.4,0.1c0,0.1-0.1,0.1-0.2,0.1h-0.2c0,0-0.3,0-0.6,0c-0.4,0-0.8,0-1.2,0h-1.6
		c-0.3,0-0.5,0-0.5,0c0,0-0.1,0-0.1-0.1c0-0.1,0.1-0.1,0.2-0.1c0.5,0,0.7-0.1,0.8-0.1c0.1-0.1,0.1-0.3,0.1-0.6v-7.2
		c0-0.6,0-1-0.1-1.1c0-0.1-0.3-0.2-0.7-0.2c-0.3,0-0.4,0-0.4-0.1c0-0.1,0.1-0.1,0.3-0.1l4,0c1,0,1.7,0.1,2.2,0.4
		C319.5,411.8,319.9,412.4,319.9,413.2z M317.6,413.3c0-1.4-0.4-2.1-1.3-2.1c-0.5,0-0.8,0.2-0.8,0.7v3.7c0.4,0,0.6,0,0.8,0
		c0.3,0,0.5-0.2,0.7-0.3C317.4,414.8,317.6,414.2,317.6,413.3z"/>
	<path class="st1" d="M331.3,415.8c0,1.4-0.4,2.6-1.3,3.5c-0.9,1-1.9,1.4-3.2,1.4c-1.2,0-2.3-0.5-3.2-1.5c-0.9-1-1.3-2.1-1.3-3.5
		c0-1.4,0.4-2.6,1.3-3.5c0.9-0.9,2-1.4,3.3-1.4c1.3,0,2.3,0.5,3.1,1.4C330.9,413.2,331.3,414.4,331.3,415.8z M328.8,416
		c0-1.8-0.2-3.2-0.7-4.1c-0.3-0.6-0.7-0.9-1.4-0.9c-0.6,0-1.1,0.4-1.5,1.2c-0.4,0.8-0.6,1.9-0.6,3.2c0,2,0.3,3.4,1,4.4
		c0.3,0.4,0.7,0.6,1.2,0.6c0.6,0,1-0.3,1.3-0.9C328.6,418.8,328.8,417.5,328.8,416z"/>
	<path class="st1" d="M342.4,420.1c0,0.5-0.3,0.8-1,0.8c-0.9,0-1.5-0.3-2-0.8c-0.4-0.4-0.6-0.9-0.7-1.3l-0.1-1.1
		c-0.1-0.7-0.3-1.2-0.5-1.5s-0.6-0.4-1.2-0.4v3.2c0,0.7,0,1.1,0,1.2c0,0.2,0.1,0.3,0.2,0.3c0.1,0.1,0.4,0.1,0.7,0.1
		c0.2,0,0.3,0,0.3,0.1c0,0.1-0.1,0.1-0.2,0.1h-1.4h-0.2c-0.2,0-0.3,0-0.5,0h-1c-0.1,0-0.2,0-0.3,0c-0.1,0-0.2,0-0.2,0h-0.6
		c-0.1,0-0.2,0-0.2-0.1c0-0.1,0.2-0.1,0.6-0.1c0.3,0,0.5-0.1,0.6-0.2c0-0.1,0-0.3,0-0.6v-7.2c0-0.5,0-0.8,0-0.9
		c0-0.1-0.1-0.2-0.2-0.2c-0.1-0.1-0.3-0.1-0.6-0.1c-0.2,0-0.3,0-0.3-0.1c0-0.1,0-0.1,0.1-0.1c0.1,0,0.3,0,0.7,0h0.3
		c0.2,0,0.3,0,0.5,0h0.5c0,0,0.1,0,0.3,0c0.2,0,0.3,0,0.5,0h0.8c1.3,0,2.2,0.1,2.7,0.3c0.4,0.2,0.7,0.4,0.9,0.7
		c0.2,0.3,0.3,0.7,0.3,1.1c0,0.9-0.5,1.6-1.4,2c-0.4,0.2-1,0.3-1.8,0.4l0,0.1c1,0.1,1.7,0.3,2.2,0.8c0.5,0.5,0.7,1.2,0.8,2.3
		c0.1,0.8,0.2,1.4,0.3,1.6c0.2,0.2,0.3,0.3,0.5,0.3c0.1,0,0.2,0,0.2-0.1c0,0-0.1-0.1-0.2-0.2c-0.1-0.1-0.2-0.2-0.2-0.3
		c0-0.3,0.1-0.4,0.4-0.4C342.2,419.6,342.4,419.8,342.4,420.1z M338.8,413c0-1.2-0.5-1.8-1.4-1.8c-0.3,0-0.5,0.1-0.6,0.3
		c0,0.1-0.1,0.6-0.1,1.5v2.3c0.7,0,1.2-0.2,1.6-0.5C338.7,414.5,338.8,413.9,338.8,413z"/>
	<path class="st1" d="M352.1,413.6c0,0.1,0,0.1-0.1,0.1c-0.1,0-0.2-0.2-0.3-0.5c-0.2-0.7-0.4-1.2-0.7-1.4c-0.3-0.3-0.8-0.4-1.4-0.4
		c-0.3,0-0.5,0-0.7,0v8.5c0,0.2,0.1,0.4,0.2,0.4c0.1,0.1,0.5,0.1,1,0.2c0.1,0,0.2,0.1,0.2,0.1c0,0.1-0.1,0.1-0.2,0.1
		c0,0-0.1,0-0.2,0c-0.1,0-0.3,0-0.3,0l-1.4,0l-2.4,0.1c-0.1,0-0.2,0-0.2-0.1c0-0.1,0-0.1,0.1-0.1c0,0,0.2,0,0.5,0
		c0.5,0,0.8-0.1,0.8-0.4c0-0.1,0-1.1,0-2.8v-5.9c-0.1,0-0.2,0-0.4,0c-0.7,0-1.3,0.1-1.6,0.4c-0.3,0.3-0.6,0.8-0.7,1.4
		c-0.1,0.4-0.1,0.6-0.3,0.6c-0.1,0-0.1-0.1-0.1-0.2c0-0.1,0-0.3,0.1-0.8c0.1-0.9,0.1-1.5,0.1-1.9h0.2h1c0,0,0.4,0,1,0
		c0.6,0,1.4,0,2.4,0c0.5,0,1,0,1.4,0c0.4,0,0.8,0,1.1,0c0.3,0,0.5,0,0.7,0c0,0.6,0.1,1.4,0.2,2.3
		C352.1,413.4,352.1,413.5,352.1,413.6z"/>
	<path class="st1" d="M362,418.2c0,0,0,0.5,0,1.3c0,0.4,0,0.8,0,1c0,0.2,0,0.3,0,0.3c-2.5-0.1-4.6-0.1-6.4-0.1h-1.2
		c-0.2,0-0.3,0-0.3-0.1c0-0.1,0-0.1,0.1-0.1c0,0,0.2,0,0.4,0c0.4,0,0.7-0.2,0.7-0.4c0-0.1,0-0.3,0-0.4v-7.1c0-0.6,0-0.9,0-0.9
		c0-0.1-0.1-0.3-0.1-0.3c-0.1-0.1-0.3-0.1-0.5-0.1c-0.3,0-0.4,0-0.4-0.1c0-0.1,0.1-0.1,0.4-0.1c0.3,0,0.6,0,1.1,0c1.7,0,3.1,0,4.2,0
		h0.9c0.2,0,0.5,0,0.8,0l0.1,1.5c0,0.5,0.1,0.8,0.1,0.9c0,0.1,0,0.1-0.1,0.1s-0.2-0.1-0.2-0.4c-0.1-0.6-0.3-1.1-0.8-1.4
		c-0.4-0.3-1.1-0.4-1.9-0.4c-0.3,0-0.7,0-1.3,0v4.1c1,0,1.7-0.1,1.9-0.2s0.4-0.6,0.5-1.2c0-0.3,0.1-0.5,0.2-0.5
		c0.1,0,0.1,0.1,0.1,0.3s0,0.5,0,1c0,0.2,0,0.4,0,0.7c0,0.8,0,1.4,0,1.8c0,0.1,0,0.1,0,0.2c0,0.1,0,0.2-0.1,0.2
		c-0.1,0-0.1,0-0.1-0.1c0,0,0-0.2-0.1-0.5c-0.1-0.7-0.2-1.1-0.4-1.2c-0.2-0.2-0.5-0.2-1.1-0.2h-1v4.7h0.9c1,0,1.6,0,1.9-0.1
		c0.3,0,0.5-0.1,0.8-0.3c0.2-0.2,0.4-0.4,0.5-0.6c0.1-0.2,0.2-0.6,0.3-1.2c0-0.1,0.1-0.2,0.1-0.2C362,418,362,418,362,418.2z"/>
	<path class="st1" d="M373.4,420.1c0,0.5-0.3,0.8-1,0.8c-0.9,0-1.5-0.3-2-0.8c-0.4-0.4-0.6-0.9-0.7-1.3l-0.1-1.1
		c-0.1-0.7-0.3-1.2-0.5-1.5c-0.2-0.3-0.6-0.4-1.2-0.4v3.2c0,0.7,0,1.1,0,1.2c0,0.2,0.1,0.3,0.2,0.3c0.1,0.1,0.4,0.1,0.7,0.1
		c0.2,0,0.3,0,0.3,0.1c0,0.1-0.1,0.1-0.2,0.1h-1.4h-0.2c-0.2,0-0.3,0-0.5,0h-1c-0.1,0-0.2,0-0.3,0c-0.1,0-0.2,0-0.2,0h-0.6
		c-0.1,0-0.2,0-0.2-0.1c0-0.1,0.2-0.1,0.6-0.1c0.3,0,0.5-0.1,0.6-0.2c0-0.1,0-0.3,0-0.6v-7.2c0-0.5,0-0.8,0-0.9
		c0-0.1-0.1-0.2-0.2-0.2c-0.1-0.1-0.3-0.1-0.6-0.1c-0.2,0-0.3,0-0.3-0.1c0-0.1,0-0.1,0.1-0.1c0.1,0,0.3,0,0.7,0h0.3
		c0.2,0,0.3,0,0.5,0h0.5c0,0,0.1,0,0.3,0c0.2,0,0.3,0,0.5,0h0.8c1.3,0,2.2,0.1,2.7,0.3c0.4,0.2,0.7,0.4,0.9,0.7s0.3,0.7,0.3,1.1
		c0,0.9-0.5,1.6-1.4,2c-0.4,0.2-1,0.3-1.8,0.4l0,0.1c1,0.1,1.7,0.3,2.2,0.8c0.5,0.5,0.7,1.2,0.8,2.3c0.1,0.8,0.2,1.4,0.3,1.6
		c0.2,0.2,0.3,0.3,0.5,0.3c0.1,0,0.2,0,0.2-0.1c0,0-0.1-0.1-0.2-0.2c-0.1-0.1-0.2-0.2-0.2-0.3c0-0.3,0.1-0.4,0.4-0.4
		C373.2,419.6,373.4,419.8,373.4,420.1z M369.8,413c0-1.2-0.5-1.8-1.4-1.8c-0.3,0-0.5,0.1-0.6,0.3c0,0.1-0.1,0.6-0.1,1.5v2.3
		c0.7,0,1.2-0.2,1.6-0.5S369.8,413.9,369.8,413z"/>
	<path class="st1" d="M382,417.9c0,0.8-0.3,1.5-0.9,2.1c-0.6,0.6-1.4,0.8-2.3,0.8c-0.6,0-1.3-0.2-2.3-0.6c-0.1,0-0.1,0-0.2,0
		c-0.2,0-0.3,0.2-0.4,0.5c0,0.1-0.1,0.2-0.1,0.2c-0.1,0-0.1-0.1-0.1-0.2c0-0.1,0-0.3,0.1-0.6c0-0.3,0.1-0.5,0.1-0.9
		c0-0.3,0-0.5,0-0.6c0-0.3,0-0.5,0-0.6c0-0.1,0-0.2,0.1-0.2c0.1,0,0.2,0.2,0.3,0.6c0.1,0.7,0.4,1.2,0.9,1.6c0.5,0.4,1,0.6,1.6,0.6
		c0.5,0,0.9-0.2,1.3-0.5c0.3-0.3,0.5-0.7,0.5-1.2c0-0.4-0.1-0.7-0.3-0.9c-0.2-0.2-0.7-0.5-1.6-1c-1-0.5-1.7-1.1-2.1-1.6
		c-0.3-0.5-0.5-1.1-0.5-1.8c0-0.8,0.3-1.5,0.8-2c0.6-0.5,1.3-0.8,2.1-0.8c0.5,0,1,0.1,1.5,0.3c0.2,0.1,0.3,0.1,0.4,0.1
		c0.1,0,0.2-0.1,0.3-0.4c0-0.1,0.1-0.1,0.1-0.1c0.1,0,0.1,0.1,0.1,0.2c0,0,0,0.2,0,0.4c0,0.2,0,0.4,0,0.5c0,0.5,0,0.9,0.1,1.2
		c0,0,0,0.1,0,0.1c0,0.1,0,0.1-0.1,0.1c-0.1,0-0.2-0.1-0.3-0.4c-0.1-0.3-0.2-0.6-0.4-0.9c-0.2-0.3-0.4-0.5-0.6-0.6
		c-0.3-0.2-0.6-0.3-1-0.3c-0.5,0-0.9,0.1-1.2,0.4c-0.3,0.3-0.5,0.6-0.5,1c0,0.4,0.1,0.7,0.4,1c0.3,0.3,0.8,0.7,1.7,1.1
		c1,0.6,1.7,1,2,1.3C381.7,416.5,382,417.1,382,417.9z"/>
	<path class="st1" d="M399.3,414.9c0,0.1-0.3,0.1-0.9,0.1c-0.3,0-0.5,0.1-0.6,0.1c-0.1,0.1-0.1,0.2-0.2,0.4c-0.2,1.3-0.7,2.3-1.3,3
		l0.1,0.2l0.3,0.5l0.3,0.5c0.2,0.3,0.4,0.5,0.6,0.6c0.2,0.1,0.6,0.2,1.2,0.2c0.2,0,0.3,0.1,0.3,0.1c0,0.1-0.1,0.1-0.3,0.1H398
		c-0.6,0-0.8,0-0.7,0c-0.3,0-0.9,0-1.9,0c-0.1-0.3-0.3-0.5-0.4-0.7c-0.7,0.6-1.7,0.9-2.8,0.9c-1,0-1.9-0.3-2.5-0.8
		c-0.6-0.5-1-1.2-1-2c0-0.7,0.2-1.2,0.6-1.7c0.4-0.5,1.1-0.9,2-1.2c-0.3-0.3-0.6-0.6-0.7-0.8c-0.3-0.4-0.5-0.9-0.5-1.4
		c0-0.6,0.2-1.1,0.7-1.5c0.5-0.4,1.1-0.6,1.8-0.6c0.7,0,1.3,0.2,1.8,0.5c0.5,0.3,0.7,0.8,0.7,1.3c0,0.9-0.6,1.6-1.9,1.9
		c0.4,0.4,0.9,1,1.6,1.8c0.6,0.8,1.1,1.4,1.4,1.9c0.7-0.8,1-1.8,1-2.9c0-0.2-0.1-0.4-0.4-0.4c-0.7,0-1.1,0-1.1-0.1
		c0-0.1,0.2-0.1,0.5-0.1h1.2h1.2C399.1,414.7,399.3,414.8,399.3,414.9z M394.9,419.7c-1.5-2-2.6-3.4-3.3-4.3c-0.5,0.3-0.7,1-0.7,2
		c0,0.8,0.2,1.5,0.7,2c0.5,0.6,1.1,0.8,1.8,0.8C394,420.2,394.5,420,394.9,419.7z M393.6,412.8c0-1.2-0.3-1.7-0.9-1.7
		c-0.5,0-0.8,0.4-0.8,1.2c0,0.4,0.1,0.7,0.3,1.1c0.2,0.4,0.5,0.7,0.8,1C393.4,414.1,393.6,413.6,393.6,412.8z"/>
	<path class="st1" d="M413.2,417.6l0,0.2c0,0,0,0.3-0.1,0.9c0,0.4-0.1,0.7-0.1,0.9c0,0.3,0,0.5,0,0.7c0,0.1,0,0.1,0,0.2
		c0,0.1,0,0.2-0.1,0.2s-0.1,0-0.2-0.1c-0.2-0.3-0.4-0.6-0.7-0.7c-0.7,0.6-1.4,0.9-2.2,0.9c-1.2,0-2.3-0.5-3.2-1.4
		c-1-1-1.5-2.2-1.5-3.7c0-1.4,0.4-2.6,1.3-3.6c0.9-1,2-1.4,3.3-1.4c0.6,0,1.2,0.1,1.6,0.4c0.3,0.2,0.5,0.2,0.6,0.2
		c0.2,0,0.4-0.1,0.5-0.3c0.1-0.1,0.2-0.2,0.2-0.2c0,0,0.1,0,0.1,0.1c0,0,0,0.1,0,0.1c-0.1,0.3-0.1,0.7-0.1,1.2c0,0,0,0.2,0,0.6
		c0,0.3,0,0.5,0,0.7v0.3c0,0.2,0,0.3-0.1,0.3c-0.1,0-0.1-0.2-0.2-0.5c-0.3-1.7-1.1-2.5-2.3-2.5c-0.9,0-1.6,0.6-2.1,1.8
		c-0.3,0.8-0.4,1.8-0.4,3c0,1.7,0.4,3,1.1,3.8c0.4,0.4,0.9,0.6,1.5,0.6c1.3,0,2.2-0.9,2.6-2.6c0.1-0.3,0.1-0.4,0.2-0.4
		C413.2,417.4,413.3,417.4,413.2,417.6z"/>
	<path class="st1" d="M424.6,420.1c0,0.5-0.3,0.8-1,0.8c-0.9,0-1.5-0.3-2-0.8c-0.4-0.4-0.6-0.9-0.7-1.3l-0.1-1.1
		c-0.1-0.7-0.3-1.2-0.5-1.5s-0.6-0.4-1.2-0.4v3.2c0,0.7,0,1.1,0,1.2c0,0.2,0.1,0.3,0.2,0.3c0.1,0.1,0.4,0.1,0.7,0.1
		c0.2,0,0.3,0,0.3,0.1c0,0.1-0.1,0.1-0.2,0.1h-1.4h-0.2c-0.2,0-0.3,0-0.5,0h-1c-0.1,0-0.2,0-0.3,0c-0.1,0-0.2,0-0.2,0h-0.6
		c-0.1,0-0.2,0-0.2-0.1c0-0.1,0.2-0.1,0.6-0.1c0.3,0,0.5-0.1,0.6-0.2c0-0.1,0-0.3,0-0.6v-7.2c0-0.5,0-0.8,0-0.9
		c0-0.1-0.1-0.2-0.2-0.2c-0.1-0.1-0.3-0.1-0.6-0.1c-0.2,0-0.3,0-0.3-0.1c0-0.1,0-0.1,0.1-0.1c0.1,0,0.3,0,0.7,0h0.3
		c0.2,0,0.3,0,0.5,0h0.5c0,0,0.1,0,0.3,0c0.2,0,0.3,0,0.5,0h0.8c1.3,0,2.2,0.1,2.7,0.3c0.4,0.2,0.7,0.4,0.9,0.7
		c0.2,0.3,0.3,0.7,0.3,1.1c0,0.9-0.5,1.6-1.4,2c-0.4,0.2-1,0.3-1.8,0.4l0,0.1c1,0.1,1.7,0.3,2.2,0.8c0.5,0.5,0.7,1.2,0.8,2.3
		c0.1,0.8,0.2,1.4,0.3,1.6c0.2,0.2,0.3,0.3,0.5,0.3c0.1,0,0.2,0,0.2-0.1c0,0-0.1-0.1-0.2-0.2c-0.1-0.1-0.2-0.2-0.2-0.3
		c0-0.3,0.1-0.4,0.4-0.4C424.5,419.6,424.6,419.8,424.6,420.1z M421.1,413c0-1.2-0.5-1.8-1.4-1.8c-0.3,0-0.5,0.1-0.6,0.3
		c0,0.1-0.1,0.6-0.1,1.5v2.3c0.7,0,1.2-0.2,1.6-0.5C420.9,414.5,421.1,413.9,421.1,413z"/>
	<path class="st1" d="M436.3,420.5c0,0.1,0,0.1-0.1,0.1c-0.1,0-0.2,0-0.5,0c-0.1,0-0.3,0-0.6,0c-0.7,0-1.2,0-1.4,0
		c-0.3,0-0.6,0-0.8,0c-0.5,0-0.8,0-0.9,0c-0.3,0-0.4,0-0.4-0.1c0-0.1,0.3-0.1,0.8-0.2c0.1,0,0.2,0,0.3,0c0.1,0,0.2-0.1,0.2-0.2
		c0,0-0.1-0.2-0.2-0.6l-0.3-0.9c-0.1-0.2-0.2-0.6-0.4-1.1h-0.3h-1.1c-0.4,0-0.8,0-1.2,0c-0.1,0.2-0.2,0.6-0.5,1.3l-0.3,0.9
		c0,0.1-0.1,0.3-0.1,0.3c0,0.2,0.1,0.3,0.3,0.3c0,0,0.3,0,0.7,0.1c0.1,0,0.2,0,0.2,0.1c0,0.1-0.1,0.1-0.3,0.1h-2.3
		c-0.1,0-0.1,0-0.2,0c-0.1,0-0.2,0-0.2-0.1c0-0.1,0.1-0.1,0.4-0.1c0.4,0,0.6-0.1,0.7-0.2c0.1-0.1,0.3-0.5,0.5-1.2
		c0.2-0.5,0.4-1.2,0.8-2.1l1.7-4.6c0.1-0.2,0.2-0.5,0.3-1c0.1-0.3,0.2-0.5,0.2-0.5c0.1,0,0.2,0.2,0.3,0.6c0.2,0.5,1,2.7,2.5,6.5
		c0.2,0.5,0.4,1,0.6,1.5c0.2,0.4,0.3,0.7,0.5,0.8c0.1,0.1,0.4,0.1,0.9,0.1C436.2,420.4,436.3,420.4,436.3,420.5z M431.9,417.2
		c0,0,0-0.1-0.1-0.3c-0.4-1.1-0.6-1.8-0.8-2.3c0-0.1-0.1-0.3-0.2-0.5l-0.1-0.2c-0.2,0.4-0.4,1-0.6,1.7c-0.3,0.8-0.5,1.3-0.6,1.7
		c0.1,0,0.2,0,0.3,0c0.1,0,0.2,0,0.3,0h0.8C431.1,417.2,431.4,417.2,431.9,417.2z"/>
	<path class="st1" d="M446.2,413.4c0,0.1,0,0.1-0.1,0.1c-0.1,0-0.1,0-0.1-0.1s-0.1-0.2-0.1-0.5c-0.2-0.7-0.5-1.2-1.1-1.5
		c-0.3-0.1-0.9-0.2-1.7-0.2c-0.4,0-0.8,0-1.3,0v4.3h0.4c0.9,0,1.4-0.1,1.6-0.3c0.2-0.2,0.4-0.7,0.5-1.5c0-0.1,0.1-0.2,0.1-0.2
		c0.1,0,0.1,0.1,0.1,0.2c0,0,0,0,0,0.2s0,0.5,0,0.8v0.9c0,0.7,0,1.1,0,1.3c0,0.2,0,0.4,0,0.5c0,0.1,0,0.2-0.1,0.2
		c-0.1,0-0.2-0.1-0.2-0.4c0-0.7-0.2-1.1-0.5-1.3c-0.1-0.1-0.4-0.2-0.7-0.2c-0.5,0-0.9,0-1.2,0v3.4c0,0.6,0,0.9,0.1,1
		c0.1,0.1,0.4,0.2,1,0.2c0.2,0,0.3,0,0.3,0.1c0,0.1-0.1,0.1-0.3,0.1c-0.2,0-0.5,0-0.7,0c-0.6,0-1.2,0-2,0c-0.5,0-1,0-1.4,0
		c-0.1,0-0.1,0-0.2,0c-0.1,0-0.2,0-0.2-0.1c0-0.1,0.1-0.1,0.4-0.1c0.4,0,0.7-0.1,0.7-0.3c0-0.1,0.1-0.2,0.1-0.4v-8.1
		c0-0.1-0.1-0.2-0.2-0.3c-0.1,0-0.3-0.1-0.5-0.1c-0.3,0-0.4-0.1-0.4-0.1c0-0.1,0.1-0.1,0.3-0.1h0.3c0,0,0.4,0,1.1,0c0.7,0,1.4,0,2,0
		c0.8,0,1.6,0,2.1,0l1,0c0.1,0,0.4,0,0.7,0c0.1,1.1,0.1,1.9,0.2,2.3C446.2,413.3,446.2,413.3,446.2,413.4z"/>
	<path class="st1" d="M456.7,413.6c0,0.1,0,0.1-0.1,0.1c-0.1,0-0.2-0.2-0.3-0.5c-0.2-0.7-0.4-1.2-0.7-1.4c-0.3-0.3-0.8-0.4-1.4-0.4
		c-0.3,0-0.5,0-0.7,0v8.5c0,0.2,0.1,0.4,0.2,0.4c0.1,0.1,0.5,0.1,1,0.2c0.1,0,0.2,0.1,0.2,0.1c0,0.1-0.1,0.1-0.2,0.1
		c0,0-0.1,0-0.2,0c-0.1,0-0.3,0-0.3,0l-1.4,0l-2.4,0.1c-0.1,0-0.2,0-0.2-0.1c0-0.1,0-0.1,0.1-0.1c0,0,0.2,0,0.5,0
		c0.5,0,0.8-0.1,0.8-0.4c0-0.1,0-1.1,0-2.8v-5.9c-0.1,0-0.2,0-0.4,0c-0.7,0-1.3,0.1-1.6,0.4c-0.3,0.3-0.6,0.8-0.7,1.4
		c-0.1,0.4-0.1,0.6-0.3,0.6c-0.1,0-0.1-0.1-0.1-0.2c0-0.1,0-0.3,0.1-0.8c0.1-0.9,0.1-1.5,0.1-1.9h0.2h1c0,0,0.4,0,1,0
		c0.6,0,1.4,0,2.4,0c0.5,0,1,0,1.4,0c0.4,0,0.8,0,1.1,0c0.3,0,0.5,0,0.7,0c0,0.6,0.1,1.4,0.2,2.3
		C456.7,413.4,456.7,413.5,456.7,413.6z"/>
	<path class="st1" d="M465.3,417.9c0,0.8-0.3,1.5-0.9,2.1c-0.6,0.6-1.4,0.8-2.3,0.8c-0.6,0-1.3-0.2-2.3-0.6c-0.1,0-0.1,0-0.2,0
		c-0.2,0-0.3,0.2-0.4,0.5c0,0.1-0.1,0.2-0.1,0.2c-0.1,0-0.1-0.1-0.1-0.2c0-0.1,0-0.3,0.1-0.6c0-0.3,0.1-0.5,0.1-0.9
		c0-0.3,0-0.5,0-0.6c0-0.3,0-0.5,0-0.6c0-0.1,0-0.2,0.1-0.2c0.1,0,0.2,0.2,0.3,0.6c0.1,0.7,0.4,1.2,0.9,1.6c0.5,0.4,1,0.6,1.6,0.6
		c0.5,0,0.9-0.2,1.3-0.5c0.3-0.3,0.5-0.7,0.5-1.2c0-0.4-0.1-0.7-0.3-0.9c-0.2-0.2-0.7-0.5-1.6-1c-1-0.5-1.7-1.1-2.1-1.6
		c-0.3-0.5-0.5-1.1-0.5-1.8c0-0.8,0.3-1.5,0.8-2c0.6-0.5,1.3-0.8,2.1-0.8c0.5,0,1,0.1,1.5,0.3c0.2,0.1,0.3,0.1,0.4,0.1
		c0.1,0,0.2-0.1,0.3-0.4c0-0.1,0.1-0.1,0.1-0.1c0.1,0,0.1,0.1,0.1,0.2c0,0,0,0.2,0,0.4c0,0.2,0,0.4,0,0.5c0,0.5,0,0.9,0.1,1.2
		c0,0,0,0.1,0,0.1c0,0.1,0,0.1-0.1,0.1c-0.1,0-0.2-0.1-0.3-0.4c-0.1-0.3-0.2-0.6-0.4-0.9c-0.2-0.3-0.4-0.5-0.6-0.6
		c-0.3-0.2-0.6-0.3-1-0.3c-0.5,0-0.9,0.1-1.2,0.4c-0.3,0.3-0.5,0.6-0.5,1c0,0.4,0.1,0.7,0.4,1c0.3,0.3,0.8,0.7,1.7,1.1
		c1,0.6,1.7,1,2,1.3C465,416.5,465.3,417.1,465.3,417.9z"/>
	<path class="st1" d="M478.3,420.5c0,0.1-0.1,0.1-0.3,0.1H478c-0.2,0-0.6,0-1.1,0s-0.9,0-1.1,0c-0.1,0-0.3,0-0.6,0
		c-0.3,0-0.7,0-1.3,0h-0.3c-0.1,0-0.2,0-0.2-0.1c0-0.1,0.1-0.1,0.2-0.1h0.5c0.4,0,0.7-0.1,0.8-0.2c0,0,0-0.3,0-0.8v-7.6
		c-0.3,0.8-0.7,2-1.2,3.7l-1.2,4.3c-0.1,0.5-0.3,0.8-0.4,0.8c-0.1,0-0.2-0.1-0.3-0.4c0-0.1-0.3-1-0.9-2.7c-0.2-0.6-0.8-2.4-1.7-5.4
		v7.2c0,0.4,0,0.7,0,0.7c0,0.1,0.1,0.1,0.1,0.2c0.1,0.1,0.4,0.2,0.7,0.2c0.3,0,0.5,0,0.5,0.2c0,0.1-0.1,0.1-0.2,0.1l-1.2-0.1
		c-0.2,0-0.5,0-0.7,0c-0.4,0-0.6,0-0.8,0c-0.2,0-0.3,0-0.3-0.1c0-0.1,0.1-0.1,0.2-0.1c0.4,0,0.6,0,0.7,0c0.3,0,0.5-0.1,0.5-0.3
		c0-0.1,0-0.3,0-0.7v-6.7c0-0.7,0-1.2-0.1-1.3c-0.1-0.1-0.4-0.2-1-0.2c-0.1,0-0.2,0-0.2-0.1c0-0.1,0.1-0.1,0.2-0.1h0.4h2.6
		c0,0,0.1,0,0.2,0c0.8,2.6,1.5,4.7,2,6.4l1.9-6.4l0.3,0h1.8c0,0,0.1,0,0.2,0c0.1,0,0.3,0,0.4,0h0.6c0.2,0,0.3,0,0.3,0.1
		c0,0.1-0.1,0.1-0.2,0.1h-0.3c-0.4,0-0.7,0-0.8,0.1c-0.1,0.1-0.2,0.3-0.2,0.5c0,0.1,0,0.2,0,0.5s0,1.4,0,3.5v3.9
		c0,0.3,0.1,0.5,0.3,0.6c0.2,0.1,0.4,0.1,0.8,0.1C478.2,420.4,478.3,420.4,478.3,420.5z"/>
	<path class="st1" d="M488.5,418.2c0,0,0,0.5,0,1.3c0,0.4,0,0.8,0,1c0,0.2,0,0.3,0,0.3c-2.5-0.1-4.6-0.1-6.4-0.1h-1.2
		c-0.2,0-0.3,0-0.3-0.1c0-0.1,0-0.1,0.1-0.1c0,0,0.2,0,0.4,0c0.4,0,0.7-0.2,0.7-0.4c0-0.1,0-0.3,0-0.4v-7.1c0-0.6,0-0.9,0-0.9
		c0-0.1-0.1-0.3-0.1-0.3c-0.1-0.1-0.3-0.1-0.5-0.1c-0.3,0-0.4,0-0.4-0.1c0-0.1,0.1-0.1,0.4-0.1s0.6,0,1.1,0c1.7,0,3.1,0,4.2,0h0.9
		c0.2,0,0.5,0,0.8,0l0.1,1.5c0,0.5,0.1,0.8,0.1,0.9c0,0.1,0,0.1-0.1,0.1c-0.1,0-0.2-0.1-0.2-0.4c-0.1-0.6-0.3-1.1-0.8-1.4
		c-0.4-0.3-1.1-0.4-1.9-0.4c-0.3,0-0.7,0-1.3,0v4.1c1,0,1.7-0.1,1.9-0.2s0.4-0.6,0.5-1.2c0-0.3,0.1-0.5,0.2-0.5
		c0.1,0,0.1,0.1,0.1,0.3s0,0.5,0,1c0,0.2,0,0.4,0,0.7c0,0.8,0,1.4,0,1.8c0,0.1,0,0.1,0,0.2c0,0.1,0,0.2-0.1,0.2
		c-0.1,0-0.1,0-0.1-0.1c0,0,0-0.2-0.1-0.5c-0.1-0.7-0.2-1.1-0.4-1.2c-0.2-0.2-0.5-0.2-1.1-0.2h-1v4.7h0.9c1,0,1.6,0,1.9-0.1
		c0.3,0,0.5-0.1,0.8-0.3c0.2-0.2,0.4-0.4,0.5-0.6c0.1-0.2,0.2-0.6,0.3-1.2c0-0.1,0.1-0.2,0.1-0.2C488.4,418,488.5,418,488.5,418.2z"
		/>
	<path class="st1" d="M500.2,411.1c0,0,0,0.1-0.1,0.1c-0.1,0-0.3,0-0.7,0c-0.2,0-0.4,0.1-0.4,0.2c0,0.1-0.1,0.4,0,0.9v1.6
		c0,1.1,0,2.5,0,4.2v2.4c0,0.2,0,0.2-0.1,0.2c-0.1,0-0.8-0.8-2-2.3c-1.2-1.5-2.6-3.3-4.1-5.3v1c0,0.4,0,0.7,0,0.9c0,0.3,0,0.4,0,0.5
		v4.3c0,0.2,0.1,0.3,0.2,0.4c0.2,0.1,0.4,0.1,0.7,0.1c0.3,0,0.5,0,0.5,0.1c0,0,0,0,0,0.1c0,0.1-0.1,0.1-0.2,0.1c-0.1,0-0.2,0-0.2,0
		c-0.6,0-0.9,0-1,0c-0.3,0-0.8,0-1.3,0c-0.3,0-0.4,0-0.3,0c-0.1,0-0.2,0-0.2-0.1c0-0.1,0.2-0.1,0.6-0.1c0.5,0,0.7-0.1,0.8-0.2
		c0-0.1,0.1-0.4,0.1-1v-5.7c0-0.6,0-0.9,0-1.1c-0.1-0.4-0.2-0.7-0.5-0.9c-0.2-0.1-0.6-0.2-1.1-0.2c-0.1,0-0.2-0.1-0.2-0.1
		c0-0.1,0.1-0.1,0.2-0.1c0.1,0,0.3,0,0.6,0c0.2,0,0.4,0,0.8,0c0.7,0,1.2,0,1.7,0l4.9,6.3v-5.5c0-0.2,0-0.4-0.1-0.4
		c-0.1-0.1-0.2-0.1-0.5-0.1l-0.6,0c-0.1,0-0.2,0-0.2-0.1c0-0.1,0.1-0.1,0.3-0.1h0.3c0.1,0,0.1,0,0.3,0c0.1,0,0.2,0,0.3,0
		c0.9,0,1.5,0,1.6,0C500.2,411,500.2,411.1,500.2,411.1z"/>
	<path class="st1" d="M396.4,434.7c0,1.1-0.5,2.1-1.5,2.9c-0.8,0.7-1.6,1-2.4,1c-0.6,0-1-0.2-1.4-0.6c-0.4-0.4-0.6-0.9-0.6-1.5
		c0-0.5,0.2-1.1,0.5-1.7c0.3-0.6,0.7-1,1.2-1.4c0.8-0.6,1.6-0.9,2.3-0.9c0.6,0,1,0.2,1.4,0.6C396.2,433.5,396.4,434.1,396.4,434.7z
		 M395.3,433.8c0-0.7-0.3-1.1-0.9-1.1c-0.8,0-1.4,0.6-2,1.7c-0.5,1.1-0.8,2.1-0.8,3c0,0.7,0.3,1,0.9,1c0.8,0,1.4-0.5,1.9-1.5
		C395,435.8,395.3,434.8,395.3,433.8z"/>
	<path class="st1" d="M405.4,429.5c0,0.4-0.2,0.5-0.5,0.5c-0.1,0-0.2,0-0.3-0.1c-0.1-0.1-0.1-0.2-0.1-0.3c0-0.1,0.1-0.2,0.2-0.3
		c0-0.1,0.1-0.1,0.1-0.2c0-0.2-0.2-0.3-0.6-0.3c-0.4,0-0.7,0.2-1,0.5c-0.3,0.3-0.6,1.1-0.9,2.1l-0.4,1.1h1.4c0,0,0.1,0,0.2,0
		c0.1,0,0.2,0,0.2,0.1c0,0.1-0.1,0.1-0.2,0.1h-1.6l-1.2,3.3c-0.9,2.4-1.7,4.1-2.6,5c-0.3,0.4-0.6,0.6-0.9,0.8
		c-0.3,0.2-0.6,0.2-1,0.2c-0.8,0-1.2-0.3-1.2-0.8c0-0.4,0.2-0.6,0.6-0.6c0.3,0,0.4,0.1,0.4,0.4c0,0.1,0,0.2-0.1,0.3
		c-0.1,0.1-0.1,0.1-0.1,0.2c0,0.2,0.1,0.3,0.4,0.3c0.5,0,0.9-0.2,1.2-0.7c0.3-0.4,0.6-1.2,1.1-2.4l2.1-6h-0.3h-0.7
		c-0.1,0-0.2,0.1-0.3,0.1c-0.1,0-0.2,0-0.2-0.1c0-0.1,0.1-0.2,0.3-0.2c0,0,0.2,0,0.5,0h0.5h0.2c0.6-1.3,1-2.2,1.4-2.7
		c0.6-0.8,1.3-1.2,2.2-1.2c0.4,0,0.7,0.1,0.9,0.2C405.3,429,405.4,429.2,405.4,429.5z"/>
	<path class="st1" d="M325.4,450.5c0,0.8-0.3,1.4-0.9,1.9c-0.6,0.5-1.4,0.7-2.4,0.7c-0.3,0-0.6,0-1.1-0.1v3.6c0,0.5,0,0.8,0.1,0.9
		c0.1,0.1,0.3,0.1,0.8,0.2c0.3,0,0.4,0,0.4,0.1c0,0.1-0.1,0.1-0.2,0.1h-0.2c0,0-0.3,0-0.6,0c-0.4,0-0.8,0-1.2,0h-1.6
		c-0.3,0-0.5,0-0.5,0s-0.1,0-0.1-0.1c0-0.1,0.1-0.1,0.2-0.1c0.5,0,0.7-0.1,0.8-0.1c0.1-0.1,0.1-0.3,0.1-0.6v-7.2c0-0.6,0-1-0.1-1.1
		c0-0.1-0.3-0.2-0.7-0.2c-0.3,0-0.4,0-0.4-0.1c0-0.1,0.1-0.1,0.3-0.1l4,0c1,0,1.7,0.1,2.2,0.4C325.1,449.1,325.4,449.7,325.4,450.5z
		 M323.2,450.5c0-1.4-0.4-2.1-1.3-2.1c-0.5,0-0.8,0.2-0.8,0.7v3.7c0.4,0,0.6,0,0.8,0c0.3,0,0.5-0.2,0.7-0.3
		C323,452.1,323.2,451.5,323.2,450.5z"/>
	<path class="st1" d="M336.2,457.3c0,0.5-0.3,0.8-1,0.8c-0.9,0-1.5-0.3-2-0.8c-0.4-0.4-0.6-0.9-0.7-1.3l-0.1-1.1
		c-0.1-0.7-0.3-1.2-0.5-1.5c-0.2-0.3-0.6-0.4-1.2-0.4v3.2c0,0.7,0,1.1,0,1.2c0,0.2,0.1,0.3,0.2,0.3c0.1,0.1,0.4,0.1,0.7,0.1
		c0.2,0,0.3,0,0.3,0.1c0,0.1-0.1,0.1-0.2,0.1h-1.4h-0.2c-0.2,0-0.3,0-0.5,0h-1c-0.1,0-0.2,0-0.3,0c-0.1,0-0.2,0-0.2,0h-0.6
		c-0.1,0-0.2,0-0.2-0.1c0-0.1,0.2-0.1,0.6-0.1c0.3,0,0.5-0.1,0.6-0.2c0-0.1,0-0.3,0-0.6v-7.2c0-0.5,0-0.8,0-0.9
		c0-0.1-0.1-0.2-0.2-0.2c-0.1-0.1-0.3-0.1-0.6-0.1c-0.2,0-0.3,0-0.3-0.1c0-0.1,0-0.1,0.1-0.1c0.1,0,0.3,0,0.7,0h0.3
		c0.2,0,0.3,0,0.5,0h0.5c0,0,0.1,0,0.3,0c0.2,0,0.3,0,0.5,0h0.8c1.3,0,2.2,0.1,2.7,0.3c0.4,0.2,0.7,0.4,0.9,0.7s0.3,0.7,0.3,1.1
		c0,0.9-0.5,1.6-1.4,2c-0.4,0.2-1,0.3-1.8,0.4l0,0.1c1,0.1,1.7,0.3,2.2,0.8c0.5,0.5,0.7,1.2,0.8,2.3c0.1,0.8,0.2,1.4,0.3,1.6
		c0.2,0.2,0.3,0.3,0.5,0.3c0.1,0,0.2,0,0.2-0.1c0,0-0.1-0.1-0.2-0.2c-0.1-0.1-0.2-0.2-0.2-0.3c0-0.3,0.1-0.4,0.4-0.4
		C336.1,456.8,336.2,457,336.2,457.3z M332.7,450.3c0-1.2-0.5-1.8-1.4-1.8c-0.3,0-0.5,0.1-0.6,0.3c0,0.1-0.1,0.6-0.1,1.5v2.3
		c0.7,0,1.2-0.2,1.6-0.5S332.7,451.1,332.7,450.3z"/>
	<path class="st1" d="M346.3,455.4c0,0,0,0.5,0,1.3c0,0.4,0,0.8,0,1c0,0.2,0,0.3,0,0.3c-2.5-0.1-4.6-0.1-6.4-0.1h-1.2
		c-0.2,0-0.3,0-0.3-0.1c0-0.1,0-0.1,0.1-0.1c0,0,0.2,0,0.4,0c0.4,0,0.7-0.2,0.7-0.4c0-0.1,0-0.3,0-0.4v-7.1c0-0.6,0-0.9,0-0.9
		c0-0.1-0.1-0.3-0.1-0.3c-0.1-0.1-0.3-0.1-0.5-0.1c-0.3,0-0.4,0-0.4-0.1c0-0.1,0.1-0.1,0.4-0.1c0.3,0,0.6,0,1.1,0c1.7,0,3.1,0,4.2,0
		h0.9c0.2,0,0.5,0,0.8,0l0.1,1.5c0,0.5,0.1,0.8,0.1,0.9c0,0.1,0,0.1-0.1,0.1c-0.1,0-0.2-0.1-0.2-0.4c-0.1-0.6-0.3-1.1-0.8-1.4
		c-0.4-0.3-1.1-0.4-1.9-0.4c-0.3,0-0.7,0-1.3,0v4.1c1,0,1.7-0.1,1.9-0.2c0.3-0.2,0.4-0.6,0.5-1.2c0-0.3,0.1-0.5,0.2-0.5
		c0.1,0,0.1,0.1,0.1,0.3s0,0.5,0,1c0,0.2,0,0.4,0,0.7c0,0.8,0,1.4,0,1.8c0,0.1,0,0.1,0,0.2c0,0.1,0,0.2-0.1,0.2
		c-0.1,0-0.1,0-0.1-0.1c0,0,0-0.2-0.1-0.5c-0.1-0.7-0.2-1.1-0.4-1.2c-0.2-0.2-0.5-0.2-1.1-0.2h-1v4.7h0.9c1,0,1.6,0,1.9-0.1
		c0.3,0,0.5-0.1,0.8-0.3c0.2-0.2,0.4-0.4,0.5-0.6c0.1-0.2,0.2-0.6,0.3-1.2c0-0.1,0.1-0.2,0.1-0.2
		C346.3,455.2,346.3,455.3,346.3,455.4z"/>
	<path class="st1" d="M359.8,457.8c0,0.1-0.1,0.1-0.3,0.1h-0.1c-0.2,0-0.6,0-1.1,0c-0.5,0-0.9,0-1.1,0c-0.1,0-0.3,0-0.6,0
		c-0.3,0-0.7,0-1.3,0h-0.3c-0.1,0-0.2,0-0.2-0.1c0-0.1,0.1-0.1,0.2-0.1h0.5c0.4,0,0.7-0.1,0.8-0.2c0,0,0-0.3,0-0.8V449
		c-0.3,0.8-0.7,2-1.2,3.7l-1.2,4.3c-0.1,0.5-0.3,0.8-0.4,0.8c-0.1,0-0.2-0.1-0.3-0.4c0-0.1-0.3-1-0.9-2.7c-0.2-0.6-0.8-2.4-1.7-5.4
		v7.2c0,0.4,0,0.7,0,0.7c0,0.1,0.1,0.1,0.1,0.2c0.1,0.1,0.4,0.2,0.7,0.2c0.3,0,0.5,0,0.5,0.2c0,0.1-0.1,0.1-0.2,0.1l-1.2-0.1
		c-0.2,0-0.5,0-0.7,0c-0.4,0-0.6,0-0.8,0c-0.2,0-0.3,0-0.3-0.1c0-0.1,0.1-0.1,0.2-0.1c0.4,0,0.6,0,0.7,0c0.3,0,0.5-0.1,0.5-0.3
		c0-0.1,0-0.3,0-0.7V450c0-0.7,0-1.2-0.1-1.3c-0.1-0.1-0.4-0.2-1-0.2c-0.1,0-0.2,0-0.2-0.1c0-0.1,0.1-0.1,0.2-0.1h0.4h2.6
		c0,0,0.1,0,0.2,0c0.8,2.6,1.5,4.7,2,6.4l1.9-6.4l0.3,0h1.8c0,0,0.1,0,0.2,0c0.1,0,0.3,0,0.4,0h0.6c0.2,0,0.3,0,0.3,0.1
		c0,0.1-0.1,0.1-0.2,0.1h-0.3c-0.4,0-0.7,0-0.8,0.1c-0.1,0.1-0.2,0.3-0.2,0.5c0,0.1,0,0.2,0,0.5c0,0.3,0,1.4,0,3.5v3.9
		c0,0.3,0.1,0.5,0.3,0.6c0.2,0.1,0.4,0.1,0.8,0.1C359.6,457.6,359.8,457.7,359.8,457.8z"/>
	<path class="st1" d="M366.5,457.8c0,0.1-0.1,0.1-0.2,0.1c-0.1,0-0.1,0-0.2,0c-0.6,0-1,0-1.4,0c-0.4,0-1,0-1.8,0c-0.3,0-0.5,0-0.6,0
		c-0.1,0-0.2,0-0.2-0.1c0,0,0-0.1,0.1-0.1s0.2,0,0.5,0c0.3-0.1,0.5-0.1,0.5-0.3c0-0.1,0.1-0.5,0.1-1.1v-6.7c0-0.2,0-0.3,0-0.5
		c0-0.2,0-0.2,0-0.2c0-0.2-0.2-0.3-0.7-0.3c-0.3,0-0.4,0-0.4-0.1s0-0.1,0.1-0.1s0.2,0,0.4,0c-0.1,0,0.1,0,0.5,0c0.4,0,0.8,0,1.1,0
		h0.7c0.1,0,0.4,0,0.6,0c0.3,0,0.5,0,0.6,0h0.1c0.1,0,0.2,0,0.2,0.1c0,0.1,0,0.1-0.1,0.1c0,0-0.2,0-0.4,0c-0.3,0-0.5,0.1-0.5,0.2
		l0,0.3v7.9c0,0.4,0,0.6,0.1,0.7c0.1,0.1,0.4,0.1,0.9,0.2C366.4,457.7,366.5,457.7,366.5,457.8z"/>
	<path class="st1" d="M377.5,448.3c0,0.1-0.2,0.1-0.5,0.1c-0.4,0-0.6,0.1-0.7,0.2c0,0,0,0.1-0.1,0.2v5.9c0,2.2-1,3.3-3.1,3.3
		c-1.1,0-1.9-0.3-2.5-1c-0.4-0.5-0.7-1.4-0.7-2.6v-5.3c0-0.3,0-0.5-0.1-0.5c-0.1-0.1-0.4-0.1-0.9-0.2c-0.1,0-0.2,0-0.2-0.1
		c0-0.1,0.1-0.1,0.3-0.1h0.1c0.1,0,0.2,0,0.2,0h0.9c0.8,0,1.4,0,1.8,0c0.5,0,0.7,0,0.6,0h0.3c0.2,0,0.2,0,0.2,0.1
		c0,0.1-0.1,0.1-0.4,0.1c-0.4,0-0.6,0.1-0.7,0.2c0,0.1,0,0.2,0,0.3v5.2c0,0.8,0,1.2,0,1.4c0.1,0.6,0.2,1,0.5,1.3
		c0.3,0.3,0.8,0.5,1.4,0.5c0.6,0,1.1-0.2,1.4-0.6c0.4-0.5,0.5-1.4,0.5-2.6v-4.6c0-0.1,0-0.2,0-0.3c0-0.1,0-0.2,0-0.2
		c0-0.2-0.1-0.4-0.2-0.5c-0.1-0.1-0.3-0.1-0.5-0.1c-0.3,0-0.5-0.1-0.5-0.2c0-0.1,0.1-0.1,0.2-0.1c0.1,0,0.3,0,0.6,0
		c0.3,0,0.5,0,0.6,0c0,0,0.1,0,0.2,0c0.2,0,0.3,0,0.4,0h0.3C377.4,448.2,377.5,448.2,377.5,448.3z"/>
	<path class="st1" d="M390.7,457.8c0,0.1-0.1,0.1-0.3,0.1h-0.1c-0.2,0-0.6,0-1.1,0c-0.5,0-0.9,0-1.1,0c-0.1,0-0.3,0-0.6,0
		c-0.3,0-0.7,0-1.3,0h-0.3c-0.1,0-0.2,0-0.2-0.1c0-0.1,0.1-0.1,0.2-0.1h0.5c0.4,0,0.7-0.1,0.8-0.2c0,0,0-0.3,0-0.8V449
		c-0.3,0.8-0.7,2-1.2,3.7l-1.2,4.3c-0.1,0.5-0.3,0.8-0.4,0.8c-0.1,0-0.2-0.1-0.3-0.4c0-0.1-0.3-1-0.9-2.7c-0.2-0.6-0.8-2.4-1.7-5.4
		v7.2c0,0.4,0,0.7,0,0.7c0,0.1,0.1,0.1,0.1,0.2c0.1,0.1,0.4,0.2,0.7,0.2c0.3,0,0.5,0,0.5,0.2c0,0.1-0.1,0.1-0.2,0.1l-1.2-0.1
		c-0.2,0-0.5,0-0.7,0c-0.4,0-0.6,0-0.8,0c-0.2,0-0.3,0-0.3-0.1c0-0.1,0.1-0.1,0.2-0.1c0.4,0,0.6,0,0.7,0c0.3,0,0.5-0.1,0.5-0.3
		c0-0.1,0-0.3,0-0.7V450c0-0.7,0-1.2-0.1-1.3c-0.1-0.1-0.4-0.2-1-0.2c-0.1,0-0.2,0-0.2-0.1c0-0.1,0.1-0.1,0.2-0.1h0.4h2.6
		c0,0,0.1,0,0.2,0c0.8,2.6,1.5,4.7,2,6.4l1.9-6.4l0.3,0h1.8c0,0,0.1,0,0.2,0c0.1,0,0.3,0,0.4,0h0.6c0.2,0,0.3,0,0.3,0.1
		c0,0.1-0.1,0.1-0.2,0.1h-0.3c-0.4,0-0.7,0-0.8,0.1c-0.1,0.1-0.2,0.3-0.2,0.5c0,0.1,0,0.2,0,0.5c0,0.3,0,1.4,0,3.5v3.9
		c0,0.3,0.1,0.5,0.3,0.6c0.2,0.1,0.4,0.1,0.8,0.1C390.5,457.6,390.7,457.7,390.7,457.8z"/>
	<path class="st1" d="M405.4,457.3c0,0.5-0.3,0.8-1,0.8c-0.9,0-1.5-0.3-2-0.8c-0.4-0.4-0.6-0.9-0.7-1.3l-0.1-1.1
		c-0.1-0.7-0.3-1.2-0.5-1.5c-0.2-0.3-0.6-0.4-1.2-0.4v3.2c0,0.7,0,1.1,0,1.2c0,0.2,0.1,0.3,0.2,0.3c0.1,0.1,0.4,0.1,0.7,0.1
		c0.2,0,0.3,0,0.3,0.1c0,0.1-0.1,0.1-0.2,0.1h-1.4h-0.2c-0.2,0-0.3,0-0.5,0h-1c-0.1,0-0.2,0-0.3,0c-0.1,0-0.2,0-0.2,0h-0.6
		c-0.1,0-0.2,0-0.2-0.1c0-0.1,0.2-0.1,0.6-0.1c0.3,0,0.5-0.1,0.6-0.2c0-0.1,0-0.3,0-0.6v-7.2c0-0.5,0-0.8,0-0.9
		c0-0.1-0.1-0.2-0.2-0.2c-0.1-0.1-0.3-0.1-0.6-0.1c-0.2,0-0.3,0-0.3-0.1c0-0.1,0-0.1,0.1-0.1c0.1,0,0.3,0,0.7,0h0.3
		c0.2,0,0.3,0,0.5,0h0.5c0,0,0.1,0,0.3,0c0.2,0,0.3,0,0.5,0h0.8c1.3,0,2.2,0.1,2.7,0.3c0.4,0.2,0.7,0.4,0.9,0.7s0.3,0.7,0.3,1.1
		c0,0.9-0.5,1.6-1.4,2c-0.4,0.2-1,0.3-1.8,0.4l0,0.1c1,0.1,1.7,0.3,2.2,0.8c0.5,0.5,0.7,1.2,0.8,2.3c0.1,0.8,0.2,1.4,0.3,1.6
		c0.2,0.2,0.3,0.3,0.5,0.3c0.1,0,0.2,0,0.2-0.1c0,0-0.1-0.1-0.2-0.2c-0.1-0.1-0.2-0.2-0.2-0.3c0-0.3,0.1-0.4,0.4-0.4
		C405.3,456.8,405.4,457,405.4,457.3z M401.9,450.3c0-1.2-0.5-1.8-1.4-1.8c-0.3,0-0.5,0.1-0.6,0.3c0,0.1-0.1,0.6-0.1,1.5v2.3
		c0.7,0,1.2-0.2,1.6-0.5S401.9,451.1,401.9,450.3z"/>
	<path class="st1" d="M417.1,457.7c0,0.1,0,0.1-0.1,0.1c-0.1,0-0.2,0-0.5,0c-0.1,0-0.3,0-0.6,0c-0.7,0-1.2,0-1.4,0
		c-0.3,0-0.6,0-0.8,0c-0.5,0-0.8,0-0.9,0c-0.3,0-0.4,0-0.4-0.1c0-0.1,0.3-0.1,0.8-0.2c0.1,0,0.2,0,0.3,0c0.1,0,0.2-0.1,0.2-0.2
		c0,0-0.1-0.2-0.2-0.6l-0.3-0.9c-0.1-0.2-0.2-0.6-0.4-1.1h-0.3h-1.1c-0.4,0-0.8,0-1.2,0c-0.1,0.2-0.2,0.6-0.5,1.3l-0.3,0.9
		c0,0.1-0.1,0.3-0.1,0.3c0,0.2,0.1,0.3,0.3,0.3c0,0,0.3,0,0.7,0.1c0.1,0,0.2,0,0.2,0.1c0,0.1-0.1,0.1-0.3,0.1H408
		c-0.1,0-0.1,0-0.2,0c-0.1,0-0.2,0-0.2-0.1c0-0.1,0.1-0.1,0.4-0.1c0.4,0,0.6-0.1,0.7-0.2c0.1-0.1,0.3-0.5,0.5-1.2
		c0.2-0.5,0.4-1.2,0.8-2.1l1.7-4.6c0.1-0.2,0.2-0.5,0.3-1c0.1-0.3,0.2-0.5,0.2-0.5c0.1,0,0.2,0.2,0.3,0.6c0.2,0.5,1,2.7,2.5,6.5
		c0.2,0.5,0.4,1,0.6,1.5c0.2,0.4,0.3,0.7,0.5,0.8c0.1,0.1,0.4,0.1,0.9,0.1C417,457.6,417.1,457.6,417.1,457.7z M412.7,454.5
		c0,0,0-0.1-0.1-0.3c-0.4-1.1-0.6-1.8-0.8-2.3c0-0.1-0.1-0.3-0.2-0.5l-0.1-0.2c-0.2,0.4-0.4,1-0.6,1.7c-0.3,0.8-0.5,1.3-0.6,1.7
		c0.1,0,0.2,0,0.3,0c0.1,0,0.2,0,0.3,0h0.8C411.9,454.5,412.2,454.5,412.7,454.5z"/>
	<path class="st1" d="M430.3,448.3c0,0.1-0.1,0.1-0.2,0.1c-0.4,0-0.7,0.1-0.8,0.1c-0.1,0.1-0.2,0.3-0.4,0.7c-0.1,0.2-0.2,0.5-0.4,1
		c-0.1,0.4-0.3,0.9-0.6,1.7c-0.1,0.4-0.3,0.9-0.6,1.6l-0.7,1.9c-0.5,1.3-0.7,2.1-0.8,2.3c0,0.1-0.1,0.2-0.1,0.2
		c-0.1,0-0.1,0-0.1-0.1c0-0.1-0.1-0.4-0.3-1c-0.2-0.7-0.6-1.6-1-2.7l-0.5-1.1c-0.9,2-1.6,3.6-2,4.7c0,0.1-0.1,0.2-0.2,0.2
		c0,0-0.2-0.2-0.3-0.7l-1.7-4.4c-0.4-1.1-0.9-2.4-1.6-4c-0.1-0.2-0.2-0.3-0.3-0.3c-0.1,0-0.2,0-0.5,0c-0.2,0-0.4,0-0.4-0.1
		c0-0.1,0.1-0.1,0.2-0.1c0,0,0.1,0,0.5,0c0.3,0,0.6,0,0.8,0h0.5h1.4c0,0,0.1,0,0.2,0c0.1,0,0.2,0,0.2,0c0.1,0,0.2,0,0.2,0.1
		c0,0.1-0.1,0.1-0.4,0.1c-0.2,0-0.2,0-0.2,0.1c0,0,0,0.1,0,0.1c0.2,0.6,0.5,1.4,0.9,2.5l1.4,3.7l1-2.2c-0.1-0.4-0.4-1.1-0.8-2.2
		c-0.1-0.2-0.2-0.4-0.3-0.8c0-0.1-0.1-0.2-0.1-0.4c-0.2-0.4-0.3-0.7-0.4-0.8c-0.1-0.1-0.3-0.1-0.6-0.1c-0.1,0-0.1-0.1-0.1-0.1
		c0-0.1,0.1-0.1,0.3-0.1c0,0,0,0,0.1,0c0.1,0,0.3,0,0.6,0h4.9c0.2,0,0.3,0,0.3,0.1c0,0.1-0.1,0.1-0.2,0.1c-0.7,0-1,0.1-1.1,0.3
		c-0.2,0.3-0.5,1-1,2.1c0.3,0.8,0.8,2.2,1.5,4c0.2-0.4,0.3-0.8,0.5-1.3c0.1-0.4,0.4-1.1,0.7-2c0.2-0.6,0.4-1.1,0.5-1.5
		c0.3-0.7,0.4-1.1,0.4-1.3c0-0.2-0.1-0.3-0.3-0.3c-0.1,0-0.2,0-0.5,0c-0.1,0-0.2,0-0.2-0.1s0.1-0.1,0.2-0.1h1.1c0.5,0,0.8,0,1.1,0
		h0.1C430.2,448.2,430.3,448.3,430.3,448.3z M425.5,448.8c0-0.2-0.2-0.4-0.7-0.4c-0.5,0-0.7,0.1-0.7,0.2c0,0.2,0.2,0.8,0.7,1.8
		C425.3,449.6,425.5,449,425.5,448.8z"/>
	<path class="st1" d="M445.6,457.9c0,0.1,0,0.1-0.1,0.1c-0.1,0-0.1,0-0.2,0c-0.3,0-1.2-0.1-2.7-0.1c-0.1,0-0.4,0-0.6,0h-0.4
		c-0.3,0-0.4,0-0.4-0.1c0-0.1,0.1-0.1,0.3-0.1c0.2,0,0.4,0,0.5-0.1c0.2-0.1,0.2-0.2,0.2-0.2c0-0.1,0-0.2,0-0.5v-0.7v-3.2h-2.8
		c-0.2,0-0.3,0-0.5,0v4.3c0,0.2,0.2,0.4,0.6,0.4c0.3,0,0.5,0.1,0.5,0.1c0,0,0.1,0,0.1,0.1c0,0.1,0,0.1-0.1,0.1c-0.1,0-0.4,0-1,0
		c-0.5,0-0.7,0-0.7,0c-0.1,0-0.3,0-0.9,0c-0.5,0-1,0-1.5,0h-0.1c-0.2,0-0.3,0-0.3-0.1c0-0.1,0.1-0.1,0.2-0.1c0.4,0,0.7-0.1,0.9-0.2
		c0.1,0,0.1-0.3,0.1-0.7v-7.7c0-0.3-0.1-0.5-0.2-0.5c-0.2-0.1-0.4-0.1-0.8-0.1c-0.1,0-0.2,0-0.2-0.1c0,0,0.1-0.1,0.2-0.1
		c0,0,0.3,0,1,0h1.7c0.4,0,0.7,0,1.1,0c0.2,0,0.3,0,0.3,0c0.1,0,0.2,0,0.2,0.1c0,0.1,0,0.1-0.1,0.1c0,0-0.2,0-0.5,0
		c-0.3,0-0.4,0.1-0.5,0.2c-0.1,0.1-0.1,0.3-0.1,0.6v3.3l0.3,0c0.9,0,1.9,0,3,0v-3.1c0-0.6-0.2-1-0.7-1c-0.3,0-0.5,0-0.5-0.1
		c0-0.1,0.1-0.1,0.2-0.1h0.1c0.1,0,0.4,0,0.8,0c0.4,0,0.8,0,1.2,0h1.1h1c0.1,0,0.1,0,0.1,0.1c0,0.1-0.2,0.1-0.5,0.1
		c-0.3,0-0.6,0.1-0.6,0.2c-0.1,0.1-0.1,0.4-0.1,0.9v6.8c0,0.6,0.1,1,0.2,1.1c0.2,0.1,0.4,0.2,0.8,0.2
		C445.5,457.7,445.6,457.8,445.6,457.9z"/>
	<path class="st1" d="M452.4,457.8c0,0.1-0.1,0.1-0.2,0.1c-0.1,0-0.1,0-0.2,0c-0.6,0-1,0-1.4,0c-0.4,0-1,0-1.8,0c-0.3,0-0.5,0-0.6,0
		c-0.1,0-0.2,0-0.2-0.1c0,0,0-0.1,0.1-0.1c0.1,0,0.2,0,0.5,0c0.3-0.1,0.5-0.1,0.5-0.3c0-0.1,0.1-0.5,0.1-1.1v-6.7c0-0.2,0-0.3,0-0.5
		c0-0.2,0-0.2,0-0.2c0-0.2-0.2-0.3-0.7-0.3c-0.3,0-0.4,0-0.4-0.1s0-0.1,0.1-0.1c0,0,0.2,0,0.4,0c-0.1,0,0.1,0,0.5,0
		c0.4,0,0.8,0,1.1,0h0.7c0.1,0,0.4,0,0.6,0c0.3,0,0.5,0,0.6,0h0.1c0.1,0,0.2,0,0.2,0.1c0,0.1,0,0.1-0.1,0.1c0,0-0.2,0-0.4,0
		c-0.3,0-0.5,0.1-0.5,0.2l0,0.3v7.9c0,0.4,0,0.6,0.1,0.7c0.1,0.1,0.4,0.1,0.9,0.2C452.3,457.7,452.4,457.7,452.4,457.8z"/>
	<path class="st1" d="M464.2,453c0,1.1-0.2,2-0.7,2.7c-0.5,0.8-1.2,1.4-2.2,1.8c-0.7,0.3-1.6,0.4-2.9,0.4c0,0-0.1,0-0.3,0
		s-0.5,0-0.8,0h-0.5c0,0-0.3,0-0.9,0h-0.9c-0.1,0-0.2,0-0.2-0.1c0-0.1,0.1-0.1,0.4-0.1c0.4,0,0.6-0.1,0.7-0.2c0-0.1,0.1-0.3,0.1-0.8
		v-7.1c0-0.4,0-0.7-0.1-0.8c-0.1-0.2-0.3-0.2-0.7-0.2c-0.2,0-0.3,0-0.3-0.1c0-0.1,0.1-0.1,0.2-0.1h0.3c0.6,0,1.1,0,1.6,0
		c0.7,0,1.3,0,1.7,0c1.7,0,3,0.3,3.9,1C463.6,450.2,464.2,451.4,464.2,453z M461.7,453c0-1.5-0.2-2.7-0.7-3.4
		c-0.5-0.7-1.2-1.1-2.1-1.1c-0.4,0-0.6,0-0.7,0.1c-0.1,0.1-0.2,0.3-0.2,0.7v7.1c0,0.6,0,1,0.1,1c0.1,0.1,0.4,0.2,0.7,0.2
		C460.8,457.6,461.7,456.1,461.7,453z"/>
	<path class="st1" d="M474.2,455.4c0,0,0,0.5,0,1.3c0,0.4,0,0.8,0,1c0,0.2,0,0.3,0,0.3c-2.5-0.1-4.6-0.1-6.4-0.1h-1.2
		c-0.2,0-0.3,0-0.3-0.1c0-0.1,0-0.1,0.1-0.1c0,0,0.2,0,0.4,0c0.4,0,0.7-0.2,0.7-0.4c0-0.1,0-0.3,0-0.4v-7.1c0-0.6,0-0.9,0-0.9
		c0-0.1-0.1-0.3-0.1-0.3c-0.1-0.1-0.3-0.1-0.5-0.1c-0.3,0-0.4,0-0.4-0.1c0-0.1,0.1-0.1,0.4-0.1c0.3,0,0.6,0,1.1,0c1.7,0,3.1,0,4.2,0
		h0.9c0.2,0,0.5,0,0.8,0l0.1,1.5c0,0.5,0.1,0.8,0.1,0.9c0,0.1,0,0.1-0.1,0.1c-0.1,0-0.2-0.1-0.2-0.4c-0.1-0.6-0.3-1.1-0.8-1.4
		c-0.4-0.3-1.1-0.4-1.9-0.4c-0.3,0-0.7,0-1.3,0v4.1c1,0,1.7-0.1,1.9-0.2s0.4-0.6,0.5-1.2c0-0.3,0.1-0.5,0.2-0.5
		c0.1,0,0.1,0.1,0.1,0.3s0,0.5,0,1c0,0.2,0,0.4,0,0.7c0,0.8,0,1.4,0,1.8c0,0.1,0,0.1,0,0.2c0,0.1,0,0.2-0.1,0.2
		c-0.1,0-0.1,0-0.1-0.1c0,0,0-0.2-0.1-0.5c-0.1-0.7-0.2-1.1-0.4-1.2c-0.2-0.2-0.5-0.2-1.1-0.2h-1v4.7h0.9c1,0,1.6,0,1.9-0.1
		c0.3,0,0.5-0.1,0.8-0.3c0.2-0.2,0.4-0.4,0.5-0.6c0.1-0.2,0.2-0.6,0.3-1.2c0-0.1,0.1-0.2,0.1-0.2
		C474.1,455.2,474.2,455.3,474.2,455.4z"/>
</g>
<g>
	<path class="st1" d="M371.4,356c0,0.1-0.1,0.1-0.2,0c-0.1,0-0.1,0-0.2,0l-1.2-0.3l-1.2-0.2c0,0-0.1,0-0.1,0c-0.1,0-0.2-0.1-0.2-0.1
		c0-0.1,0.1-0.1,0.3,0c0.5,0.1,0.8,0.1,0.9,0c0,0,0,0,0-0.1l0-0.3l0-0.1c0-0.2,0-0.7-0.1-1.4l-2-0.5c-0.6,0.9-0.9,1.4-1,1.6
		c0,0.1,0,0.1,0.1,0.2c0,0,0.2,0.1,0.5,0.1c0.2,0,0.3,0.1,0.2,0.2c0,0.1-0.1,0.1-0.3,0c-0.3-0.1-0.6-0.2-1-0.3
		c-0.1,0-0.2-0.1-0.3-0.1s-0.2,0-0.3,0c-0.1,0-0.1,0-0.1,0c-0.1,0-0.1-0.1-0.1-0.1c0-0.1,0.1-0.1,0.3,0c0.2,0,0.3,0,0.4,0
		c0.1,0,0.2-0.1,0.3-0.3c1.3-2.1,2.4-3.8,3.3-5.1c0-0.1,0.1-0.1,0.1-0.2l0.1-0.2c0-0.1,0.1-0.1,0.1-0.1c0,0,0,0,0,0.1
		c0,0.3,0.1,0.8,0.2,1.6c0.1,0.7,0.3,2.3,0.6,4.9c0,0.2,0.1,0.3,0.1,0.3c0.1,0.1,0.2,0.1,0.5,0.2C371.3,355.9,371.4,355.9,371.4,356
		z M369.4,353.2c0-0.3-0.1-0.8-0.2-1.5l-0.1-1.4c-0.4,0.6-1,1.4-1.6,2.5L369.4,353.2z"/>
	<path class="st1" d="M380.2,351c0,0.1-0.1,0.1-0.2,0c0,0-0.1,0-0.2,0c0,0-0.1,0-0.1,0c-0.2,0-0.3,0-0.3,0.1c0,0,0,0.1-0.1,0.2
		l-0.6,3.5c-0.2,0.9-0.4,1.6-0.9,1.9c-0.4,0.4-1,0.5-1.8,0.3c-0.9-0.2-1.5-0.5-1.8-1.1c-0.2-0.4-0.2-1-0.1-1.8l0.7-3.8
		c0-0.1-0.1-0.2-0.2-0.2c0,0-0.2,0-0.4-0.1c-0.1,0-0.2-0.1-0.1-0.1c0-0.1,0.1-0.1,0.1-0.1l0.2,0c0,0,0.1,0,0.2,0c0.1,0,0.2,0,0.3,0
		l1.3,0.2c0,0,0.1,0,0.1,0c0.1,0,0.2,0.1,0.1,0.1c0,0,0,0.1-0.1,0.1c0,0-0.2,0-0.4,0c-0.1,0-0.1,0-0.2,0c-0.1,0-0.1,0.1-0.1,0.1
		c0,0,0,0.2-0.1,0.5l-0.6,3.4c-0.1,0.8-0.1,1.4,0.1,1.8c0.2,0.3,0.6,0.6,1.1,0.7c1,0.2,1.6-0.3,1.9-1.3c0-0.2,0.2-0.8,0.4-2.1
		l0.1-0.5l0.1-0.8l0.1-0.6c0-0.1,0-0.1,0-0.2c0-0.1,0-0.1,0-0.1c0-0.1,0-0.2-0.2-0.3c0,0-0.2,0-0.4-0.1c-0.1,0-0.2-0.1-0.2-0.1
		c0-0.1,0.1-0.1,0.1-0.1c0.1,0,0.1,0,0.1,0c0.1,0,0.3,0.1,0.8,0.1c0.1,0,0.1,0,0.2,0c0.1,0,0.1,0,0.2,0l0.1,0
		C380.1,350.9,380.2,350.9,380.2,351z"/>
	<path class="st1" d="M385.9,356.4c-0.1,0.5-0.3,1-0.8,1.3c-0.5,0.3-1,0.5-1.6,0.4c-0.3,0-0.7-0.2-1.2-0.5c-0.1-0.1-0.2-0.1-0.3-0.1
		c-0.1,0-0.1,0.1-0.2,0.2c0,0.1-0.1,0.1-0.1,0.1c-0.1,0-0.1,0-0.1-0.1c0-0.1,0-0.1,0-0.1c0.1-0.4,0.2-0.7,0.2-1.1c0-0.1,0-0.2,0-0.5
		c0,0,0-0.1,0-0.2c0-0.1,0.1-0.1,0.1-0.1c0.1,0,0.1,0.1,0.1,0.2c0,1.2,0.5,1.8,1.4,1.9c0.4,0,0.7,0,0.9-0.2c0.2-0.2,0.4-0.5,0.4-0.9
		c0-0.4,0-0.7-0.2-0.9c-0.2-0.3-0.5-0.6-1-0.9c-0.6-0.4-1-0.7-1.2-1c-0.2-0.3-0.3-0.7-0.2-1.1c0.1-0.5,0.3-0.9,0.7-1.2
		c0.4-0.3,0.8-0.4,1.3-0.4c0.2,0,0.5,0.1,0.9,0.3c0.1,0.1,0.2,0.1,0.3,0.1c0.1,0,0.1,0,0.1,0c0,0,0.1-0.1,0.1-0.2
		c0-0.1,0.1-0.1,0.1-0.1c0.1,0,0.1,0,0.1,0.1c0,0.1,0,0.1,0,0.1c0,0.2-0.1,0.3-0.1,0.5c0,0.3,0,0.5,0,0.7l0,0.2c0,0.1,0,0.1-0.1,0.1
		c-0.1,0-0.1-0.1-0.1-0.2c0-0.4-0.2-0.7-0.4-1s-0.5-0.4-0.8-0.5c-0.3,0-0.6,0-0.8,0.2c-0.2,0.2-0.3,0.4-0.4,0.8c0,0.4,0.1,0.7,0.3,1
		c0.1,0.2,0.4,0.4,0.9,0.7c0.6,0.4,1,0.7,1.2,1.1C385.9,355.6,386,356,385.9,356.4z"/>
	<path class="st1" d="M393.8,353.9c0,0.1,0,0.1-0.1,0.1c-0.1,0-0.1-0.1-0.1-0.3c0-0.1,0-0.2,0-0.3c0-0.2-0.1-0.4-0.2-0.6
		c-0.1-0.2-0.3-0.4-0.6-0.4c-0.2-0.1-0.4-0.1-0.5-0.1c-0.3,0-0.5,0-0.5,0l-0.3,5.8c0,0.2,0,0.4,0.2,0.4c0.1,0,0.2,0.1,0.5,0.1
		c0.1,0,0.1,0,0.1,0.1c0,0.1-0.1,0.1-0.2,0.1c-0.1,0-0.1,0-0.1,0c-0.4,0-0.7-0.1-0.8-0.1c-0.2,0-0.4,0-0.6,0c-0.2,0-0.4,0-0.7,0
		c-0.1,0-0.2,0-0.2-0.1c0-0.1,0.1-0.1,0.4-0.1c0.2,0,0.3,0,0.4-0.1c0,0,0.1-0.2,0.1-0.4l0.3-5.7c-0.6,0-1,0-1.2,0
		c-0.4,0.1-0.7,0.5-0.8,1.1c0,0.2-0.1,0.3-0.2,0.3c-0.1,0-0.1-0.1-0.1-0.2c0-0.1,0-0.1,0-0.2l0-0.2c0-0.3,0.1-0.7,0.2-1.2l0.4,0
		l1.9,0.1c0.2,0,0.6,0,1.1,0.1l1.6,0.1c0,0.4,0,0.9,0,1.6C393.8,353.7,393.8,353.8,393.8,353.9C393.8,353.8,393.8,353.8,393.8,353.9
		z"/>
	<path class="st1" d="M401.7,358.6c0,0.3-0.2,0.4-0.7,0.4c-0.5,0-0.9-0.2-1.2-0.6c-0.1-0.2-0.2-0.4-0.2-0.5c0-0.2-0.1-0.6-0.2-1.3
		c0-0.4-0.2-0.7-0.4-0.9c-0.2-0.2-0.6-0.3-1.1-0.3l0,3c0,0.1,0.1,0.2,0.3,0.2c0.1,0,0.2,0,0.4,0c0.1,0,0.1,0,0.1,0.1
		c0,0.1-0.1,0.1-0.2,0.1h-0.1c-0.1,0-0.3,0-0.8,0c-0.1,0-0.3,0-0.5,0c-0.2,0-0.4,0-0.4,0h-0.4c-0.1,0-0.2,0-0.2-0.1
		c0,0,0.1-0.1,0.3-0.1c0.3,0,0.5,0,0.5-0.1c0,0,0-0.2,0-0.4l0-5.3c0-0.3,0-0.4-0.1-0.5c-0.1-0.1-0.2-0.1-0.5-0.1
		c-0.2,0-0.2,0-0.2-0.1c0-0.1,0.1-0.1,0.2-0.1c0,0,0,0,0.1,0l1.3,0c0.1,0,0.3,0,0.5,0c0.3,0,0.4,0,0.5,0c0.6,0,1.1,0.1,1.4,0.4
		c0.3,0.3,0.5,0.6,0.5,1.1c0,0.4-0.2,0.8-0.5,1.1c-0.4,0.3-0.8,0.5-1.5,0.5c-0.1,0-0.1,0-0.1,0c0,0,0,0,0.1,0
		c0.7,0.1,1.1,0.3,1.4,0.7c0.3,0.4,0.4,1,0.5,1.9c0.1,0.5,0.2,0.8,0.5,0.8c0.1,0,0.1,0,0.1-0.1c0,0,0,0,0,0c0-0.1,0-0.1,0-0.2
		c0-0.1,0.1-0.2,0.2-0.2C401.6,358.3,401.7,358.4,401.7,358.6z M399.7,353.8c0-0.9-0.4-1.4-1.2-1.4c-0.2,0-0.4,0-0.4,0.1
		c-0.1,0.1-0.1,0.2-0.1,0.3l0,2.4c0.6,0,1.1-0.1,1.3-0.3C399.6,354.7,399.7,354.3,399.7,353.8z"/>
	<path class="st1" d="M410.6,358.3c0,0.1,0,0.1-0.1,0.1c-0.1,0-0.1,0-0.2,0l-1.2,0l-1.2,0.1c0,0-0.1,0-0.1,0c-0.1,0-0.2,0-0.2-0.1
		c0-0.1,0.1-0.1,0.3-0.1c0.6,0,0.8-0.1,0.8-0.2c0,0,0,0,0-0.1l-0.1-0.2l-0.1-0.1c-0.1-0.2-0.2-0.6-0.5-1.3l-2,0.1
		c-0.3,1-0.5,1.6-0.5,1.8c0,0.1,0,0.1,0.1,0.2c0,0,0.2,0,0.5,0c0.2,0,0.3,0,0.3,0.1c0,0.1-0.1,0.1-0.2,0.1c-0.3,0-0.6,0-1,0
		c-0.1,0-0.2,0-0.3,0c-0.1,0-0.2,0-0.3,0.1c-0.1,0-0.1,0-0.1,0c-0.1,0-0.1,0-0.1-0.1c0-0.1,0.1-0.1,0.3-0.1c0.2,0,0.3-0.1,0.4-0.1
		c0.1-0.1,0.1-0.2,0.2-0.3c0.7-2.4,1.2-4.3,1.6-5.8c0-0.1,0-0.2,0.1-0.3l0-0.2c0-0.1,0-0.1,0.1-0.1c0,0,0,0,0.1,0.1
		c0.1,0.2,0.3,0.7,0.7,1.5c0.3,0.6,0.9,2.1,2,4.5c0.1,0.1,0.1,0.2,0.2,0.3c0.1,0,0.2,0,0.5,0C410.5,358.2,410.6,358.2,410.6,358.3z
		 M407.8,356.2c-0.1-0.3-0.3-0.7-0.6-1.4l-0.5-1.3c-0.2,0.7-0.5,1.7-0.8,2.8L407.8,356.2z"/>
	<path class="st1" d="M418,356.6c0,0.2,0,0.4,0.1,0.8l-0.1,0c0,0-0.1,0-0.3,0c-0.1,0-0.3,0-0.5,0l-3.9,0.5c-0.1,0-0.2,0-0.2-0.1
		c0,0,0.1-0.1,0.2-0.1c0.2,0,0.4-0.1,0.4-0.1c0,0,0.1-0.2,0-0.4L413,352c0-0.2-0.1-0.4-0.1-0.4c-0.1,0-0.2,0-0.5,0
		c-0.1,0-0.2,0-0.2-0.1c0-0.1,0-0.1,0.1-0.1l0.1,0c0.2,0,0.6-0.1,1.2-0.1c0.1,0,0.2,0,0.3-0.1c0.2,0,0.3-0.1,0.4-0.1l0.1,0
		c0.1,0,0.2,0,0.2,0.1c0,0,0,0.1,0,0.1c0,0-0.1,0-0.3,0.1c-0.2,0-0.3,0.1-0.3,0.1c0,0.1,0,0.2,0,0.5l0.7,5.6c0.2,0,0.4,0,0.7-0.1
		c0.7-0.1,1.3-0.2,1.6-0.3c0.3-0.1,0.5-0.3,0.6-0.5c0.1-0.2,0.1-0.5,0.1-0.9c0-0.1,0-0.1,0.1-0.1c0.1,0,0.1,0,0.1,0.1l0,0.2
		c0,0,0,0,0,0.1c0,0,0,0.1,0,0.1L418,356.6z"/>
	<path class="st1" d="M423.2,356.4c0,0.1,0,0.1-0.1,0.1l-0.1,0c0,0-0.5,0.1-1.3,0.2c-0.2,0-0.3,0.1-0.5,0.1c-0.1,0-0.2,0-0.4,0.1
		c-0.1,0-0.1,0-0.1-0.1c0-0.1,0.1-0.1,0.2-0.1c0.3-0.1,0.4-0.1,0.4-0.2c0-0.1,0-0.2,0-0.6l-0.9-5c-0.1-0.3-0.1-0.5-0.1-0.5
		c-0.1-0.1-0.2-0.1-0.5,0c-0.1,0-0.2,0-0.2,0c0-0.1,0-0.1,0.1-0.1l1.3-0.2c0.1,0,0.3,0,0.6-0.1l0.4-0.1c0.1,0,0.2,0,0.2,0.1
		c0,0-0.1,0.1-0.4,0.2c-0.2,0-0.3,0.1-0.3,0.1c0,0.1,0,0.2,0,0.4l0.9,5c0.1,0.4,0.1,0.6,0.2,0.6c0.1,0.1,0.3,0.1,0.6,0
		C423.1,356.4,423.2,356.4,423.2,356.4z"/>
	<path class="st1" d="M431.9,354.5c0,0.1,0,0.1-0.1,0.1c-0.1,0-0.1,0-0.2,0l-1.2,0.2l-1.2,0.3c0,0-0.1,0-0.1,0c-0.1,0-0.2,0-0.2-0.1
		c0-0.1,0.1-0.1,0.2-0.2c0.5-0.1,0.8-0.3,0.8-0.4c0,0,0,0,0-0.1l-0.1-0.2l-0.1-0.1c-0.1-0.2-0.3-0.6-0.7-1.2l-2,0.5
		c-0.1,1.1-0.2,1.7-0.2,1.8c0,0.1,0.1,0.1,0.1,0.1c0,0,0.2,0,0.5-0.1c0.2,0,0.3,0,0.3,0c0,0.1-0.1,0.1-0.2,0.2
		c-0.3,0.1-0.6,0.1-1,0.2c-0.1,0-0.2,0-0.3,0.1c-0.1,0-0.2,0.1-0.3,0.1c0,0-0.1,0-0.1,0c-0.1,0-0.1,0-0.2-0.1c0-0.1,0.1-0.1,0.3-0.2
		c0.2-0.1,0.3-0.1,0.4-0.2c0.1-0.1,0.1-0.2,0.1-0.4c0.3-2.5,0.5-4.5,0.6-6c0-0.1,0-0.2,0-0.3v-0.2c0-0.1,0-0.1,0.1-0.1
		c0,0,0,0,0.1,0c0.1,0.2,0.4,0.7,0.9,1.4c0.4,0.6,1.3,1.9,2.7,4.1c0.1,0.1,0.2,0.2,0.3,0.2c0.1,0,0.3,0,0.5,0
		C431.8,354.4,431.9,354.4,431.9,354.5z M428.9,352.9c-0.2-0.3-0.4-0.7-0.8-1.3l-0.8-1.2c-0.1,0.7-0.2,1.7-0.3,2.9L428.9,352.9z"/>
</g>
<g>
	<path class="st1" d="M370.7,294c0,0.1,0,0.1-0.2,0.1l-0.1,0c-0.1,0-0.2,0.1-0.5,0.1c-0.2,0.1-0.4,0.1-0.5,0.1
		c-0.2,0-0.4,0.1-0.6,0.2c-0.2,0.1-0.4,0.1-0.5,0.1l-0.1,0c-0.1,0-0.2,0-0.2,0c0-0.1,0.1-0.1,0.2-0.2c0.3-0.1,0.5-0.2,0.5-0.2
		c0,0,0-0.2-0.1-0.6l-1.2-4.7c0,0,0,0.1,0,0.3c-0.1,0.8-0.1,2-0.2,3.6l0,1.6c0,0.3,0,0.5-0.1,0.5c0,0-0.1-0.1-0.2-0.2
		c-0.3-0.5-1.2-1.8-2.6-3.8l-0.6-0.9c0,0.1,0.1,0.3,0.1,0.5l0.8,3c0.3,1.1,0.4,1.7,0.5,1.7c0.1,0.1,0.2,0.1,0.5,0
		c0.2-0.1,0.3,0,0.3,0c0,0.1,0,0.1-0.2,0.2c-0.1,0-0.2,0-0.2,0c-0.1,0-0.2,0-0.2,0l-1,0.3c-0.1,0-0.2,0-0.2,0c0-0.1,0.1-0.1,0.5-0.2
		c0.1,0,0.2-0.1,0.2-0.1c0-0.1,0-0.2-0.1-0.5l-1.1-4.4c-0.1-0.5-0.2-0.8-0.2-0.8c0-0.1-0.1-0.1-0.2-0.1c-0.1,0-0.3,0-0.5,0.1
		c-0.1,0-0.2,0-0.2,0c0-0.1,0.1-0.1,0.2-0.2c0,0,0.1,0,0.2,0l0.5-0.1c0.4-0.1,0.6-0.2,0.8-0.2c0.1,0.1,0.4,0.5,0.9,1.3
		c0.2,0.3,0.9,1.3,2,2.9c0-0.4,0-0.8,0-1.3l0.2-3.3c0-0.2,0-0.3,0-0.5l1.4-0.4c0.2-0.1,0.3-0.1,0.4-0.1c0,0,0.1,0,0.1,0.1
		c0,0.1,0,0.1-0.1,0.1c-0.2,0-0.3,0.1-0.3,0.1c-0.1,0.1-0.2,0.1-0.3,0.2c0,0.1,0.1,0.4,0.2,1.1l1.1,4.3c0.1,0.2,0.1,0.4,0.2,0.4
		c0.1,0,0.3,0,0.6-0.1l0.1,0C370.6,293.9,370.7,293.9,370.7,294z"/>
	<path class="st1" d="M377.7,291.1c0,0,0,0.2,0.1,0.5c0,0.3,0.1,0.5,0.1,0.8l0.1,0.3c-0.6,0.1-1.8,0.3-3.6,0.6
		c-0.2,0-0.4,0.1-0.6,0.1c-0.2,0-0.4,0.1-0.4,0.1l-0.1,0c-0.1,0-0.2,0-0.2,0c0,0,0-0.1,0-0.1c0,0,0.1,0,0.3-0.1
		c0.2,0,0.3-0.1,0.3-0.2s0-0.2,0-0.4l-1-5.2c0-0.2-0.1-0.3-0.1-0.3c-0.1,0-0.2,0-0.5,0c-0.1,0-0.2,0-0.2-0.1c0-0.1,0.1-0.1,0.2-0.1
		l1.6-0.3c0.1,0,0.4-0.1,1.1-0.2c0.6-0.1,1.1-0.2,1.3-0.2c0.2,0,0.4-0.1,0.5-0.1c0.1,0.3,0.2,0.6,0.3,1.1l0.1,0.4c0,0,0,0.1,0,0.1
		c0,0.1,0,0.1-0.1,0.1c-0.1,0-0.1-0.1-0.2-0.2c-0.2-0.5-0.5-0.9-0.8-1c-0.2-0.1-0.7,0-1.6,0.1l-0.8,0.1l0.5,2.7l0.2,0
		c0.7-0.1,1.1-0.3,1.2-0.4c0.1-0.1,0.2-0.5,0.1-1c0-0.1,0-0.2,0.1-0.2c0.1,0,0.1,0,0.1,0.1c0,0.1,0,0.3,0.1,0.5
		c0,0.2,0.1,0.4,0.1,0.5c0.1,0.7,0.2,1.1,0.3,1.4c0,0.1,0,0.1,0,0.2c0,0.1,0,0.1-0.1,0.1c0,0-0.1,0-0.1-0.1c0,0-0.1-0.2-0.2-0.5
		c-0.1-0.4-0.3-0.6-0.6-0.6c-0.1,0-0.4,0-0.9,0.1l-0.4,0.1l0.6,3.1c1.4-0.3,2.2-0.4,2.4-0.5c0.4-0.2,0.6-0.6,0.5-1.3
		c0-0.2,0-0.2,0.1-0.3C377.7,290.9,377.7,291,377.7,291.1z"/>
	<path class="st1" d="M385.3,290.8c0,0.2,0,0.4,0.1,0.8l-0.1,0c0,0-0.1,0-0.3,0c-0.1,0-0.3,0-0.5,0l-3.9,0.5c-0.1,0-0.2,0-0.2-0.1
		c0,0,0.1-0.1,0.2-0.1c0.2,0,0.4-0.1,0.4-0.1c0,0,0.1-0.2,0-0.4l-0.7-5.3c0-0.2-0.1-0.4-0.1-0.4c-0.1,0-0.2,0-0.5,0
		c-0.1,0-0.2,0-0.2-0.1c0-0.1,0-0.1,0.1-0.1l0.1,0c0.2,0,0.6-0.1,1.2-0.1c0.1,0,0.2,0,0.3-0.1c0.2,0,0.3-0.1,0.4-0.1l0.1,0
		c0.1,0,0.2,0,0.2,0.1c0,0,0,0.1,0,0.1c0,0-0.1,0-0.3,0.1c-0.2,0-0.3,0.1-0.3,0.1c0,0.1,0,0.2,0,0.5l0.7,5.5c0.2,0,0.4,0,0.7-0.1
		c0.7-0.1,1.2-0.2,1.5-0.3c0.3-0.1,0.5-0.3,0.6-0.5c0.1-0.2,0.1-0.5,0.1-0.9c0-0.1,0-0.1,0.1-0.1c0.1,0,0.1,0,0.1,0.1l0,0.2
		c0,0,0,0,0,0.1c0,0,0,0.1,0,0.1L385.3,290.8z"/>
	<path class="st1" d="M392.3,289.3c0,0.6-0.2,1.1-0.8,1.5c-0.3,0.2-0.7,0.3-1.2,0.4c-0.1,0-0.6,0-1.3,0.1l-1.2,0.1
		c-0.1,0-0.2,0-0.2-0.1c0-0.1,0.1-0.1,0.3-0.1c0.2,0,0.4,0,0.4-0.1c0-0.1,0-0.2,0-0.4l-0.4-5.1c0-0.3,0-0.4-0.1-0.5
		c0-0.1-0.2-0.1-0.5-0.1c-0.2,0-0.3,0-0.3-0.1c0-0.1,0.1-0.1,0.2-0.1c0,0,0,0,0.1,0c0.1,0,0.1,0,0.2,0l1.8-0.1c0.7,0,1.2,0,1.5,0.2
		c0.4,0.2,0.6,0.6,0.7,1.1c0,0.4-0.1,0.8-0.4,1.1c-0.3,0.3-0.7,0.5-1.3,0.6l0,0.1c0.6,0,1,0.1,1.4,0.3
		C392,288.3,392.3,288.7,392.3,289.3z M390.8,286.1c0-0.6-0.2-1-0.5-1.2c-0.2-0.1-0.4-0.1-0.8-0.1c-0.1,0-0.3,0-0.5,0.1l0.2,2.7
		l0.1,0l0.5-0.1c0.4,0,0.6-0.2,0.8-0.4C390.8,286.9,390.8,286.6,390.8,286.1z M391.3,289.3c-0.1-0.8-0.4-1.3-1.1-1.4
		c-0.2,0-0.5,0-1.1,0l0.2,2.8c0,0.2,0,0.3,0.1,0.3c0.1,0,0.2,0.1,0.5,0c0.4,0,0.8-0.2,1-0.5C391.2,290.2,391.3,289.8,391.3,289.3z"
		/>
	<path class="st1" d="M401,287.6c0,0.9-0.3,1.7-0.8,2.4c-0.6,0.7-1.3,1-2.1,1c-0.9,0-1.6-0.3-2.2-1c-0.6-0.7-0.9-1.5-0.9-2.4
		c0-1,0.3-1.8,0.8-2.4c0.6-0.6,1.3-0.9,2.2-1c0.8,0,1.5,0.3,2.1,1C400.7,285.8,401,286.7,401,287.6z M399.9,287.7
		c0-1.2-0.2-2.1-0.7-2.7c-0.3-0.4-0.7-0.6-1.2-0.6c-0.5,0-0.9,0.2-1.2,0.5c-0.5,0.6-0.8,1.5-0.7,2.8c0,1,0.2,1.8,0.5,2.4
		c0.4,0.6,0.9,0.8,1.5,0.8c0.6,0,1-0.3,1.3-0.8C399.8,289.4,399.9,288.7,399.9,287.7z"/>
	<path class="st1" d="M409.7,284.8c0,0.1-0.1,0.1-0.2,0.1c0,0-0.1,0-0.2,0c0,0-0.1,0-0.1,0c-0.2,0-0.3,0-0.3,0.1c0,0,0,0.1,0,0.2
		l-0.2,3.5c-0.1,0.9-0.3,1.6-0.6,2c-0.4,0.4-0.9,0.6-1.7,0.5c-0.9-0.1-1.5-0.4-1.9-0.9c-0.2-0.4-0.3-0.9-0.3-1.7l0.2-3.8
		c0-0.1-0.1-0.2-0.2-0.2c0,0-0.2,0-0.4,0c-0.1,0-0.2-0.1-0.2-0.1c0-0.1,0-0.1,0.1-0.1l0.2,0c0,0,0.1,0,0.2,0c0.1,0,0.2,0,0.3,0
		l1.3,0.1c0,0,0.1,0,0.1,0c0.1,0,0.2,0,0.2,0.1c0,0,0,0.1-0.1,0.1c0,0-0.2,0-0.4,0c-0.1,0-0.1,0-0.2,0c-0.1,0-0.1,0.1-0.1,0.1
		c0,0,0,0.2,0,0.5l-0.2,3.4c-0.1,0.8,0,1.4,0.3,1.7c0.2,0.3,0.6,0.5,1.2,0.5c1,0.1,1.5-0.4,1.7-1.5c0-0.2,0.1-0.9,0.2-2.1l0-0.5
		l0-0.8l0-0.6c0-0.1,0-0.1,0-0.2c0-0.1,0-0.1,0-0.1c0-0.1-0.1-0.2-0.2-0.3c0,0-0.2,0-0.4,0c-0.1,0-0.2,0-0.2-0.1
		c0-0.1,0-0.1,0.1-0.1c0.1,0,0.1,0,0.1,0c0.1,0,0.3,0,0.8,0.1c0.1,0,0.1,0,0.2,0c0.1,0,0.1,0,0.2,0l0.1,0
		C409.6,284.7,409.7,284.8,409.7,284.8z"/>
	<path class="st1" d="M417,291.9c0,0.3-0.3,0.4-0.7,0.3c-0.5-0.1-0.8-0.3-1.1-0.8c-0.1-0.2-0.2-0.4-0.2-0.5c0-0.2,0-0.6,0-1.3
		c0-0.4-0.1-0.7-0.3-0.9c-0.2-0.2-0.5-0.3-1-0.4l-0.4,3c0,0.1,0.1,0.2,0.3,0.3c0.1,0,0.2,0,0.4,0.1c0.1,0,0.1,0,0.1,0.1
		c0,0.1-0.1,0.1-0.2,0.1l-0.1,0c-0.1,0-0.3,0-0.8-0.1c-0.1,0-0.3,0-0.5-0.1c-0.2,0-0.4,0-0.4-0.1l-0.4,0c-0.1,0-0.2-0.1-0.2-0.1
		c0,0,0.1-0.1,0.3,0c0.3,0,0.5,0,0.5-0.1c0,0,0.1-0.1,0.1-0.4l0.7-5.2c0-0.2,0-0.4,0-0.5c0-0.1-0.2-0.1-0.5-0.1
		c-0.2,0-0.2-0.1-0.2-0.1c0-0.1,0.1-0.1,0.2-0.1c0,0,0,0,0.1,0l1.2,0.2c0.1,0,0.3,0,0.5,0.1c0.3,0,0.4,0,0.5,0
		c0.6,0.1,1,0.3,1.3,0.6c0.3,0.3,0.4,0.7,0.4,1.1c-0.1,0.4-0.3,0.8-0.7,1c-0.4,0.2-0.9,0.3-1.5,0.3c-0.1,0-0.1,0-0.1,0
		c0,0,0,0,0.1,0c0.6,0.2,1.1,0.5,1.3,0.9c0.2,0.4,0.3,1,0.3,1.9c0,0.5,0.1,0.8,0.4,0.8c0.1,0,0.1,0,0.1,0c0,0,0,0,0,0
		c0-0.1,0-0.1,0-0.2c0-0.1,0.1-0.2,0.2-0.2C417,291.7,417,291.8,417,291.9z M415.7,287c0.1-0.9-0.2-1.4-1-1.5c-0.2,0-0.4,0-0.4,0
		c-0.1,0-0.1,0.1-0.2,0.3l-0.3,2.4c0.6,0.1,1,0,1.3-0.2C415.4,287.8,415.6,287.5,415.7,287z"/>
	<path class="st1" d="M426.3,287.3c0,0.1-0.1,0.1-0.2,0l-0.2,0l-0.2,0c-0.1,0-0.2,0-0.2,0c0,0-0.1,0.1-0.1,0.3l-1,5.3
		c-0.1,0.3-0.1,0.5-0.1,0.6c0,0.1,0,0.1-0.1,0.1c0,0-0.1-0.1-0.1-0.1l-0.8-2c-0.5-1.1-1.1-2.6-1.8-4.3l-1,5.2c0,0.1,0,0.1,0.1,0.2
		c0.1,0,0.3,0.1,0.6,0.2c0.1,0,0.1,0,0.1,0.1c0,0.1-0.1,0.1-0.3,0c-0.1,0-0.2-0.1-0.5-0.1c-0.1,0-0.2,0-0.3-0.1c0,0,0,0-0.2,0
		c-0.1,0-0.3,0-0.5-0.1l-0.1,0c-0.1,0-0.2-0.1-0.2-0.1c0-0.1,0.1-0.1,0.2,0c0.4,0.1,0.6,0.1,0.6,0.1c0.1,0,0.1-0.2,0.2-0.4l0.9-4.6
		c0.1-0.5,0.1-0.9-0.1-1c-0.1-0.1-0.3-0.1-0.5-0.2c-0.2,0-0.2-0.1-0.2-0.1c0-0.1,0.1-0.1,0.2-0.1c0.1,0,0.3,0.1,0.5,0.1
		c0.2,0.1,0.3,0.1,0.3,0.1c0,0,0.1,0,0.3,0c0.2,0,0.4,0.1,0.6,0.1l2.3,5.4l0.8-4.1c0-0.2,0.1-0.3,0.1-0.4c0,0,0-0.1-0.1-0.1
		c0,0-0.2-0.1-0.4-0.1c-0.2,0-0.3-0.1-0.3-0.1c0-0.1,0.1-0.1,0.2,0l0.3,0.1c0.1,0,0.2,0,0.3,0.1c0.1,0,0.2,0,0.2,0c0,0,0.1,0,0.2,0
		c0.1,0,0.2,0,0.3,0.1l0.3,0.1C426.2,287.2,426.3,287.3,426.3,287.3z"/>
	<path class="st1" d="M432.7,294.1c0,0-0.1,0.2-0.1,0.4c-0.1,0.3-0.2,0.5-0.2,0.8l-0.1,0.3c-0.6-0.2-1.8-0.5-3.5-1
		c-0.2-0.1-0.4-0.1-0.6-0.2c-0.2-0.1-0.3-0.1-0.4-0.1l-0.1,0c-0.1,0-0.2-0.1-0.2-0.1c0,0,0,0,0.1,0c0,0,0.1,0,0.4,0.1
		c0.2,0,0.3,0,0.3,0c0,0,0.1-0.2,0.2-0.4l1.3-5.2c0-0.2,0-0.3,0-0.3c0,0-0.2-0.1-0.5-0.2c-0.1,0-0.1-0.1-0.1-0.1
		c0-0.1,0.1-0.1,0.2,0l1.6,0.4c0.1,0,0.4,0.1,1,0.3c0.6,0.2,1.1,0.3,1.3,0.3c0.2,0,0.4,0.1,0.5,0.1c-0.1,0.3-0.1,0.6-0.2,1.1
		l-0.1,0.4c0,0,0,0.1,0,0.1c0,0.1-0.1,0.1-0.1,0.1c-0.1,0-0.1-0.1-0.1-0.3c0-0.6-0.1-1-0.3-1.2c-0.2-0.2-0.7-0.4-1.5-0.6l-0.7-0.2
		l-0.7,2.7l0.2,0.1c0.7,0.2,1.1,0.2,1.3,0.2c0.2-0.1,0.4-0.3,0.5-0.8c0-0.1,0.1-0.2,0.2-0.2c0.1,0,0.1,0.1,0.1,0.2
		c0,0.1-0.1,0.3-0.1,0.5s-0.1,0.4-0.1,0.5c-0.2,0.7-0.3,1.1-0.3,1.4c0,0.1,0,0.1,0,0.2c0,0.1-0.1,0.1-0.1,0.1c0,0-0.1,0-0.1-0.1
		c0-0.1,0-0.2,0.1-0.5c0-0.4,0-0.6-0.3-0.8c-0.1-0.1-0.4-0.2-0.8-0.3l-0.4-0.1l-0.8,3.1c1.3,0.4,2.1,0.5,2.4,0.5c0.4,0,0.8-0.3,1-1
		c0.1-0.1,0.1-0.2,0.2-0.2C432.7,293.9,432.7,293.9,432.7,294.1z"/>
</g>
<g>
	<path class="st1" d="M333.6,317.9c0,0.8-0.4,1.4-1.2,1.9c-0.8,0.5-1.8,0.7-3.1,0.7c-0.5,0-0.9,0-1.5-0.1c-0.5,1.1-0.8,2.1-0.8,3
		c0,1.2,0.6,1.9,1.7,1.9c0.9,0,1.7-0.4,2.5-1.3c0.2-0.2,0.3-0.3,0.4-0.3c0.1,0,0.1,0,0.1,0.1c0,0.3-0.3,0.7-1,1.2
		c-0.8,0.5-1.5,0.8-2.4,0.8c-0.9,0-1.7-0.3-2.3-0.8c-0.6-0.5-0.9-1.2-0.9-2c0-1.6,0.9-3.1,2.6-4.6c1.5-1.3,2.8-1.9,4-1.9
		C333,316.5,333.6,316.9,333.6,317.9z M332.1,317.5c0-0.4-0.2-0.7-0.7-0.7c-0.5,0-0.9,0.2-1.3,0.5c-0.8,0.6-1.5,1.5-2.2,2.8
		c0.2,0,0.4,0,0.6,0c0.8,0,1.6-0.2,2.3-0.7C331.6,318.9,332.1,318.3,332.1,317.5z"/>
	<path class="st1" d="M342,318.1c0,0.2-0.1,0.4-0.2,0.6c-0.2,0.2-0.3,0.3-0.5,0.3c-0.4,0-0.6-0.2-0.6-0.6c0-0.3,0.1-0.5,0.4-0.5
		c0,0,0.1,0,0.2,0.1c0.1,0,0.2,0.1,0.2,0.1c0.1,0,0.1,0,0.1-0.1c0-0.2-0.2-0.5-0.5-0.7c-0.3-0.2-0.7-0.3-1-0.3
		c-0.5,0-0.8,0.1-1.1,0.4c-0.3,0.3-0.5,0.6-0.5,1c0,0.4,0.3,1.3,1,2.9c0.2,0.4,0.2,0.8,0.2,1.3c0,1-0.3,1.8-1,2.4
		c-0.6,0.6-1.5,1-2.4,1c-0.8,0-1.6-0.2-2.1-0.7c-0.6-0.5-0.9-1.1-0.9-1.7c0-0.4,0.1-0.7,0.3-1c0.2-0.3,0.5-0.4,0.9-0.4
		c0.3,0,0.5,0.1,0.7,0.3c0.2,0.2,0.3,0.4,0.3,0.7c0,0.4-0.2,0.6-0.6,0.6c-0.4,0-0.7-0.1-0.7-0.4c0-0.1,0-0.2,0.1-0.3
		c0-0.1,0.1-0.2,0.1-0.2c0-0.1-0.1-0.2-0.2-0.2c-0.1,0-0.2,0.1-0.3,0.3c-0.1,0.2-0.2,0.4-0.2,0.6c0,0.5,0.2,1,0.7,1.4
		c0.5,0.4,1,0.6,1.6,0.6c0.6,0,1.1-0.2,1.5-0.5c0.4-0.4,0.6-0.8,0.6-1.3c0-0.4-0.2-1-0.5-1.9c-0.3-0.8-0.4-1.5-0.4-2
		c0-0.9,0.3-1.7,0.8-2.3c0.6-0.6,1.2-0.9,2-0.9c0.5,0,1,0.2,1.4,0.5C341.8,317.3,342,317.6,342,318.1z"/>
	<path class="st1" d="M349.4,316.7c0,0.2-0.3,0.3-0.9,0.3h-0.8h-0.4l-2.8,6.4c-0.3,0.7-0.5,1.1-0.5,1.3c0,0.3,0.2,0.4,0.7,0.4
		c0.6,0,1.2-0.3,1.7-1c0.1-0.1,0.2-0.2,0.3-0.2c0.1,0,0.2,0,0.2,0.1c0,0.2-0.2,0.5-0.7,0.9c-0.5,0.5-1.2,0.7-1.9,0.7
		c-0.5,0-0.9-0.1-1.2-0.4s-0.5-0.6-0.5-1c0-0.3,0.2-0.7,0.5-1.4l2.8-5.9h-0.9c-0.2,0-0.4,0-0.4-0.1c0-0.2,0.1-0.3,0.3-0.3h0.2
		c0.1,0,0.2,0,0.3,0c0.2,0,0.4,0,0.6,0l0.4-0.9c0.1-0.3,0.2-0.5,0.3-0.5c0.1,0,0.2,0,0.3,0c0.1,0,0.3,0,0.3,0c0.2,0,0.4-0.1,0.7-0.2
		c0.1,0,0.1,0,0.1,0c0.1,0,0.1,0,0.1,0.1l-0.2,0.5l-0.5,1h0.5h0.8c0.1,0,0.2,0,0.3,0c0.1,0,0.2,0,0.2,0
		C349.3,316.5,349.4,316.6,349.4,316.7z"/>
	<path class="st1" d="M350.9,324.5c0,0.4-0.1,0.6-0.3,0.9c-0.2,0.2-0.5,0.3-0.9,0.3c-0.7,0-1-0.3-1-1c0-0.4,0.1-0.6,0.3-0.9
		c0.2-0.2,0.5-0.3,0.9-0.3C350.6,323.5,350.9,323.8,350.9,324.5z"/>
</g>
<g>
	<path class="st1" d="M453.7,317.6c0,1-0.2,2.1-0.6,3.2c-0.4,1.1-0.9,2.1-1.6,3c-1.1,1.3-2.1,2-3.2,2c-0.6,0-1.1-0.2-1.5-0.5
		s-0.6-0.8-0.6-1.3c0-0.6,0.3-1.6,0.8-2.9l1.2-2.9c0.2-0.4,0.3-0.7,0.3-0.8c0-0.3-0.2-0.4-0.5-0.4c-0.3,0-0.7,0.2-1.1,0.6
		c-0.5,0.4-0.8,0.8-1,1.3c-0.1,0.2-0.2,0.3-0.3,0.3c-0.1,0-0.2,0-0.2-0.1c0-0.3,0.4-0.8,1.2-1.6c0.7-0.7,1.4-1,2.2-1
		c0.4,0,0.8,0.1,1.1,0.3c0.3,0.2,0.4,0.5,0.4,0.9c0,0.4-0.1,0.9-0.4,1.5l-1.2,2.7c-0.4,0.9-0.6,1.7-0.6,2.3c0,0.7,0.3,1.1,0.9,1.1
		c0.9,0,1.9-0.8,2.9-2.4c1-1.6,1.6-3.1,1.6-4.5c0-0.5-0.1-0.7-0.3-0.7c0,0-0.1,0-0.2,0.1c-0.1,0-0.2,0.1-0.3,0.1
		c-0.4,0-0.6-0.2-0.6-0.5c0-0.2,0.1-0.4,0.3-0.6c0.2-0.2,0.4-0.2,0.6-0.2C453.4,316.5,453.7,316.9,453.7,317.6z"/>
	<path class="st1" d="M460,316.6c0,0,0,0.1-0.1,0.3c-0.1,0.2-0.3,0.5-0.5,1l-2.4,5.5c-0.3,0.7-0.5,1.2-0.5,1.4
		c0,0.4,0.2,0.6,0.6,0.6c0.3,0,0.6-0.1,0.9-0.3c0.3-0.2,0.6-0.4,0.8-0.7c0.1-0.2,0.2-0.2,0.3-0.2c0.1,0,0.1,0,0.1,0.1
		c0,0.2-0.2,0.4-0.6,0.8c-0.6,0.5-1.3,0.7-2,0.7c-0.5,0-0.9-0.1-1.2-0.4c-0.3-0.3-0.5-0.6-0.5-1c0-0.4,0.2-0.9,0.5-1.7l2.2-4.9
		c0.1-0.2,0.2-0.4,0.3-0.5c0-0.1,0.1-0.1,0.1-0.1c0-0.1-0.3-0.2-0.9-0.3c-0.1,0-0.2-0.1-0.2-0.1c0-0.1,0.1-0.2,0.2-0.2
		c0,0,0.1,0,0.3,0c0.2,0,0.5,0,0.9,0c0.6,0,1,0,1.2-0.1c0.1-0.1,0.2-0.1,0.3-0.1C459.9,316.4,460,316.5,460,316.6z M461.4,312.6
		c0,0.6-0.3,0.9-0.8,0.9c-0.3,0-0.5-0.1-0.7-0.3c-0.2-0.2-0.3-0.4-0.3-0.7c0-0.6,0.3-0.9,1-0.9C461.2,311.7,461.4,312,461.4,312.6z"
		/>
	<path class="st1" d="M469,318c0,0.7-0.3,1-0.9,1c-0.2,0-0.4-0.1-0.5-0.2c-0.2-0.1-0.2-0.3-0.2-0.5c0-0.3,0.2-0.5,0.6-0.5l0.2,0
		c0.1,0,0.2,0.1,0.3,0.1c0.1,0,0.2-0.1,0.2-0.2c0-0.2-0.1-0.4-0.4-0.6c-0.3-0.2-0.6-0.3-0.9-0.3c-1,0-2,0.8-3,2.3
		c-1,1.6-1.5,3.1-1.5,4.4c0,1.2,0.5,1.8,1.6,1.8c0.8,0,1.6-0.5,2.4-1.4c0.1-0.2,0.3-0.3,0.3-0.3c0.1,0,0.1,0,0.1,0.1
		c0,0.2-0.2,0.4-0.5,0.8c-0.8,0.8-1.7,1.2-2.7,1.2c-0.9,0-1.6-0.3-2.2-0.8c-0.6-0.5-0.8-1.2-0.8-2.1c0-1.5,0.8-3,2.4-4.5
		c1.3-1.3,2.6-1.9,4-1.9c0.5,0,0.9,0.1,1.3,0.4C468.9,317.2,469,317.6,469,318z"/>
</g>
<g>
	<path class="st1" d="M375.5,332.4c0,0.2-0.2,0.3-0.7,0.3h-0.4h-1.2c-0.8,0-1.5,0-2.3,0c-1.4,0-2.3,0-2.7,0c-0.4,0-0.7,0-0.9,0
		c-0.5,0-0.7-0.1-0.7-0.3s0.1-0.3,0.4-0.3c0.4,0,0.9,0,1.4,0c0.6,0,1-0.2,1-0.5c0.1-0.3,0.1-0.9,0.1-1.9v-14.3c0-0.6,0-1-0.1-1.2
		c0-0.1-0.2-0.2-0.4-0.2c-0.1,0-0.8,0.1-2,0.2c-0.2,0-0.4,0-0.5,0c-0.2,0-0.4-0.1-0.4-0.2c0-0.2,0.1-0.3,0.4-0.3
		c0.9-0.1,1.9-0.4,2.9-0.9c1-0.5,1.7-1,2.3-1.7c0.2-0.2,0.4-0.3,0.5-0.3c0.2,0,0.2,0.1,0.2,0.3v0.6c0,0.2,0,0.3,0,0.5v18.2
		c0,0.7,0,1.2,0.1,1.3c0.1,0.1,0.3,0.2,0.7,0.2h0.7h0.5h0.5C375.4,332,375.5,332.2,375.5,332.4z"/>
	<path class="st1" d="M392.8,320.5c0,2.7-0.6,5.1-1.8,7.2c-1.2,2.2-2.8,3.7-4.8,4.5c-1.5,0.6-2.9,0.9-4.4,0.9
		c-0.5,0-0.8-0.1-0.8-0.2c0-0.1,0.1-0.2,0.4-0.2c3.4-0.4,5.8-2.1,7-5.1c0.5-1.2,0.9-2.7,1.1-4.6c-1.1,1.1-2.4,1.6-3.8,1.6
		c-1.3,0-2.6-0.4-3.6-1.2c-1.6-1.2-2.4-2.9-2.4-5.2c0-1.9,0.6-3.6,1.8-5s2.6-2.1,4.3-2.1c2.1,0,3.8,0.9,5.1,2.6
		C392.2,315.5,392.8,317.8,392.8,320.5z M389.6,318.5c0-2.3-0.4-4.1-1.3-5.5c-0.6-0.9-1.4-1.4-2.4-1.4c-2.1,0-3.1,2.2-3.1,6.6
		c0,3.7,1.2,5.6,3.5,5.6c1,0,1.8-0.5,2.4-1.4S389.6,320.2,389.6,318.5z"/>
	<path class="st1" d="M410.2,325.8c0,2-0.6,3.6-1.8,5c-1.2,1.4-2.6,2.1-4.3,2.1c-2.1,0-3.8-0.9-5.1-2.6c-1.3-1.7-1.9-4-1.9-6.7
		c0-2.5,0.6-4.8,1.7-6.9s2.6-3.6,4.4-4.6c1.5-0.8,3.2-1.2,5-1.2c0.4,0,0.6,0.1,0.6,0.3c0,0.2-0.1,0.2-0.4,0.3
		c-1.8,0.2-3.4,0.8-4.8,2c-1.8,1.5-2.9,4-3.2,7.6c1.1-1.1,2.4-1.6,3.8-1.6c1.1,0,2.2,0.3,3.2,0.9
		C409.2,321.6,410.2,323.4,410.2,325.8z M407.1,325.9c0-3.8-1.2-5.7-3.5-5.7c-1.1,0-1.9,0.5-2.4,1.4c-0.6,0.9-0.9,2.2-0.9,3.8
		c0,2.3,0.4,4.2,1.2,5.7c0.5,0.9,1.3,1.4,2.3,1.4C406,332.4,407.1,330.3,407.1,325.9z"/>
	<path class="st1" d="M428.5,329.3c0,0.2-0.1,0.3-0.3,0.3c-0.2,0-0.3-0.1-0.3-0.3c-0.1-0.2-0.1-0.9-0.2-1.9c0-0.2-0.1-0.3-0.2-0.4
		c-0.2-0.1-0.8-0.2-1.6-0.2c-0.2,0-0.4,0-0.6,0v4.8c0.1,0.2,0.3,0.4,0.5,0.5c0.2,0.1,0.8,0.1,1.7,0.1c0.5,0,0.7,0,0.8,0.1
		c0,0,0,0.1,0,0.2c0,0.1-0.4,0.2-1.2,0.2c-0.8,0-3.1,0-6.8,0.1c-0.2,0-0.4,0-0.7,0c-0.4,0-0.6-0.1-0.6-0.3c0-0.2,0.3-0.3,0.9-0.3
		c0.7,0,1.3,0,1.9-0.1c0.2,0,0.4-0.1,0.5-0.3c0.1-0.2,0.1-0.6,0.1-1.1v-3.7c-0.4,0-0.9,0-1.4,0h-1.2c-0.3,0-0.6,0-0.9,0
		c-0.3,0-0.5,0-0.6,0l-3.9-0.1c-0.3,0-0.4-0.1-0.4-0.2c0-0.1,1.5-2.2,4.5-6.3c0.9-1.3,3-4.2,6.2-8.7c0.1-0.2,0.3-0.3,0.4-0.3
		c0.2,0,0.3,0.2,0.3,0.6v14.3h0.3c0.7,0,1.2,0,1.6-0.1c0.4-0.1,0.6-0.3,0.6-0.6c0-1.3,0-1.7,0-1.3c0-0.7,0.1-1.1,0.3-1.1
		c0.3,0,0.4,0.3,0.4,0.9v1.4v2.2c0,0.7,0,1.2,0.1,1.4C428.5,329,428.5,329.1,428.5,329.3z M422.4,315.7c-0.2,0.3-0.6,0.9-1.3,1.9
		c-0.9,1.2-2.2,3.1-4,5.5l-2.2,2.9c0.7,0,2.4,0.1,4.8,0.1c0.9,0,1.7,0,2.5,0v-2.2c0-1,0-2.4,0.1-4.1
		C422.3,317.8,422.4,316.4,422.4,315.7z"/>
</g>
<polygon class="st2" points="404,491.6 390.6,491.6 383.8,503.2 390.6,514.9 404,514.9 410.7,503.2 "/>
<polygon class="st3" points="403.6,492.3 391,492.3 384.6,503.2 391,514.2 403.6,514.2 409.9,503.2 "/>
<g>
	<g>
		<path class="st0" d="M402.3,511.5c0,0.1-0.1,0.1-0.3,0.1h-0.2c-0.1,0-0.4,0-0.7,0s-0.6,0-0.8,0c-0.3,0-0.6,0-1,0
			c-0.4,0-0.6,0-0.7,0h-0.1c-0.2,0-0.3,0-0.3-0.1c0-0.1,0.1-0.1,0.4-0.1c0.5,0,0.8-0.1,0.9-0.2c0,0,0.1-0.4,0.1-0.9v-7.1
			c0,0-0.1,0.2-0.2,0.5c-0.4,1.1-0.9,2.8-1.6,5l-0.6,2.2c-0.1,0.4-0.2,0.6-0.3,0.6c-0.1,0-0.1-0.1-0.2-0.3c-0.3-0.8-1-2.9-2.2-6.2
			l-0.5-1.5c0,0.2,0,0.4,0,0.7v4.5c0,1.7,0,2.5,0,2.5c0.1,0.1,0.3,0.2,0.7,0.2c0.3,0,0.5,0,0.5,0.1c0,0.1-0.1,0.2-0.3,0.2
			c-0.1,0-0.2,0-0.3,0c-0.1,0-0.2,0-0.3,0l-1.6,0.1c-0.2,0-0.2,0-0.2-0.1c0-0.1,0.3-0.1,0.8-0.2c0.2,0,0.3,0,0.4-0.1
			c0-0.1,0.1-0.3,0.1-0.7v-6.6c0-0.8,0-1.2,0-1.2c0-0.1-0.1-0.2-0.2-0.3s-0.4-0.1-0.8-0.1c-0.1,0-0.2-0.1-0.2-0.1
			c0-0.1,0.1-0.2,0.4-0.2c0,0,0.1,0,0.2,0h0.7c0.5,0,0.9,0,1.2,0c0,0.1,0.3,0.8,0.8,2.2c0.2,0.6,0.8,2.2,1.8,4.8
			c0.2-0.6,0.4-1.2,0.5-1.8l1.5-4.5c0.1-0.3,0.2-0.5,0.2-0.6l2,0c0.3,0,0.5,0,0.5,0c0,0,0.1,0.1,0.1,0.1c0,0.1-0.1,0.1-0.2,0.1
			c-0.3,0-0.4,0-0.5,0c-0.2,0-0.4,0.1-0.5,0.2c0,0.1-0.1,0.6-0.1,1.6v6.4c0,0.4,0,0.6,0.1,0.6c0.1,0.1,0.4,0.1,0.9,0.1h0.1
			C402.2,511.3,402.3,511.4,402.3,511.5z"/>
	</g>
	<g>
		<path class="st0" d="M402.3,498.4c0,0-0.1,0-0.3,0c-0.1,0-0.2,0-0.2,0c0,0-0.1,0.1-0.1,0.2c-0.1,0.5-0.3,0.9-0.5,1.2l0,0.1
			l0.1,0.2l0.1,0.2c0.1,0.1,0.2,0.2,0.2,0.2c0.1,0,0.2,0.1,0.5,0.1c0.1,0,0.1,0,0.1,0.1c0,0,0,0-0.1,0h-0.3c-0.2,0-0.3,0-0.3,0
			c-0.1,0-0.3,0-0.7,0c-0.1-0.1-0.1-0.2-0.2-0.3c-0.3,0.2-0.6,0.4-1.1,0.4c-0.4,0-0.7-0.1-1-0.3c-0.2-0.2-0.4-0.5-0.4-0.8
			c0-0.3,0.1-0.5,0.2-0.7c0.2-0.2,0.4-0.3,0.8-0.5c-0.1-0.1-0.2-0.2-0.3-0.3c-0.1-0.2-0.2-0.3-0.2-0.6c0-0.2,0.1-0.4,0.3-0.6
			c0.2-0.2,0.4-0.2,0.7-0.2c0.3,0,0.5,0.1,0.7,0.2c0.2,0.1,0.3,0.3,0.3,0.5c0,0.4-0.2,0.6-0.7,0.8c0.2,0.2,0.4,0.4,0.6,0.7
			c0.2,0.3,0.4,0.6,0.5,0.7c0.3-0.3,0.4-0.7,0.4-1.1c0-0.1,0-0.1-0.1-0.1c-0.3,0-0.4,0-0.4-0.1c0,0,0.1,0,0.2,0h0.5h0.5
			C402.2,498.4,402.3,498.4,402.3,498.4z M400.6,500.3c-0.6-0.8-1-1.3-1.3-1.7c-0.2,0.1-0.3,0.4-0.3,0.8c0,0.3,0.1,0.6,0.3,0.8
			c0.2,0.2,0.4,0.3,0.7,0.3C400.2,500.5,400.4,500.4,400.6,500.3z M400.1,497.6c0-0.5-0.1-0.7-0.3-0.7c-0.2,0-0.3,0.2-0.3,0.5
			c0,0.1,0,0.3,0.1,0.4s0.2,0.3,0.3,0.4C400,498.1,400.1,497.9,400.1,497.6z"/>
	</g>
	<g>
		<path class="st0" d="M397.6,502.2c0,0.9-0.3,1.6-1,2.3s-1.5,0.9-2.4,0.9c-0.6,0-1.2-0.2-2-0.5c-0.2-0.1-0.4-0.1-0.5-0.1
			c-0.1,0-0.2,0.1-0.2,0.4c0,0.1-0.1,0.2-0.2,0.2c-0.1,0-0.2-0.1-0.2-0.2c0-0.1,0-0.1,0-0.2c0.1-0.6,0.1-1.2,0.1-1.8
			c0-0.1,0-0.4,0-0.9c0-0.1,0-0.1,0-0.2c0-0.2,0.1-0.2,0.2-0.2c0.1,0,0.2,0.1,0.2,0.4c0.3,1.9,1.1,2.8,2.6,2.8
			c0.6,0,1.1-0.2,1.5-0.5c0.3-0.4,0.5-0.9,0.5-1.5c0-0.6-0.2-1.1-0.5-1.5c-0.3-0.4-0.9-0.8-1.7-1.2c-1-0.5-1.7-1-2-1.4
			c-0.4-0.5-0.6-1-0.6-1.7c0-0.9,0.3-1.6,0.8-2.1c0.6-0.6,1.3-0.8,2.1-0.8c0.4,0,0.8,0.1,1.5,0.4c0.2,0.1,0.4,0.1,0.5,0.1
			c0.1,0,0.2,0,0.2-0.1c0,0,0.1-0.2,0.1-0.3c0-0.1,0.1-0.2,0.2-0.2c0.1,0,0.2,0.1,0.2,0.2c0,0.1,0,0.1,0,0.2c0,0.2,0,0.5,0,0.9
			c0,0.5,0,0.9,0.1,1.2l0,0.2c0,0.1,0,0.2-0.1,0.2c-0.1,0-0.2-0.1-0.2-0.4c-0.1-0.6-0.4-1.1-0.8-1.5c-0.4-0.4-0.9-0.6-1.4-0.6
			c-0.5,0-0.9,0.2-1.2,0.5c-0.3,0.3-0.5,0.8-0.5,1.3c0,0.7,0.2,1.2,0.7,1.6c0.2,0.2,0.8,0.5,1.6,1c1,0.5,1.7,1,2.1,1.5
			C397.4,500.9,397.6,501.5,397.6,502.2z"/>
	</g>
</g>
<line class="st4" x1="388.7" y1="385.5" x2="406.9" y2="385.5"/>
<g>
	<g>
		<path class="st5" d="M580.4,435.9c4.2,2.4,10.1-1.5,10.8-2c3.1-2.3,5-6.7-1-4.6c-2.5,0.8-5.7,2.8-7.9,4.5
			C580.1,435.5,580.4,435.9,580.4,435.9z"/>
		<path class="st5" d="M581.1,431.3c4.5,1.7,9.8-3,10.4-3.6c2.8-2.7,4-7.4-1.7-4.4c-2.3,1.2-5.2,3.6-7.1,5.7
			C580.7,431,581.1,431.3,581.1,431.3z"/>
		<path class="st5" d="M580.1,435.8c-4.8,0.8-9-4.9-9.5-5.6c-2.2-3.2-2.4-8,2.6-4c2,1.6,4.4,4.6,5.9,7
			C580.5,435.6,580.1,435.8,580.1,435.8z"/>
		<path class="st5" d="M581.1,431.3c-4.8,0.1-8.1-6.1-8.5-7c-1.7-3.5-1.2-8.3,3.1-3.5c1.7,1.9,3.6,5.2,4.7,7.8
			C581.5,431.1,581.1,431.3,581.1,431.3z"/>
		<path class="st5" d="M581.2,429.1c1.3-1.1,2-2.2,2.7-3.4c1.5-2.8,2.3-3.6,2.9-7.5c0.9-5.5-2.3-10.5-6.2-1.3
			c-1,2.4-1.1,5.8-0.5,8.6C580.7,428.2,581.2,429.1,581.2,429.1z"/>
	</g>
	<path class="st6" d="M581,431.4c0,0-0.7,4-2.2,9.6"/>
</g>
<g>
	<g>
		<path class="st5" d="M215.1,435.9c-4.2,2.4-10.1-1.5-10.8-2c-3.1-2.3-5-6.7,1-4.6c2.5,0.8,5.7,2.8,7.9,4.5
			S215.1,435.9,215.1,435.9z"/>
		<path class="st5" d="M214.4,431.3c-4.5,1.7-9.8-3-10.4-3.6c-2.8-2.7-4-7.4,1.7-4.4c2.3,1.2,5.2,3.6,7.1,5.7
			C214.8,431,214.4,431.3,214.4,431.3z"/>
		<path class="st5" d="M215.4,435.8c4.8,0.8,9-4.9,9.5-5.6c2.2-3.2,2.4-8-2.6-4c-2,1.6-4.4,4.6-5.9,7
			C215,435.6,215.4,435.8,215.4,435.8z"/>
		<path class="st5" d="M214.4,431.3c4.8,0.1,8.1-6.1,8.5-7c1.7-3.5,1.2-8.3-3.1-3.5c-1.7,1.9-3.6,5.2-4.7,7.8
			C214,431.1,214.4,431.3,214.4,431.3z"/>
		<path class="st5" d="M214.3,429.1c-1.3-1.1-2-2.2-2.7-3.4c-1.5-2.8-2.3-3.6-2.9-7.5c-0.9-5.5,2.3-10.5,6.2-1.3
			c1,2.4,1.1,5.8,0.5,8.6C214.8,428.2,214.3,429.1,214.3,429.1z"/>
	</g>
	<path class="st6" d="M214.5,431.4c0,0,0.7,4,2.2,9.6"/>
</g>
</svg>
