<?xml version="1.0" encoding="utf-8"?>
<!-- Generator: Adobe Illustrator 22.0.1, SVG Export Plug-In . SVG Version: 6.00 Build 0)  -->
<svg version="1.1" id="Layer_1" xmlns="http://www.w3.org/2000/svg" xmlns:xlink="http://www.w3.org/1999/xlink" x="0px" y="0px"
	 viewBox="0 0 2222 1111" style="enable-background:new 0 0 2222 1111;" xml:space="preserve">
<style type="text/css">
	.st0{fill:#FFFFFF;}
</style>
<g>
	<rect y="-0.3" width="2220.9" height="1111.1"/>
</g>
<g>
	<path class="st0" d="M770.1,553.8c1.4,5.1,1.7,8,1.7,8.4c0.7-3.7,1.2-6.3,1.7-8.4l6.6-27.1H796l-16.1,57h-14.5l-7-24.3
		c-0.3-1.4-1-4-1.9-7.7c-0.7,3-1.2,5.4-1.9,7.7l-7,24.3H733l-16.1-57h15.7l6.5,27.3c0.7,2.8,1.2,5.8,1.7,8.6c0.5-3,1.2-5.8,1.9-8.6
		l7.2-27.3h12.6L770.1,553.8z"/>
	<path class="st0" d="M829.4,526.7h35v12.6h-19.8v10h18.7v12.2h-18.7v9.6h19.8v12.8h-35V526.7z"/>
	<path class="st0" d="M905.8,526.7h11.9c0.7,0,1.2,0,1.7,0c10.7,0,19.1,0.2,26.6,5.4c7.2,5.1,11,12.9,11,23.1c0,10.1-3.8,18-11,23.1
		s-15,5.4-24.5,5.4c-1.2,0-2.6,0-4,0h-11.9v-57H905.8z M923.8,570.9c11.9,0,17.5-4.5,17.5-15.7c0-11.4-5.8-15.7-17.5-15.7h-2.6V571
		L923.8,570.9L923.8,570.9z"/>
	<path class="st0" d="M1007.7,526.7h19.4l19.8,57h-15.4l-2.8-10.1h-22l-3,10.1h-15.4L1007.7,526.7z M1025.4,562.4l-5.8-18.9
		c-0.2-0.9-0.9-3.5-1.9-7.7c-1,4.2-1.7,6.8-1.9,7.7l-5.8,18.9H1025.4z"/>
	<path class="st0" d="M1099.5,573c4.4,0,7.2-2.6,7.2-5.9c0-4.5-3.1-5.9-9.6-7.5c-10.3-2.8-15.4-6.8-15.4-15.7
		c0-10.7,7.7-18.5,19.8-18.5c6.3,0,11.9,1.7,17,5.1l-4.9,11.2c-3.7-3-7.3-4.5-10.8-4.5c-3.8,0-6.3,2.1-6.3,4.7c0,4,3.8,4.9,9.1,6.3
		c10.1,2.8,15.7,6.5,15.7,17c0,11.9-8.4,20.1-21.9,20.1c-8,0-14.2-2.6-20.3-8.4l7-11.5C1090.6,570.4,1095,573,1099.5,573z"/>
	<path class="st0" d="M1157.8,526.7h15.6v22.2h20.8v-22.2h15.6v57h-15.6v-23.3h-21v23.3h-15.6v-57H1157.8z"/>
	<path class="st0" d="M1249,526.7h5.2v52.1h19.6v4.9h-24.7L1249,526.7L1249,526.7z"/>
	<path class="st0" d="M1356.2,576.3c-5.8,5.6-13.5,8.7-21.7,8.7s-15.7-3.1-21.5-8.7c-5.8-5.6-8.9-13.1-8.9-21.2
		c0-8.2,3.1-15.6,8.9-21.3c5.8-5.6,13.1-8.6,21.5-8.6s15.9,3,21.7,8.6s8.9,13.3,8.9,21.3C1365.1,563.2,1362,570.8,1356.2,576.3z
		 M1359.7,555.2c0-14.2-11.2-25.4-25-25.4s-25,11.2-25,25.4c0,14,11,25.4,25,25.4C1348.5,580.5,1359.7,569.2,1359.7,555.2z"/>
	<path class="st0" d="M1395.2,526.7h5.9l16.4,46.3l17.3-46.3h5.6l-23.1,58.6L1395.2,526.7z"/>
	<path class="st0" d="M1474.8,526.7h28.2v4.9h-23.1v17.8h23.1v4.9h-23.1v24.5h23.1v4.9h-28.2V526.7z"/>
</g>
</svg>
